<?xml version="1.0" encoding="UTF-8"?>
<!DOCTYPE svg PUBLIC "-//W3C//DTD SVG 1.1//EN" "http://www.w3.org/Graphics/SVG/1.1/DTD/svg11.dtd">
<!-- Creator: CorelDRAW -->
<svg xmlns="http://www.w3.org/2000/svg" xml:space="preserve" width="210mm" height="297mm" version="1.1" style="shape-rendering:geometricPrecision; text-rendering:geometricPrecision; image-rendering:optimizeQuality; fill-rule:evenodd; clip-rule:evenodd"
viewBox="0 0 21000 29700"
 xmlns:xlink="http://www.w3.org/1999/xlink"
 xmlns:xodm="http://www.corel.com/coreldraw/odm/2003">
 <defs>
  <style type="text/css">
   <![CDATA[
    .fil2 {fill:none}
    .fil1 {fill:#373435}
    .fil0 {fill:#373435;fill-rule:nonzero}
   ]]>
  </style>
 </defs>
 <g id="Camada_x0020_1">
  <metadata id="CorelCorpID_0Corel-Layer"/>
  <g id="_2249975286352">
   <path class="fil0" d="M15552.76 25727.64c442.39,30.32 908.08,92.06 1351.98,62.61 225.4,-14.94 443.71,-90.66 666.73,-109.21 -567.31,279 -1325.53,230.44 -1933.2,99.74 -30.13,-6.51 -93.1,-10.93 -85.51,-53.14zm-2949.97 523.94c13.42,-304.27 267.07,-643.77 558.63,-739.89 -118.14,113.88 -236.27,227.78 -354.42,341.66 -68.07,132.74 -136.14,265.49 -204.21,398.23zm-7049.64 -1603.66c348.71,110.51 702.21,220.77 1071.7,246.15 853.95,58.65 1729.2,-201.92 2568.35,70.78 101.23,48.39 202.44,96.77 303.67,145.16 -1118.91,-365.36 -2202.55,88.46 -3346.27,-207.58 -186.65,-48.33 -457.53,-126.54 -597.45,-254.51zm9378.41 492.94c256.38,-176.01 521.03,-336.4 744.97,-554.96 -116.78,304.51 -443.35,472.25 -744.97,554.96zm-11458.88 -647.22c695.18,149.02 1518.94,249.32 2018.34,801.46 -127.47,-84.06 -254.94,-168.14 -382.42,-252.2 -470.4,-247.56 -1005.39,-315.81 -1504.68,-479.61 -37.93,-12.46 -131.01,-22.94 -131.24,-69.65zm5807.16 0c300.77,73.94 618.83,210.23 807.21,462.13 -148.34,-94.16 -296.7,-188.34 -445.04,-282.5 -120.73,-59.88 -241.44,-119.75 -362.17,-179.63zm9446.6 190.07c20.89,-14.46 116.37,-14.02 166.16,-34.34 220.33,-90.1 369.04,-213.14 541.48,-371.95 58.91,61.37 -372.95,365.16 -425.1,394.85 -88.45,50.28 -181.69,86.27 -273.67,128.69 -55.29,-21.21 -34.19,-99.77 -8.87,-117.25zm-8825.69 -529.41c1009.5,458.95 1379.07,1754.37 636.43,2621.72 64.86,-141.25 129.72,-282.49 194.58,-423.74 225.02,-622.48 7.55,-1465.6 -473.01,-1921.5 -108.97,-103.4 -257.05,-164.69 -358,-276.48zm2577.52 863.16c459.42,-765.39 1450.35,-668.55 2018.19,-1295.32 49.95,53.82 -288.61,304.46 -331.69,333.43 -393.43,264.7 -900.15,420.64 -1303.64,679.32 -127.62,94.19 -255.24,188.38 -382.86,282.57zm-4223.24 -1418.44c477.95,132.63 1023.28,234.54 1428.33,523.83 -429.36,-199.92 -906.06,-299.41 -1343.1,-470.45 -32.87,-12.89 -92.55,-9.03 -85.23,-53.38zm6241.91 1758.43c747.45,-79.78 1428.69,148.58 2077.86,-357.66 498.19,-388.54 610.35,-876.58 561.89,-1478.73 -2.73,-33.91 -22.75,-115.05 30.41,-107.26 253.76,824.29 -82.17,1470.11 -848.35,1825.24 -465.25,215.62 -869.05,189.38 -1372.97,181.07 -149.61,-20.88 -299.23,-41.78 -448.84,-62.66zm-4347.77 -2128.62c230.14,-0.4 479.83,178.18 652.51,323.28 412.84,346.8 671.78,829.14 682.51,1372.97 -77.31,-185.25 -154.63,-370.51 -231.93,-555.77 -263.37,-469.39 -658.29,-843.31 -1103.09,-1140.48zm2018.79 3208.25c-344.58,-1745.17 1915.32,-1700.87 2604.44,-2826.73 63.28,-209.5 126.58,-418.98 189.87,-628.47 109.42,1101.4 -944.04,1322.12 -1661.73,1788.48 -219.24,142.43 -425.26,310.01 -604.85,493.94 20.64,5.18 41.29,10.36 61.93,15.54 -178.21,183.97 -304.51,416.34 -372.95,663.17 -57.94,6.95 -24.23,-62.61 -16.83,-93.79 20.21,-85.68 62.09,-186.33 109.94,-261.34 8.44,-88.4 -40.06,-27.22 -57.55,4.67 -209.63,382.68 -164.23,919.96 138.96,1242.07 92.23,98.01 231.34,152.4 322.76,249.73 -210.96,-20.57 -435.55,-224.27 -553.97,-390.32 -50.03,-70.13 -133.34,-208.51 -98.37,-288.2 -20.55,10.42 -41.1,20.83 -61.65,31.25zm-5248.6 -2314.23c-707.4,-76.85 -1436.45,-536.29 -1645.41,-1233.48 98.12,133.75 196.23,267.5 294.35,401.24 232.95,254.02 522.91,436.06 821.93,602.56 176.37,76.56 352.75,153.12 529.13,229.68zm-2236.03 -647.71c-54.73,-215.66 -102.95,-373.16 -92.74,-601.8 1.69,-37.55 -23.75,-114.55 30.62,-107.4 7.12,1163.5 1171.52,1694.87 2190.02,1788.71 747.01,68.85 1588.3,-110.67 2288.38,40.41 789.17,170.31 1532.41,974.52 1266.6,1810.73 -53.94,7.35 -29.46,-70.13 -30.79,-107.41 -21.54,-611.56 -186.93,-972.91 -744.69,-1265.73 -1193.97,-626.87 -2544.15,11.6 -3764.57,-394.05 -622.92,-207.03 -1064.82,-599.02 -1234.73,-1241.95 24.44,-135.48 43.72,100.14 91.9,78.49zm13260.49 -801.59c36.2,-32.26 292.54,237.47 326.41,276.96 708.61,826.05 569.61,1936.93 -341.64,2530.29 102.51,-114.1 205.02,-228.2 307.53,-342.3 575.71,-791.83 369,-1797.56 -292.3,-2464.95zm-2670.69 570.42c12.42,144.16 0,314.43 0,462.74 0,13.01 -82.02,209.75 -98.65,241.33 -330.6,628.02 -1198.45,797.93 -1761.98,1149.48 -489.04,305 -1035.86,797.05 -903.53,1431.7 -30.86,-97.56 -61.73,-195.13 -92.59,-292.7 68.39,-584.57 526,-1105.54 1023.97,-1389.01 512.61,-291.74 1239.62,-353.47 1578.53,-868.95 262.2,-398.82 187.3,-786.77 97.97,-1227.21 -12.34,-60.93 -68.8,-78.44 -60.8,-139.78 839.89,808.5 348.84,1922.51 -712.98,2176.62 -31.26,7.51 -101.58,40.52 -94.51,-16.8 163.47,-54.58 336.06,-153.6 475.86,-252.4 554.77,-392.12 717.11,-838.6 521.5,-1495.29 -23.34,-78.42 -41.99,-79.3 -34.64,3.45 7.36,82.42 57.75,169.06 61.85,216.82zm497.19 1527.03c74.05,-172.89 187.82,-328.1 249.38,-507.72 165.12,-481.74 165.23,-969.17 -48.5,-1435.16 -38.09,-83.08 -137.59,-158.62 -123.73,-247.28 423.78,472.78 618.63,1235.85 308.78,1818.04 -76.35,143.44 -220.85,357.29 -385.93,372.12zm-11770.03 -1573.46c-58.39,13.3 -73.65,-32.7 -108.62,-61.5 -194.48,-160.22 -421.48,-413.64 -512.02,-647.87 122.72,133.77 226.84,289.57 352.17,421.08 29.02,30.5 319.91,237.2 268.47,288.29zm13943.49 1203.27c0,-149.1 0,-298.21 0,-447.31 0,-200.31 -178.7,-358.78 -274.94,-498.08 -236.6,-342.48 -438.17,-681.21 -749.83,-966.96 92.02,34.83 205.79,134.08 279.92,199.79 410.36,363.68 743,801.27 803.87,1362.54 -19.67,116.67 -39.35,233.34 -59.02,350.02zm-1304.25 -1974.06c58.27,-13.49 73.91,32.23 108.74,61.34 610.31,509.25 912.7,1177.89 543,1943.32 -58.26,6.76 -24.02,-62.41 -16.99,-93.91 79.36,-355.44 86.35,-574.16 -22.46,-930.57 -113.49,-371.63 -380.67,-678.99 -612.29,-980.18zm1335.31 61.71c404.81,133.87 722.07,15.27 1099.59,-126.09 303.94,469 492.34,957.96 281.97,1513.65 -62.93,166.22 -257.14,438.5 -393.81,549.25 -7.11,5.78 -59.02,-49.28 -71.39,37.96 -26.09,-5.49 -52.16,-10.98 -78.25,-16.47 92.35,-505.84 -36,-1085.74 -372.59,-1480.14 -25.62,-30.05 -501.4,-449.88 -465.52,-478.16zm-8446.9 2004.58c-532.56,-182.57 -1103.94,-167.74 -1639.02,-330.27 -919.28,-279.28 -1673.18,-928.36 -1776.49,-1921.27 70.58,161.1 141.15,322.2 211.73,483.3 556.98,979.25 1727.13,1195.48 2715.33,1528.96 162.82,79.76 325.63,159.52 488.45,239.28zm-5496.46 -1079.72c-512.67,-220.04 -925.04,-705.35 -1086.58,-1233.47 139.49,185.17 278.99,370.34 418.48,555.52 222.7,225.98 445.4,451.97 668.1,677.95zm10465.3 -693.78c18.8,-139.09 0,-344.43 0,-493.58 0,-17.59 -82.1,-134.72 -0.4,-138.62 34.47,115.44 96.16,208.35 116.57,331.71 77.67,470.09 46.72,766.08 -272.37,1132.49 -498.12,571.87 -1179.08,526.12 -1690.85,942.5 -255.78,208.07 -399.31,443.21 -451.34,770.3 -81.09,-33.26 25.51,-183.25 0.03,-246.39 -20.48,20.46 -40.96,40.91 -61.44,61.37 -6.87,-350.62 216.96,-734.1 480.28,-956.88 364.26,-308.2 848.28,-411.35 1248.14,-641.87 79.69,-45.96 205.07,-172.73 243.6,-190.08 13.47,-6.07 50.95,-7.84 46.01,15.03 -113.82,87.64 -227.62,175.29 -341.44,262.93 21.31,16.14 42.59,32.3 63.89,48.44 282.13,-145.2 577.81,-590.35 619.32,-897.35zm4347.6 -478.15c40.9,-3.02 83.25,1.64 124.2,0.27 -243.23,230.49 -767.02,254.03 -1055.71,76.69 76.59,-20.33 144.82,38.15 232.71,46.48 137.96,13.09 628.95,0.03 698.8,-123.44 -139.16,10.15 -284.19,76.11 -422.94,88.64 -243.79,22.02 -574.06,-41.53 -757.15,-211.76 214.27,72.02 408.2,111.22 637.77,93.35 139.8,-10.88 398.82,-125 465.36,-123.84 86.72,1.52 119.52,78.37 76.96,153.61zm-11490.12 1326.18c-707.14,-299.06 -1229.25,-1019.38 -1241.83,-1788.8 60.22,181.68 120.45,363.36 180.67,545.04 223.26,527.48 598.98,917.27 1061.16,1243.76zm9937.41 -1788.64c234.84,107.05 435.27,247.87 702.45,273.5 279.97,26.84 390.24,-60.05 618.84,-87.81 61.24,-7.42 47.05,8.89 45,60.34 -475.81,204.34 -1019.13,153.15 -1366.29,-246.03zm-9129.99 1233.36c-590.33,-281.42 -1195.51,-690.17 -1428.17,-1326.18 120.72,155.25 213.46,326.36 342.13,477.31 46,53.94 354.26,371.31 387.77,386.17 13.54,6.02 50.92,7.88 46.01,-15.02 -126.74,-144.16 -297.12,-271.54 -419.32,-416.35 -20.65,-24.45 -81.49,-61.81 -30.98,-92.66 680.39,807.34 1726.66,1110.44 2655.06,1542.69 -31.34,5.43 -62.68,10.88 -94.03,16.31 -569.88,-254.38 -1157.86,-459.8 -1691.98,-787.46 -91.53,-5.78 -26.2,35.31 5.52,56.36 72.41,48.12 182.06,76.12 227.99,158.83zm5962.75 61.97c129.35,-316.32 136.63,-690.32 5.22,-1008.05 -59.42,-143.71 -163.18,-243.17 -222.61,-380.1 470.35,251.4 559.99,1008.45 217.39,1388.15zm-8602.34 1017.73c-222.1,-84.58 -408.51,-273.25 -540.63,-465.21 -431.9,-627.59 -392.87,-1411.18 74.5,-2002.37 -219.13,561.95 -199.23,1146.18 46.89,1696.68 130.08,88.97 -93.14,-191.83 15.15,-184.89 24.72,102.91 98.85,203.17 160.89,287.64 282.38,384.3 447.34,579.83 905.27,766.56 238.73,97.38 588.25,189.61 844.58,209.88 36.53,2.9 169.94,26 170.14,-30 -331.79,-9.48 -662.27,-95.44 -964.25,-230.49 -21.7,-9.71 -93.55,-17.38 -44.4,-47.99 600.46,194.61 1234.8,211.76 1859.01,281.9 109.89,29.49 219.79,58.99 329.67,88.48 -471.51,70.46 -942.3,12.93 -1413.14,-30.2 -101.34,-9.28 -210.44,11.21 -309.7,-0.85 -735.28,-89.32 -1533.57,-543.59 -1786.52,-1264.08 -57.31,-6.99 -27.01,64.31 -16.39,93.43 123.88,339.7 408.42,596.54 668.93,831.51zm5216.82 216.27c-937.09,-1056.77 -2463.31,-1172.5 -3431.58,-2189.91 -129.15,-174.93 -258.32,-349.86 -387.48,-524.79 1085.8,1213.99 2899.13,1129.79 3942.71,2422.52 601.38,744.92 804.24,1804.87 32.22,2513.3 93.67,-210.4 251.67,-399.95 319.58,-623.12 105.41,-346.53 67.64,-956 -132.96,-1266.49 -18.41,-28.44 -67.36,-40.38 -88.45,-73.14 -159.29,-247.16 -304.27,-481.7 -533.23,-674.99 -76.07,-28.24 -19.9,39.08 -0.45,62.26 90.74,108.25 239.41,206.95 279.64,354.36zm2919.11 -1449.9c-391.15,-348.82 -644.03,-783.84 -589.42,-1326.38 47.71,-7.48 36.45,57.67 45.58,92.71 57.94,221.93 79.31,456.59 140.75,678.19 53.81,7.92 32.27,-72.06 27.57,-104.4 -14.55,-99.77 -57.78,-196.21 -76.26,-294.94 -5.95,-31.91 -41,-100.99 16.91,-93.84 108.97,277.43 217.96,554.85 326.94,832.28 60.35,65.64 56.81,18.24 33.3,-33.1 -62.72,-137.05 -126.62,-271.29 -172.54,-415.37 30.65,15.93 61.29,31.87 91.94,47.8 5.21,-20.52 10.42,-41.03 15.63,-61.54 233.83,199.79 398.5,457.58 543.8,725.51 -113.27,3.77 27.33,265.34 -124.24,261.69 3.17,-97.76 -33.87,-224.33 -124.09,-277.75 41.12,108.15 82.24,216.31 123.36,324.47 -20.37,4.93 -40.74,9.85 -61.12,14.78 -62.38,-143.87 -124.78,-287.74 -187.17,-431.61 -10.31,20.5 -20.63,41 -30.94,61.5zm-7328.36 -1573.17c78.96,-13.78 56.02,11.93 75.99,61.58 39.06,97.24 45.77,215.25 86.16,316.92 888.78,2238.36 3748.66,1408.25 4532.4,3240.66 77.12,180.28 133.54,378.47 118.39,576.02 -49.79,-150.91 -99.58,-301.81 -149.37,-452.71 -728.57,-1643.42 -3156.07,-1146.11 -4196.99,-2370.73 -173.84,-204.55 -371.86,-547.21 -428.52,-808.55 -6.76,-31.21 -31.51,-108.13 23.54,-100.42 86.88,350.06 342.53,739.69 621.17,971.78 24.63,20.53 62.24,80.94 93.27,30.77 -400.24,-391.23 -742.53,-889.27 -776.04,-1465.32zm-3664.88 2097.56c-584.39,-531.21 -635.91,-1411.74 -403.04,-2128.37 55.85,-7.35 28.41,67.2 23.1,99.98 -24.78,153.28 -80.16,310.93 -86.71,469.16 -12.42,300.45 63.53,667.54 164.31,949.85 100.78,203.13 201.56,406.25 302.34,609.38zm3602.6 -0.27c-38.14,33.57 -305.32,-252.5 -340.64,-293.68 -474.93,-553.1 -625.54,-1160.57 -280.04,-1834.38 58.39,-6.35 25.04,64.59 21.66,98.53 -17.56,175.89 -59.67,317.17 -52.64,502.62 21.46,565.97 268.38,1117.55 651.66,1526.91zm8291.52 -2251.38c315.92,195.06 631.85,390.11 947.77,585.17 789.57,502.7 1654.41,1093.81 1600.01,2146.13 -27.77,536.72 -404.18,1092.24 -911.62,1284.57 -51.72,19.6 -238.53,95.36 -269.55,25.47 800.22,-242.43 1231.11,-1348.73 822.88,-2067.49 -24.63,-43.38 -56.78,-48.04 -47.13,15.79 13.02,85.92 68.51,187.99 85.03,285.91 159.4,945.55 -402.89,1631.31 -1326.67,1795.95 195.6,-119.18 391.2,-238.36 586.8,-357.54 620.68,-745.87 551.61,-1822.77 -74.22,-2542.38 -394.52,-453.66 -996.51,-740.82 -1413.3,-1171.58zm3508.97 770.58c-444.43,-66.2 -1005.88,-324.95 -1179.6,-770.85 182.86,162.72 365.7,325.44 548.55,488.16 210.35,94.23 420.69,188.46 631.05,282.69zm-12048.5 802.19c-207.79,-497.55 -288.16,-1105.73 -46.86,-1603.77 -6.87,157.69 -67.15,319.94 -77.39,478.43 -24.88,384.33 73.25,670.81 141.16,1031.52 6,31.93 40.95,101.02 -16.91,93.82zm10961.88 -1665.48c508.81,196.9 977.6,466.63 1449.92,734.23 23.82,32.79 47.63,65.58 71.44,98.38 -460.86,-6.84 -971.36,-224.74 -1304.48,-539.3 -32.92,-31.08 -249.47,-263.74 -216.88,-293.31zm-1677.06 -30.68c450.07,308.61 900.14,617.22 1350.21,925.83 704.7,399.83 1360.47,813.92 1702.11,1549.35 129.03,277.77 109.49,908.04 5.86,1194.92 -119.18,329.86 -504.06,709.12 -830.99,840.35 -28.46,11.4 -118.67,58.12 -115.3,-6.39 5.55,13.17 300.29,-104.12 171.19,-123.36 -160.78,95.25 -377.21,189.64 -563.05,212.3 -33.48,4.05 -112.72,26.63 -105.05,-27.29 851.78,-186.57 1335.95,-904.69 1272.74,-1758.58 -20.49,113.01 -40.98,226.01 -61.47,339.01 5.54,-627.66 -339.96,-1166.95 -776.56,-1588.71 20.62,-10.19 41.25,-20.38 61.88,-30.57 -638.59,-587.98 -1530.63,-874.22 -2111.57,-1526.86zm-7670.56 3176.83c-912.49,-168.58 -1953.5,-628.22 -2321.58,-1534 -257.54,-633.73 -132.13,-1196.89 349.92,-1673.84 52.08,32.69 -12.54,67.68 -31.55,92.06 -167.04,214.58 -270.75,345.16 -295.79,631.65 -81.93,938.8 483.25,1729.47 1305.94,2129.17 331.02,118.32 662.04,236.63 993.06,354.96zm-3167.37 -1495.85c-16.67,172.08 12.13,365.21 0,539.86 -20.6,-87.52 -41.2,-175.02 -61.8,-262.54 -56.98,-831.71 271.36,-1427 899.84,-1943.6 50.42,-41.45 118.86,-104.23 186.72,-107.25 -557.34,434.34 -955.56,1058.55 -1024.76,1773.53zm-1987.81 -725.1c-9.2,-337.66 -3.57,-669.61 102.76,-993.6 10.6,-32.33 7.74,-93.11 52.51,-85.83 -71.49,503.49 -78.68,950.64 92.74,1435.06 166.97,471.78 528.9,977.34 973.62,1223.08 72.65,40.13 412.68,170.43 423.98,195.82 5.34,11.92 11.66,76.84 -14.55,76.2 -173.39,-55.71 -327.37,-147.5 -491.08,-221.77 -23.07,-10.44 -101.15,-62.46 -68.59,6.31 97.52,59.73 201.59,111.74 305.47,159.46 130.23,59.86 364.39,77.21 362.34,241.3 -1098.19,-43.59 -1767.85,-1158.17 -1800.69,-2159.15 20.5,41.04 41,82.08 61.49,123.12zm2081.28 -524.32c-6.19,-149.58 561.09,-673.1 634.91,-676.91 99.32,-5.14 148.67,39.45 58.47,116.7 -214.27,183.47 -501.82,324.95 -693.38,560.21zm15247.33 2174.89c9.92,-169.23 0,-352.99 0,-524.43 0,-188.75 -192.36,-645.18 -297.52,-815.05 -48.82,-78.88 -521.91,-664.45 -603.04,-588.3 115.53,186.22 317.82,301.87 460.46,483.14 420.73,534.72 599.71,1546.95 98.78,2077.01 190.51,-383.33 259.63,-717.45 172.1,-1142.98 -293.14,-1425.4 -1936.49,-1694.13 -2936.18,-2466.07 150,-25.35 179.09,71.34 268.94,118.25 621.36,324.36 1330.13,421.69 1914.44,812.8 765.06,512.14 1125.43,1300.28 921.69,2215.14 -85.59,-14.18 -1.11,-144.77 0.33,-169.51zm-11272.55 -1187.84c134.3,-626.42 114.73,-1212.23 -93.03,-1819.77 51.83,107.75 103.65,215.48 155.47,323.23 149.4,404.49 202.05,1038.86 13.79,1435.12 -21.7,45.67 5.06,76.47 -76.23,61.42zm-7173.24 61.77c-202.21,-671 -112.68,-1387.2 449.77,-1850.93 34.96,-28.8 50.23,-74.79 108.62,-61.5 32.94,32.89 -193.65,323.04 -222.67,380.07 -163.02,320.38 -293.45,793.96 -303.06,1151.57 -2.93,109.06 46.14,210.65 29.02,335.17 -5.79,42.13 -16.73,91.13 -61.68,45.62zm2732.65 -647.91c-8.96,-408.94 291.09,-1043.47 635.23,-1267.05 79.28,-51.5 226.63,-34.34 125.53,95.2 -118.98,152.44 -299.78,265.63 -389.31,446.18 -123.81,241.89 -247.63,483.79 -371.45,725.67zm9501.98 -61.57c-71.22,-167.54 -179.38,-306.72 -248.86,-477.43 -96.32,-236.79 -154.75,-502.83 -185.29,-756.37 44.64,-7.23 43.44,54.43 52.32,86.08 48.42,173.17 77.47,328.94 149.69,499.45 202.56,478.44 722.26,805.57 713.94,1357.67 -191.45,-257.02 -382.9,-514.04 -574.35,-771.06 30.85,20.55 61.7,41.11 92.55,61.66zm2608.57 1079.71c-603.37,-927.11 -1787.86,-1258.26 -2452.1,-2114.03 -45.21,-58.29 -102.34,-119.15 -93.75,-199.63 34.52,-38.57 549.76,506.27 606.17,554.35 654.03,557.33 1583.16,921.33 1939.68,1759.31zm-14688.06 -987.28c36.41,-558.58 317.82,-1092.21 713.62,-1480.59 -143.33,232.84 -286.67,465.69 -430,698.52 -94.54,260.69 -189.08,521.39 -283.62,782.07zm2204.53 324.07c-15.76,-148.22 0,-338.89 0,-493.62 0,-7.55 30.41,-147.66 61.8,-138.66 -10.66,170.07 -21.33,340.14 -32,510.21 21.02,97.2 42.05,194.39 63.06,291.58 -86.76,-584.88 26.44,-1155.83 404.93,-1618.52 41.19,-50.37 305.4,-323.91 340.96,-342.11 62.04,-31.78 142.93,64.39 155.43,124.84 -476.66,261.81 -640.49,790.46 -714.3,1296.45 -10.05,68.73 7.67,144.89 -0.77,215.19 -27.77,231.28 -97.13,448.87 -62.04,694.34 -49.35,-89.66 -98.69,-179.31 -148.04,-268.97 -15.83,-77.84 -61.4,-199.23 -69.03,-270.73zm15371.85 -1835.23c68.92,-60.41 358.52,367.34 387.94,431.81 26.39,57.8 47.49,120.21 46.53,184.68 -57.79,-101.81 -115.6,-203.62 -173.4,-305.43 -87.02,-103.68 -174.05,-207.38 -261.07,-311.06zm-15154.18 647.51c103.16,-244.43 295.79,-589.87 558.51,-678.51 -92.8,97.94 -185.59,195.87 -278.39,293.82 -93.37,128.23 -186.75,256.46 -280.12,384.69zm5030.81 1634.98c167.04,-369.5 341.88,-710.64 371.94,-1126.34 33.03,-456.66 -70.6,-734.59 -172.23,-1154.86 -7.52,-31.13 -40.75,-100.99 16.96,-93.92 306.32,755.04 294.06,1716.22 -216.67,2375.12zm8415.4 -555.55c-113.28,0.16 -196.34,-123.8 -279.27,-164.97 -26.57,-13.18 -76.43,7.75 -114.09,-11.81 -539.34,-280.01 -996.23,-1035.89 -972.73,-1643.02 124.09,76.67 208.4,187.09 186.34,339.21 10.35,-51.37 20.71,-102.75 31.06,-154.12 67.39,2.16 83.3,143.87 95.32,152.07 6.02,4.1 50.14,-26.79 71.08,-21.77 74.14,17.8 157.12,383 199.95,477.2 172.35,379.18 502.75,724.75 782.34,1027.21zm-13757.2 2591.31c-994.3,-113.2 -1888.15,-750.94 -2045.67,-1777.23 -127.18,-828.46 174.88,-1634.83 666.62,-2291.86 40.33,-53.94 315.19,-392.64 339.3,-403.44 13.54,-6.07 50.95,-7.88 46.01,15.02 -789.6,902.53 -1133.86,2117.37 -595.36,3244.72 220.44,461.45 541.51,755.68 998.61,982.38 196.83,76.8 393.66,153.61 590.49,230.41zm1242.33 92.55c-909.08,-334 -1971.3,-290.98 -2589.64,-1144.47 -806.97,-1113.85 -347.68,-2636.78 555.74,-3544.13 52.24,32.42 -13.86,67.41 -31.27,92.34 -143.9,205.71 -297.92,369.19 -424.49,596.34 -597.22,1071.95 -506.44,2400.07 636.59,3049.22 327.79,162.66 655.58,325.33 983.37,488 -656.68,-109.86 -1313.44,-387.78 -1723.48,-925.03 -23.02,-4.89 -21.26,32.37 -15.15,45.72 77.96,169.54 481.08,490.56 651.34,587.05 543.8,308.29 1183.01,304.24 1700.41,600.31 82.87,47.43 204.38,66.71 256.58,154.65zm13014.23 -4687.23c461.44,145.44 1131.34,448.07 1232.28,977.4 33.84,177.3 -38.54,280.94 -23.67,439.96 -52.84,5.74 -98.53,-2.05 -147.19,-23.3 -124.41,-54.23 -401.59,-280.73 -557.79,-371.35 -296.76,-172.12 -614.37,-323.59 -909.6,-500.37 6.53,-21.23 13.07,-42.44 19.61,-63.66 173.04,-100.87 305.48,-280.02 386.36,-458.68zm-14349.57 677.14c130.27,-258.52 291.61,-517.52 512.82,-709.24 5.07,30.69 10.12,61.38 15.19,92.07 76.63,-22.09 132.76,-22.34 185.65,46.51 -400.92,289.21 -739.99,862.4 -745.85,1358.96 -0.73,61.58 100.05,569.58 47.73,569.38 -130.35,-454.98 -144.94,-901.52 -15.54,-1357.68 -86.4,171.48 -145.03,425.06 -154.71,632.69 -10.09,216.98 38.04,436.7 57.9,651.45 3.18,34.54 28.49,110.9 -27.04,103.91 -180.63,-660.53 -130.93,-1329.81 284.46,-1891.75 33.06,-44.71 226.03,-253.18 259.06,-267.24 164.59,-70.1 -128.43,217.51 -139.52,231.77 -134.38,172.69 -221.37,331.99 -280.15,539.17zm-279.77 1727.55c-599.5,-708.85 -651.74,-1740.59 -170.38,-2529.45 -67.75,313.16 -135.49,626.32 -203.25,939.48 -33.87,563.36 144.11,1086.18 373.63,1589.97zm186.29 -123.41c-436.67,-560.49 -390.58,-1293.56 -55.73,-1891.17 78.28,-139.79 282.38,-426.15 397.09,-530.95 79.13,-72.3 180.11,-52.53 124.9,31.34 -46.34,70.41 -159.09,142.52 -216.83,216.62 -343.3,440.61 -518.5,1016.53 -432.18,1569.4 32.75,209.91 124.08,403.25 182.75,604.76zm12205.1 -2467.79c83.54,-79.04 111.23,243.27 93.03,277.37 10.35,-61.65 20.71,-123.29 31.06,-184.94 143.33,86.08 98.33,368.83 128.15,535.64 20.85,116.97 45.53,232.93 88.32,344.16 134.71,241.41 269.42,482.82 404.13,724.23 -29.74,30.32 -246.33,-166.29 -278.43,-201.25 -224.04,-243.7 -468.23,-717.95 -497.28,-1048.49 -6.72,-76.49 -9.69,-408.23 31.02,-446.72zm3819.23 1789.12c0.2,-1.81 29.69,7.44 31.98,-18.51 85.8,-972.23 -741.87,-1355.67 -1522.52,-1647.77 -5.79,-162.48 204.89,46.43 279.4,31.01 -82.81,-61.49 -165.61,-122.99 -248.42,-184.49 457.78,166.57 892.4,343.07 1210.21,725.55 106.82,128.57 305.64,435.02 335.22,592.48 21.26,113.35 14.26,647.75 -55.26,717.64 -85.62,86.03 -34.22,-186.14 -30.61,-215.91 -1.32,7.15 -65.86,101.51 -77.6,122.84 -65.71,-57.11 -131.42,-114.22 -197.14,-171.32 71.05,-180.71 51.16,-320.94 26.6,-506.64 45.74,-2.57 54.73,110.74 58.07,142.4 12.29,116.36 -0.92,234.54 4.06,350.91 54.36,7.1 28.97,-69.94 30.66,-107.46 9.32,-207.3 -3.91,-317.4 -78.08,-508.88 -45.98,-118.57 -130.04,-219.84 -169.97,-339.82 284.41,188.55 463.31,693.77 403.4,1017.97zm-6179.82 -1341.93c-19.22,-169.22 14.02,-367.01 0,-539.85 23.78,135.77 47.58,271.53 71.36,407.3 346.11,1539.39 2198.54,1552.93 2521.98,2924.1 73.09,309.85 55.49,935.48 -188.38,1170.82 -193.69,186.86 -387.9,421.92 -625.1,582.15 -581.34,392.8 -1240.88,353.52 -1904.08,499 542.41,-536.31 1365.58,-448.71 1953.82,-912.33 589.54,-464.58 591.35,-1166.4 195.93,-1762.77 -619.42,-934.26 -1876.65,-1057.54 -2025.53,-2368.42zm7390.92 1789.28c17.12,167.58 0,380.87 0,555.28 0,22.94 -50.47,90.34 -31.35,138.66 -10.25,0.06 -20.49,0.11 -30.74,0.16 0,-210.8 0,-421.59 0,-632.4 0,-206.7 -232.02,-730.69 -347.62,-919.49 -490.5,-800.82 -1298.03,-1241.34 -2181.75,-1501.31 -42.15,-14.22 -13.05,-61.37 13.75,-78.32 42.63,-26.92 813.6,343.19 942.95,359.5 841.17,349.38 1540.44,1154.46 1634.76,2077.92zm-5154.98 -2452.53c32.55,72.63 -24.03,387.74 0,493.59 -20.58,-133.62 -41.17,-267.22 -61.76,-400.84 -68.72,297.73 -8.8,656.22 91.57,941.9 41.64,118.41 142.34,229.31 141.09,353.44 -188.42,-245.91 -360.69,-660.77 -360.04,-971.71 0.12,-59.72 28,-391.2 39.14,-426.54 38.25,-122.02 82.94,-19.2 99.82,-2.25 16.42,16.51 49.1,10.09 50.18,12.41zm-12514.87 1156.83c-15.92,162.16 11.53,344.41 0,509.01 -45.77,5.31 -55.98,-80.57 -59.27,-110.7 -46.86,-427.58 130.8,-1221.9 416.02,-1555.5 15.47,-18.11 82.46,-104.03 109.34,-76.44 -242.19,327.93 -426.39,828.1 -466.09,1233.63zm12338.79 591.12c-323.32,-298.33 -677.31,-613.13 -954.37,-979.74 -202.72,-268.2 -386.17,-554.96 -453.03,-891.44 84.69,157.36 169.39,314.72 254.08,472.09 402.89,550.46 968.15,1074.53 1500.55,1503.12 30.01,24.19 38.29,68.17 69.68,92.26 95.39,73.24 224.41,122.2 317.97,199.92 -34.96,41.25 -108.63,-23.22 -144.46,-41.57 -132.53,-67.92 -494.58,-266.28 -590.42,-354.64zm-12214.31 -945.88c94.72,-343.11 255.01,-659.19 449.87,-956.15 25.07,34.47 50.15,68.92 75.22,103.39 -235.4,246.07 -323.08,588.98 -525.09,852.76zm5216.55 1912.64c-100.06,-110.63 -220.98,-121.19 -338.56,-203.21 -145.18,-101.27 -276.3,-275.59 -440.33,-395.53 -745.69,-545.16 -1685.27,-810.39 -2482.1,-1267.02 -419.44,-240.41 -850.3,-551.58 -992.87,-1034.05 106.2,72.31 215.78,320.67 326.21,369.95 13.5,6.03 50.91,7.88 46.01,-15.02 -36.23,-56.55 -72.47,-113.11 -108.7,-169.66 690.56,609.82 1635.25,865.5 2438.6,1310.27 476.78,263.95 1230.43,816.18 1502.35,1283.93 22.66,38.96 60.07,68.4 49.39,120.34zm6925.39 -2375.37c0,-179.95 0,-359.91 0,-539.85 0,-5.95 50.63,-55.27 61.71,-46.24 6.85,33.95 13.7,67.92 20.54,101.87 -27.42,161.41 -54.83,322.81 -82.25,484.22zm-9342.13 -528.97c3.39,-39.56 6.78,-79.13 10.17,-118.7 253.65,226.09 507.31,452.16 760.96,678.24 -105.93,-28.16 -207.63,-119.62 -293.7,-186.09 -161.42,-124.65 -298.61,-305.29 -477.43,-373.45zm11578.19 313.48c-27.2,113.03 -262.8,530.97 -361.82,549.97 -65.05,12.54 -483.64,-389.35 -501.4,-448.67 -41.63,-139.39 38.41,-543.03 133.85,-656.55 55.97,-66.55 131.6,123.44 170.94,168.5 144.9,165.93 341.6,335.8 558.43,386.75zm-2391.18 -648.12c38.74,-51.61 56.31,3.05 61.93,45.43 27.57,208.52 -53.89,477.88 -46.57,695.11 -59.23,-249.8 -31.95,-488.16 -15.36,-740.54zm-7204.75 -30.68c124.38,87.15 248.74,174.3 373.11,261.45 766.35,661.81 1229.55,2171.56 615.5,3049.38 -32.83,46.91 -185.77,188.75 -149.68,67.44 28.85,-96.85 135.13,-255.71 177.96,-378.66 111.36,-319.62 186.06,-653.97 162.87,-994.6 -51.56,267.27 -103.11,534.52 -154.67,801.79 -2.29,-234.97 46.3,-455.46 30.38,-693.53 -38.9,-581.28 -357.36,-1413.55 -760.07,-1836.32 -95.12,-99.9 -212.82,-167.54 -295.4,-276.95zm-6396.85 1418.73c324.45,-806.02 1276.96,-897.68 1831.58,-1480.72 -10.17,41.12 -20.33,82.24 -30.5,123.36 20.33,-10.27 40.66,-20.54 61,-30.81 105.88,176.54 -162.71,379.35 -295.11,492.62 -409.16,350.02 -844.35,449.08 -1237.54,714.14 -67.03,45.19 -169.62,191.13 -252.27,242.98 -52.24,-32.94 12.86,-67.68 31.62,-92.02 276.14,-358.3 561.6,-504.07 926.36,-745.6 31.7,-21.01 97,-62.3 5.5,-56.4 -398.98,212.33 -750.11,489.13 -1040.64,832.45zm13694.6 801.79c-126.7,-39.25 -257.71,-130.96 -370.02,-202.86 -385.12,-246.54 -795.88,-563.31 -1012.44,-968.56 -186.09,-348.22 -283.81,-747.37 -263.08,-1141.81 60.2,181.69 120.39,363.38 180.59,545.07 310.18,717.04 829.8,1320.04 1464.95,1768.16zm1987.47 -2036.03c-77.82,-102.9 -155.64,-205.8 -233.46,-308.69 15.6,-20.38 31.18,-40.77 46.77,-61.15 98.13,253.19 338.63,484.76 559.12,632.78 -19.79,19.78 -39.59,39.54 -59.39,59.32 9.5,26.27 18.99,52.55 28.49,78.82 -222.62,-56.4 -531.27,-333.53 -616.18,-544.84 -14.5,-36.16 -60.15,-76.93 10.86,-102.64 17.23,-6.22 163.26,272.78 263.79,246.4zm-12235.38 678.67c-454.12,-199.79 -840.29,-595.97 -962.36,-1079.27 118.8,185.17 237.62,370.34 356.42,555.52 201.98,174.58 403.96,349.17 605.94,523.75zm-4067.69 2221.2c-208.79,-645.22 -151.29,-1311.43 241.14,-1872.99 525.81,-752.34 1492.07,-967.72 2118.26,-1612.73 -10.18,61.79 -20.34,123.58 -30.51,185.37 151.05,-76 6.39,129.26 -30.5,170.19 -334.73,371.19 -878.86,446.31 -1257.78,755.68 -932.8,761.46 -1120.17,2215.82 -450.99,3207.32 -61.92,11.25 -87.72,-40.8 -123.24,-77.76 -199.28,-207.43 -396.58,-589.18 -404.97,-878.11 -20.47,41.02 -40.94,82.02 -61.41,123.03zm16203.22 -3368.15c25.92,-43.02 -15.78,-118.21 22.07,-148.26 117.81,213.97 273.97,374.92 449.82,541.62 32.5,30.85 185.52,80.54 47.61,105.81 -129.42,-102.75 -258.83,-205.51 -388.25,-308.26 -67.52,137.29 435.22,371.31 372.18,431.73 -141.9,-0.52 -597.46,-492.58 -589.33,-570.9 2.56,-24.92 75.7,-34.79 85.9,-51.74zm161.98 -117.26c150.36,-20.94 300.71,-41.87 451.07,-62.81 -5.49,175.02 -10.99,350.04 -16.48,525.07 -32.47,33.86 -265.82,-210.76 -295.23,-246.27 -22.58,-27.32 -150.49,-208.19 -139.36,-215.99zm-61.95 -154.23c176.8,7.94 313.5,-88.62 465.48,-154.41 45.05,194.21 -211.72,189.95 -357.35,184.85 -37.5,-1.28 -115.49,23.17 -108.13,-30.44zm-2298.2 -401.37c0,195.38 0,390.76 0,586.13 20.61,-71.93 41.2,-143.85 61.81,-215.78 -21.35,117.86 55.4,216.19 63.57,324.4 10.73,143.32 -54.49,267.8 -62.73,400.91 -32.11,517.41 32.3,959.98 279.23,1418.25 -21.94,42.94 -59.66,-40.65 -68.39,-55.43 -192.56,-325.68 -345.9,-899.12 -393.27,-1275.17 -48.91,-388.62 -12.38,-752.15 58.62,-1136.87 9.45,-51.09 -19.81,-52.74 61.16,-46.44zm-13166.86 1388.33c-158.96,-683.78 258.23,-1154.27 854.32,-1410.7 179.62,151.36 336.98,360.3 573.94,423.85 11.37,47.24 -7.2,49.29 -32.91,74.72 -241.31,238.63 -976.27,737.68 -1284.67,883.24 -37.79,17.8 -63.86,39.57 -110.68,28.89zm12359.44 -447.43c-27.56,-243.01 0,-577.57 0,-832.92 0,-9 33,-171.48 61.81,-169.51 -86.16,688.64 48.87,1378.4 373.27,1989.32 -42.28,22.64 -89.41,-82.59 -106.25,-110.39 -134.9,-222.69 -299.77,-620.71 -328.83,-876.5zm-6304.3 -107.97c-365.68,-285.4 -850.5,-486.16 -1055.23,-925.47 111.8,80.86 176.01,200.55 278.87,293.39 207.87,187.54 509.98,336.11 711.58,527.08 33.56,31.77 78.85,44.47 64.78,105zm-6987.28 1758.3c-106.69,80.46 -305.79,-711.61 -309.97,-787.36 -29.46,-529.86 262.44,-1186.96 635.66,-1557.83 61.92,-61.55 555.34,-450.72 606.17,-400.11 -45.04,174.24 -207.27,298.2 -285.3,472.04 -189.3,421.85 -141.61,869.36 128.67,1240.35 -348.27,266.11 -645.64,610.31 -775.23,1032.91zm12950.39 -1419.2c-106.49,-350.59 -127.67,-721.38 -8.4,-1072.01 43.97,-94.98 87.95,-189.97 131.92,-284.95 -82.98,353.64 -138.75,698.48 -123.6,1063.81 3.18,75.67 81.77,240.81 0.08,293.15zm5837.81 -323.68c12.99,-175.73 0,-375.89 0,-555.28 0,-145.68 -180.02,-366.81 -217.07,-509 103.39,43.17 134.02,229.76 183.92,289 25.76,30.53 74.51,8.64 97.69,38.41 54.05,69.41 128.11,510.77 122.44,612.31 -18.65,333.92 -292.66,677.59 -621.73,756.64 141.82,-120.46 527.94,-475.11 527.94,-662.93 0,-179.95 0,-359.91 0,-539.86 -10.36,0 -20.71,0 -31.06,0 0,169.67 0,339.35 0,509.01 0,27.52 -82.86,139.47 -62.48,200.32 -10.13,0.01 -20.26,0.03 -30.38,0.04 -24.2,-50.73 28.81,-112.39 30.73,-138.66zm-92.98 -1187.52c68.07,-67.32 649.45,494.87 713.15,571.46 569.12,684.51 622.04,1664.08 -51.97,2294 -38.61,14.38 -59.34,-6.39 -88.24,-25.68 -111.58,-74.46 -254.12,-256.38 -389.59,-353.83 -302.26,-217.47 -653.3,-345.56 -990.68,-496.76 150.84,-23.67 301.67,-47.34 452.51,-71.02 58.87,-89.37 101.1,-29.08 157.92,-58.84 546.82,-286.56 697.51,-936.92 391.27,-1412.15 -64.79,-149.05 -129.58,-298.12 -194.37,-447.18zm-18042.39 986.84c70.48,-430.11 471.08,-973.87 927.92,-1015.07 7.28,40.56 14.55,81.13 21.83,121.7 -181.19,76.92 -688.16,371.59 -763.46,539.17 -6.06,13.49 -7.92,50.61 15.11,45.72 226.47,-242.82 506.11,-450.21 822.89,-555.12 9.05,34.72 18.1,69.46 27.15,104.19 -433.46,281.01 -833.17,449.07 -866.6,1020.75 -11.13,190.96 3.7,383.44 31.91,571.74 -235.04,-181.6 -120.87,-564.03 -31.02,-802.07 -30.78,18.12 -61.57,36.26 -92.35,54.39 -20.77,156.63 -41.55,313.25 -62.33,469.88 -62.28,-261.81 -6.5,-459.44 61.49,-709.2 -30.84,51.31 -61.69,102.62 -92.54,153.92zm1490.29 -832.31c103.41,-61.85 206.82,-123.69 310.23,-185.54 -10.35,154.26 -20.69,308.52 -31.03,462.78 -94.75,22.85 -318.66,-224.9 -279.2,-277.24zm13508.9 708.92c98.17,-310.55 111.59,-589.95 123.93,-910.21 1.44,-37.39 -23.39,-114.72 30.74,-107.49 49.82,275.23 51.03,542.75 -37.53,810.59 -17.8,53.86 -68.28,175.57 -117.14,207.11zm-589.94 123.47c-5.81,-82.71 -11.63,-165.4 -17.44,-248.11 160.86,-307.97 321.71,-615.94 482.57,-923.9 -82.82,514.1 -165.63,1028.18 -248.45,1542.28 -57.28,-103.72 -114.56,-207.42 -171.83,-311.14 109.03,-307.55 218.06,-615.1 327.09,-922.65 -46.77,7.15 -68.91,105.32 -85.11,146.36 -78.59,199 -133.09,421.17 -216.18,618.11 -15.87,37.6 -18.52,90.9 -70.65,99.05zm-1180.75 1727.63c-773.1,-726.97 -1073.15,-2018.2 -449.54,-2930.37 104.11,-8.28 -16.95,52.34 -15.01,92.99 -10.34,20.39 -20.7,40.77 -31.04,61.17 -264.45,711.13 -221.98,1477.34 108.1,2158.86 129.16,205.78 258.33,411.56 387.49,617.35zm2546.93 -2992.19c79.99,-15.71 54.32,16.67 77.75,60.01 100.58,186.3 197.26,379.67 292.14,569.06 -133.6,78.17 -267.19,156.36 -400.8,234.54 123.76,-286.44 26.16,-568.02 30.91,-863.61zm1490.65 -0.25c68.83,-59.97 296.76,180.64 342.21,230.65 431.85,475.1 710.93,1306.14 40.17,1707.38 -261.31,156.33 -728.96,274.15 -974.68,46.02 109.21,-387.62 70.31,-772.1 0.32,-1161.36 305.68,-163.56 527.88,-482.42 591.98,-822.69zm-2608.49 1634.92c90.06,-367.99 180.1,-735.98 270.16,-1103.97 23.61,-197.47 47.23,-394.93 70.85,-592.4 77.54,452.01 -22.8,894.54 -177.59,1319.27 -54.47,125.7 -108.95,251.4 -163.42,377.1zm-11831.95 -1727.38c0,190.24 0,380.46 0,570.7 0,585.57 635.1,1409.34 1072.31,1772.9 756.98,629.51 1802.88,872.32 2437.1,1651.05 -106.5,-79.3 -213,-158.61 -319.51,-237.91 -777.26,-563.36 -1767.71,-803.4 -2490.34,-1443.92 -72.57,-64.31 -240.14,-198.54 -218.36,-276.62 242.35,205.57 504.71,423.48 782.78,579.69 27.28,15.35 78.48,67.4 102.27,21.86 -669.82,-420.8 -1198.6,-843.57 -1436.57,-1627 -109.14,-359.23 -207.11,-698.68 70.32,-1010.75zm10142.26 482.05c82.14,-176.45 125.17,-410.18 291.66,-543.74 -223.7,762.09 -426.75,1554.86 -217.39,2344.35 -38.36,-90.27 -76.7,-180.54 -115.05,-270.81 -111.15,-387.5 -211.73,-1000.06 -75.95,-1383.22 11.05,-31.25 103.68,-118.58 116.73,-146.58zm-8962.22 -574.6c0,154.25 0,308.48 0,462.73 20.6,-41.08 41.2,-82.15 61.8,-123.23 27.97,196.3 88.13,416.54 155.59,602.44 19.33,53.27 12.13,126.61 92.99,106.77 -13.71,-187.99 -138.83,-359.19 -178.7,-547.17 -6.6,-30.97 -34.8,-136.81 23.27,-131.18 74.18,447.42 391.87,935.26 669.9,1293.6 317.3,409.07 756.3,669.16 1085.36,1081.23 151.33,189.48 268.03,391.96 388.13,601.64 -487.04,-410.82 -974.07,-821.62 -1461.11,-1232.43 -408.76,-455.7 -729.67,-997.2 -775.43,-1620.65 -55.13,-5.42 -33.07,104.4 -30.18,138.01 16.79,196.55 109.06,493.02 190.23,674.9 53.85,120.63 178.3,261.21 212.57,344.29 5.83,14.09 8.12,50.48 -15.02,45.59 -355.27,-368.55 -441.19,-881.29 -481.49,-1372.63 20.7,-107.97 41.4,-215.94 62.09,-323.91zm9533.36 3084.9c-276.55,-335.88 -440.5,-879.28 -466.78,-1309.84 -37.85,-619.79 207.55,-1226.08 389.46,-1806.23 24.4,85.36 -11.53,195.14 -23.78,285.03 -48.59,356.26 -181.48,725.96 -208.73,1088.48 -44.75,595.36 70.45,1200.33 309.83,1742.56zm-14781.2 -1049.03c-82.42,-1142.22 904.21,-1987.82 1987.13,-2097.29 -9.69,58.25 -65.42,50.42 -104.97,65.12 -222.78,82.66 -446.12,128.38 -661.06,237.88 -147.43,75.1 -633.22,412 -693.25,545.48 -6.07,13.49 -7.91,50.61 15.11,45.7 382.35,-414.57 886.22,-658.11 1429.49,-797.73 36,91.04 71.98,182.07 107.98,273.1 -1176.66,162.52 -2137.05,1458.98 -1832.62,2622.36 -38.37,-79.98 -76.75,-159.94 -115.12,-239.92 -147.32,-500.77 -58.12,-948.52 115.12,-1425.6 -43.99,94.97 -87.98,189.94 -131.97,284.91 -38.61,161.99 -77.23,324 -115.84,485.99zm2453.09 -1973.96c266.66,35.7 475.91,-65.52 714,-154.25 -8.13,172.24 -114.21,207.75 -255.13,255.23 -176.93,59.53 -464.81,172.16 -458.87,-100.98zm1738.92 -77.33c-15.11,204.66 0,438.92 0,647.83 0,133.19 254.92,667.47 336.26,807.37 521.66,896.99 1449.99,1322.65 2272.27,1891.63 -444.19,-252.75 -888.38,-505.5 -1332.57,-758.25 -773.7,-499.09 -1481.75,-1548.08 -1369.83,-2496.71 10.25,-86.77 42.63,-162.96 124.61,-199.84 18.97,46.16 -29.09,85.68 -30.74,107.97zm13757.03 509.01c-30.78,21.72 -172.99,91.29 -217.23,77.28 178.34,-181.44 229.69,-395.09 302.34,-626.5 14.23,-45.26 -14.47,-77.49 51.52,-64.67 19.65,3.82 78.96,26.8 83.34,48.12 18,87.69 -166,465.75 -219.97,565.77 182.4,-128.78 226.08,-505.64 248.82,-524.47 67.11,-55.47 95.96,101.54 154.62,30.37 0.16,31.19 0.33,62.38 0.49,93.58 20.55,-10.52 41.09,-21.05 61.64,-31.57 1.37,202.61 -93.62,411.72 -217.87,570.18 -33.88,43.19 -305.89,326.36 -340.68,293.63 39.54,-72.18 -65.74,-185.45 -63.82,-199.67 5.43,-39.73 115.61,-155.73 156.8,-232.05zm-15496.18 -524.31c261.67,-14.3 513.46,-102.51 745.24,-215.91 66.99,62.82 -308.92,212.33 -348.27,224.43 -107.81,33.08 -237.16,68.31 -350.6,53.37 -42,-5.58 -98.05,-22.93 -46.37,-61.89zm14564.52 3084.2c186.65,-195.97 301.87,-418.95 395.9,-670.48 285.25,-762.83 298,-1354.3 -146.6,-2059.93 -125.49,-199.19 -340.35,-346.08 -342.12,-600.71 819.91,866.7 1307.98,1806.71 657.16,2951.37 -54.52,95.89 -310.05,499.17 -418.1,469.49 -48.74,-29.91 -97.5,-59.82 -146.24,-89.74zm-8260.41 -3361.97c0,200.53 0,401.04 0,601.56 0,52.37 -142.5,373.28 -180.39,437.75 -93.39,158.91 -332.2,496.87 -411.88,150.79 273.6,-158.54 443.51,-416.42 522.31,-719.77 23.31,-156.77 46.64,-313.55 69.96,-470.33zm8943.06 802.08c-293.43,-235.51 -153.31,-273.43 -46.42,-524.88 16.75,-39.4 75.38,-282.5 93.23,-276.88 405.85,133.88 79.72,558.02 -46.81,801.76zm-15278 -678.51c119.15,-20.49 238.3,-40.98 357.44,-61.47 170.65,-82.3 341.3,-164.61 511.94,-246.91 -115.93,292.63 -539.15,353.24 -818.99,429.24 -16.8,-40.28 -33.59,-80.58 -50.39,-120.86zm13105.1 1264.63c21.78,-83.3 -34.84,-183.36 -25.32,-255.5 10.57,-79.58 155.71,-290.42 195.26,-392.85 117.13,-303.38 175.2,-603.55 217.75,-924.78 87.4,86.52 33.04,230.32 47.06,339.02 10.35,-71.87 20.71,-143.75 31.06,-215.62 44.04,-6.27 58.02,84.35 59.83,111.3 26.44,388.91 -250.7,917.4 -447.6,1246.62 -20.18,33.65 -31.48,84.63 -78.04,91.81zm1738.87 -1603.98c154.86,27.76 176.53,99.5 155.43,246.47 10.29,-41.17 20.57,-82.35 30.86,-123.52 30.97,0.02 61.93,0.06 92.9,0.08 0.15,51.43 0.3,102.86 0.45,154.3 30.9,-30.75 61.8,-61.49 92.71,-92.23 -23.23,161.15 -62.21,335.12 -171.04,462.33 -5.12,-41.02 -10.26,-82.05 -15.38,-123.07 -30.9,10.22 -61.78,20.46 -92.67,30.69 10.17,-71.91 20.33,-143.8 30.51,-215.7 -20.73,41.04 -41.48,82.1 -62.21,123.15 -178.41,-80.82 -17.07,-303.07 -61.56,-462.5zm-8104.95 3670.7c-92.9,-344.64 -311.62,-716.55 -543.45,-987.36 -666.68,-778.69 -1635.55,-901.17 -1906.15,-2055.12 -46.86,-199.66 -119.51,-506.91 -19.41,-689.92 15.59,174.71 31.16,349.41 46.74,524.12 20.49,-41.03 40.98,-82.05 61.47,-123.07 142.14,1305.01 1736.26,1465.95 2190.42,2590.94 13.51,33.42 -15.91,80.38 0.24,121.5 66.19,168.23 159.65,280.5 192.81,488.33 5.26,32.98 36.44,135.52 -22.67,130.58zm6583.31 -3794.09c188.1,24.7 108.98,362.03 85.07,500.93 -40.59,235.35 -165.32,590.42 -287.52,795.32 -23.62,39.65 5.71,77.85 -77.03,60.78 91.63,-454.7 337.98,-875.94 279.48,-1357.03zm-11086.86 184.77c-17.89,-117.33 62.68,-189.52 155.26,-246.63 -268.02,590.94 -268.38,1266.93 -76.14,1880.62 172.14,549.58 563.89,946.84 977.03,1327.39 -97.6,-11.13 -187.21,-96.97 -263.09,-154.81 -713.5,-544.12 -1137.91,-1527.3 -1006.36,-2417.07 15.27,-103.3 74.63,-443.01 167.21,-481.72 15.37,30.74 30.72,61.47 46.09,92.22zm12142.53 -308.05c249.7,58.16 351.89,168.3 310.38,431.45 -72.14,19.36 -51.96,-17.03 -71.04,-39.04 -100.31,-115.97 -173.28,-255.48 -239.34,-392.41zm-7391.21 3146.15c16.93,-250.88 -17.87,-480.72 -100.21,-717.48 -98.53,-283.31 -507.08,-810.86 -482.77,-1047.17 9.4,-91.75 72.69,-178.11 84.5,-257.68 62.86,-422.88 -118.73,-874.73 -215.13,-1278.35 1182.52,884.58 1588.21,2428.51 1925.36,3794.26 56.85,6.91 26.84,-65.76 22.42,-99.33 -12.65,-96.36 -43.03,-209.2 -63.41,-307.44 -174.44,-840.92 -423.7,-1675.81 -766.47,-2462.02 319.22,182.96 620.2,386.01 951.24,550.94 331.91,165.34 1262.77,593.53 1595.98,546.78 225.1,-31.58 385.8,-190.8 588.96,-264.47 -265.57,356.2 -280.31,743.74 -387.09,1142.17 -127.49,475.75 -274.69,947.64 -419.99,1417.8 90.08,-213.7 180.15,-427.41 270.23,-641.12 208.23,-679.96 317.05,-1577.99 817.3,-2118.77 24.6,-26.55 120.27,-142.31 154.3,-108.58 -224.06,381.6 -347.11,824.29 -425.7,1258.03 -139.36,769.09 -192.93,1559.12 -257.82,2335.23 -38.61,462.21 -113.28,922.78 -92.95,1388.44 29.89,-134.86 59.77,-269.7 89.66,-404.56 16.69,-116.99 33.37,-234 50.06,-350.99 108.34,215.1 189.14,421.6 356.55,602.16 118.78,128.09 300.1,202.24 342.17,384.72 -279.53,36.05 -559.07,72.09 -838.6,108.14 292.06,109.21 591.43,4.66 880.55,-48.24 15.89,65.74 31.77,131.47 47.66,197.22 -24.15,73.46 -771.61,379.86 -906.35,458.55 -603.32,352.39 -874.15,866.34 -829.27,1567.32 -164.48,-31.86 -328.98,-63.71 -493.46,-95.57 -6.87,-292.89 46.9,-506.95 -17.76,-799.94 -107.17,-485.27 -464.76,-917.07 -885.69,-1171.78 -8.39,-49.16 43.16,-32.62 76.64,-30.16 237.48,17.55 516.52,103.39 684.12,277.2 46.98,-44.51 -48.98,-113.87 -77.47,-138.98 -286.47,-252.26 -604.2,-218.03 -933.39,-306.77 -218.44,-58.92 -428.24,-177.1 -650.3,-245.82 -196.17,-60.69 -394,-113.92 -590.38,-172.48 -12.7,-80.26 14.52,-63.31 78.28,-62.47 239.82,3.21 898.43,125.05 1123.86,210.57 126.83,48.12 228.73,142.39 350.48,191.35 -358.51,-426.9 -970.68,-347.16 -1459.63,-493.73 44.16,-115.85 102.07,-222.9 134.74,-344 148.92,-552.44 344.66,-1619.54 265.09,-2165.78 -98.13,-673.85 -502.05,-1166.32 -1020.18,-1577.27 76.34,-80.34 168.41,-139.34 249.5,-214.93 54.29,-50.62 43.03,-128.22 122.23,-109.03 84.87,356.7 392.28,607.47 512.31,956.76 46.61,215.76 93.22,431.51 139.83,647.27zm-3229.36 339.22c-149.81,-103.03 -299.61,-206.04 -449.42,-309.06 -800.45,-684.69 -1144.67,-1436.56 -969.99,-2504.34 53.68,-328.33 171.91,-738.29 472.44,-918.87 -67.48,148.89 -134.97,297.8 -202.45,446.7 -246.56,712.5 -148.56,1417.28 223.86,2061.29 120.64,208.63 294.75,388.43 397.5,607.42 -53.4,52.14 -249.98,-231.57 -280.44,-262.26 -173.32,-174.45 -331.95,-287.28 -402.68,-554.75 -43.03,-49.53 -33.27,30.28 -24.75,54.82 89.25,258 318.25,533.51 505.75,731.95 225.83,238.99 494.7,420.51 730.18,647.1zm2266.6 -3763.09c249.71,615.86 312.27,1335.34 -264.45,1788.16 -56.21,44.14 -241.5,164 -175.88,11 38.3,-89.25 214.7,-231.85 290.69,-359.66 277.1,-466.15 244.51,-839.71 132.85,-1345.74 -6.99,-31.58 -41.71,-100.35 16.79,-93.76zm-3259.94 2128.14c-200.21,-649.12 -191.93,-1339.44 138.71,-1943.88 21.29,-38.93 230.37,-404.54 295.51,-338.54 -70.64,152.39 -189.03,280.44 -263.44,432.08 -295.88,602.64 -256.29,1116.27 -154.19,1756.87 5.19,32.37 41.51,100.7 -16.59,93.47zm2080.59 -1264.73c20.7,-251.78 41.39,-503.55 62.08,-755.32 20.5,-87.47 41,-174.95 61.49,-262.41 36.84,280.4 48.17,540.42 -32.43,815.69 -30.38,67.35 -60.76,134.69 -91.14,202.04zm962.36 -709.36c-0.32,-32.82 -20.05,-101.11 30.66,-92.36 191.32,506.37 98.13,1126.8 -279.4,1526.55 -34.04,36.07 -168,179.91 -216.47,92.83 200.73,-138.63 300.9,-283.74 372.02,-509.01 -72.21,130.86 -194.72,289.81 -310.26,385.86 -24.63,20.48 -62.24,80.93 -93.27,30.76 501.74,-471.49 526.3,-1218.73 310.71,-1835.68 101.15,95.97 147.11,268.54 186.01,401.05zm-1024.81 339.33c-20.17,2.33 -62.08,-40.89 -62.08,-46.28 0,-205.65 0,-411.31 0,-616.97 0,-22.97 50.47,-90.38 31.35,-138.66 10.24,-0.05 20.49,-0.1 30.73,-0.16 0,267.36 0,534.71 0,802.07zm651.83 -555.44c-20.49,-92.49 -40.99,-184.99 -61.49,-277.48 46.53,7.8 59.71,56.68 77.23,92.67 180.83,371.47 175.93,951.81 39.71,1334.86 -24.07,67.6 -236.08,516.88 -334.45,423.24 10.19,-51.36 20.39,-102.71 30.58,-154.07 -30.84,20.56 -61.7,41.12 -92.55,61.69 -10.32,-128.18 91.82,-221 138.84,-339.94 160.42,-405.73 202.04,-800.63 140.64,-1233.23 20.5,30.75 41,61.5 61.49,92.26zm-2235.19 1110.48c-74.5,-340.62 38.45,-774.95 200.88,-1080.04 20.97,-39.39 234.44,-397.33 295.59,-338.48 -341.24,364.59 -449.5,825.32 -465.76,1311.16 -1.26,37.11 23.1,114.79 -30.71,107.36zm-217.79 139.06c-18.52,-163.88 0,-383.2 0,-555.28 0,-6.22 28.93,-120.22 61.8,-107.81 -48.1,258 -16.08,551.66 39.94,808.82 215.63,989.33 1222.52,1614.67 1885.43,2306.76 13.58,-57.84 -32.35,-73.42 -61.73,-108.05 -500.24,-589.66 -1330.85,-1111.97 -1537.51,-1896.85 -187.82,-713.25 -53.36,-1456.04 450.26,-2005.46 -51.2,169.27 -155.91,316.84 -208.31,486.87 -169.62,550.59 -128.55,1204.4 162.18,1703.25 23.78,4.5 18.84,-28.49 15.71,-46.32 -27.6,-157.25 -143.93,-371.55 -178.73,-562.99 -28.38,-156.17 -38.26,-341.5 -38.66,-500.93 25.42,123.69 50.85,247.38 76.27,371.07 36.47,81.86 72.95,163.72 109.42,245.58 -121.72,-418.83 -187.26,-828.58 -31.99,-1250.46 41.73,-76.66 83.45,-153.31 125.18,-229.96 -178.67,590.47 -132.69,1152.05 78.59,1726.69 326.81,889.08 1244.85,1043.6 1748.12,1780.24 298.4,436.78 537.58,1068.71 566.23,1596.92 -10.74,87.86 -21.49,175.72 -32.23,263.58 -101.07,-1189.78 -1141.26,-2082.38 -1972.18,-2838.06 -36.26,-20.44 -72.52,-40.86 -108.78,-61.3 620.44,689.89 1408.8,1337.03 1614.5,2282.38 -20.76,-15.23 -41.52,-30.45 -62.28,-45.67 8.6,106.53 75.27,213.29 87.6,316.89 21.42,180.15 59.27,522.1 56.42,695.38 -0.49,29.77 -6.96,175.17 -50.03,174.81 -62.96,-959.69 -527.09,-1742.81 -1226.12,-2376.05 -663.84,-601.39 -1456.39,-1178.76 -1569.1,-2174.05zm2142.76 -771.22c22.54,-199.19 0,-469.49 0,-678.67 0,-17.72 -82.42,-132.8 -0.37,-138.66 56.83,255.5 147.2,482.82 120.4,751.86 -11.06,111.19 -189.6,594.12 -261.84,695.79 -8.8,12.41 -62.17,88.33 -75.87,48.08 69.04,-202.81 193.93,-468.68 217.68,-678.4zm8571.56 2853.28c-34.64,-113.27 -115.33,-115.84 -87.85,-254.42 46.22,-232.81 362.71,-566.88 452.92,-816.61 175.96,-487.31 91.85,-928.36 -163.27,-1366.35 -240.5,-412.93 -719.74,-715.95 -667.9,-1233.39 141.13,116.44 248.82,384.6 370.74,502.49 35.08,33.99 92.94,29.33 127.1,66.17 527.21,568.37 752.2,1183.62 557.99,1960.94 33.01,-33.96 66.01,-67.94 99.02,-101.9 49.59,-140.79 99.2,-281.57 148.79,-422.36 30.38,691.93 -686.49,1134.13 -652.09,1850.76 -171.48,-77.11 -60.85,-321.37 -13.99,-461.48 61.24,-183.12 173.79,-342.26 231.34,-525.67 -189.31,205.94 -281.13,514.3 -341.65,783.79 -20.38,6.01 -40.76,12.02 -61.15,18.03zm-9410.32 -1573.05c-399.95,-519.65 -377.32,-1245 -155.63,-1836.19 39.1,-104.23 99.49,-253.78 186.65,-323.23 -268.47,694.78 -317.57,1459.78 -31.02,2159.42zm10123.98 0c0,-159.39 0,-318.77 0,-478.15 0,-73.35 -102.67,-363.8 -140.28,-446.8 -257.22,-567.56 -847.11,-882.16 -1071.1,-1465.56 155.04,154.48 310.09,308.94 465.13,463.42 410.27,505.03 855.47,1065.93 809.71,1758.83 -2.94,44.39 -3.15,162.07 -63.46,168.26zm-14439.99 -925.35c-138.16,-651.96 225.54,-1336.62 869.13,-1542.45 -104.6,411.97 -85.51,784.25 -5.06,1197.37 -269.96,168.71 -543.61,297.32 -864.07,345.08zm6894.12 3393.15c-38.09,-452.9 -235.96,-902.01 -529.14,-1248.35 -535.12,-632.08 -1435.52,-852.51 -1774.79,-1661.21 -194.13,-462.74 -249.99,-983.15 -134.46,-1471.19 49.74,-210.08 164.6,-412.85 233.62,-616.46 58.28,-6.75 23.96,62.34 16.76,93.71 -128.91,561.99 -202.88,863.61 -64.05,1448.86 361.73,1525.05 2156.79,1512.35 2282.4,3223.75 3.65,49.53 26.72,209.84 -30.34,230.89zm-5807.32 -4041.26c-24.75,-362.27 44.89,-721.97 200.84,-1049.58 202.05,-51.12 404.09,-102.24 606.13,-153.37 52.16,288.53 -191.76,386.86 -340.39,571.6 -144.38,179.47 -262.81,378.7 -389.86,570.14 -23.75,35.83 7.66,79.66 -76.72,61.21zm14289.91 87.73c-9.04,-14.33 -33.35,-266.88 -51.35,-334.67 -69.2,-260.54 -182.79,-444.06 -313.35,-675.91 -97.41,-134.49 -194.82,-269 -292.22,-403.49 489.24,343.68 768.36,913.3 869.65,1495.73 -29.57,21.77 -206.7,-72.06 -212.73,-81.66zm-14817.92 -1136.71c98.69,-101.7 257.13,-186.74 383.23,-251.36 35.84,-18.37 109.51,-82.84 144.5,-41.59 -51.64,36.17 -103.27,72.34 -154.9,108.5 20.49,14.87 40.98,29.75 61.47,44.62 -49.55,215.59 -409.19,274.39 -587.48,404.45 -755.42,551.12 -621.76,1792.09 -140.61,2479.97 69.32,99.14 226.43,210.24 321.48,298.21 47.66,44.15 31.06,29 -12.02,72.5 -670.91,-401.96 -1047.03,-1131.73 -870.78,-1912.99 51.27,-227.24 288.35,-779.31 480.48,-910.9 59.27,-40.6 121.67,-39.15 154.7,-62.26 87.04,-60.92 164.75,-148.89 266.78,-197.85 -15.62,-10.43 -31.24,-20.87 -46.85,-31.3zm4782.14 -339.06c-5.05,82.01 -10.12,164.02 -15.18,246.03 -56.63,-46.03 -113.27,-92.06 -169.9,-138.09 52.68,-56.68 95.88,-123.28 185.08,-107.94zm-5745.06 1604.03c-88.13,81.02 -152.06,-315.85 -154.55,-355.13 -23.71,-374.76 269.15,-800.02 579.49,-996.64 268.3,-170 571.33,-226.71 879.22,-283.11 17.68,82.71 -21.78,53.14 -61.12,76.61 -632.09,376.73 -1136.15,776.24 -1243.04,1558.27zm13694.82 2961.62c-101.59,-140.63 -203.2,-281.25 -304.79,-421.88 -571.78,-1023.16 -96.88,-2075.64 -36.8,-3141.49 14.18,-251.66 -21.3,-498.04 -27.93,-743.27 -2.66,-98.82 51.51,-201.85 -2.54,-320.54 45.49,-7.28 41.19,53.62 52.28,86.08 172.75,505.67 178.9,945.03 133.57,1471.47 -51.8,601.47 -219.6,1204.68 -116.24,1812.49 206.13,1212.31 1359.97,2256.39 2476.32,2676.58 6.34,58.05 -63.02,25.6 -93.48,15.72 -997.43,-323.16 -2327.76,-1078.83 -2758.89,-2071.95 -445.6,-1026.4 1.53,-2068.76 159.17,-3103.41 17.82,-28.32 35.66,-56.63 53.49,-84.95 -47.34,214.98 13.26,409.27 -0.08,631.89 -20.06,334.23 -122.88,707.99 -154.6,1049.54 -71.12,766.48 2.29,1607.79 620.52,2143.72zm-11831.42 -4473.38c126.9,-200.84 446.19,-145.49 620.83,-308.21 -47.26,81.49 -94.5,162.97 -141.76,244.46 -154.5,52.28 -308.99,104.55 -463.48,156.82 15.46,-30.84 30.91,-61.7 46.37,-92.54 -20.65,-0.17 -41.31,-0.36 -61.96,-0.53zm15496.43 216.07c-41.41,-174.76 -82.81,-349.52 -124.22,-524.28 121.64,66.76 152.82,287 156.24,415.46 0.92,34.74 19.98,116.84 -32.02,108.82zm-14564.73 462.57c544.85,-423.37 1182.52,-716.55 1801.11,-1017.42 -245.6,178.88 -521.94,318.33 -786.19,468 -159.01,90.06 -176.73,132.44 -311.23,215.1 -207.98,127.81 -478.63,233.9 -703.69,334.32zm-3198.27 524.55c-67.67,-317.73 -58.07,-593.72 142.13,-860.84 458.74,-612.04 1291.34,-724.18 2000.11,-835.49 9.41,132.43 -197.43,116.68 -130.68,227.03 -7.62,12.06 -15.25,24.12 -22.87,36.19 -654.95,2.58 -1410.8,269.92 -1715.08,887.95 -153.5,311.66 -146.95,605.37 5.23,915.51 -56.1,-24.06 -234.48,-262.39 -243.19,-299.21 -4.15,-17.64 22.7,-319.62 29.33,-360.84 53.24,-332.02 250.66,-586 493.5,-805.4 -64.99,-31.69 -195.58,124.76 -247.37,186.14 -139.32,165.13 -232.46,349.38 -272.38,562.35 -12.9,115.54 -25.82,231.08 -38.73,346.61zm2825.88 -1048.7c41.75,-263.78 237.09,-538.5 434.15,-709.49 -93.67,211.37 -122.44,449.36 -294.83,616.86 -15.35,-20.46 -30.7,-40.92 -46.05,-61.38 -31.09,51.34 -62.18,102.67 -93.27,154.01zm12856.04 894.9c-15.34,-0.17 -30.67,-0.36 -46.02,-0.53 -146.02,-105.32 -160.81,-293.15 -237.8,-442.61 -225.23,-437.42 -496.31,-688.35 -803.08,-1053.15 -29.17,-34.67 -75.3,-50.22 -61.68,-108.1 274.27,277.58 548.54,555.17 822.81,832.76 50.43,-30.72 -10.25,-68.24 -30.98,-92.66 -174.33,-205.5 -375.04,-390.4 -543.53,-601.44 -4.9,-22.89 32.59,-21.12 46.02,-15.02 38.12,17.23 262.03,202.57 311.74,245.75 427.15,370.87 877.57,896.38 914.99,1481.54 -31.07,-51.36 -62.13,-102.71 -93.19,-154.08 -15.32,20.49 -30.65,40.97 -45.97,61.45 -92.83,-91.89 -216.68,-89 -202.5,-246.54 -10.27,30.88 -20.53,61.75 -30.81,92.63zm1211.25 -262.47c16.64,139.71 -12.05,304.28 0,447.32 -119.69,-297.57 -239.38,-595.13 -359.08,-892.7 -347.06,-330.38 -647,-786.52 -1069.81,-989.36 9.51,-19.45 19.02,-38.89 28.53,-58.34 -50.78,-31.79 -101.56,-63.56 -152.33,-95.35 713.94,179.22 1462.76,833.49 1552.69,1588.43zm-1646.2 -46.3c-149.24,-58.81 -239.54,-292.34 -326.7,-371.27 -33.03,-29.89 -73.53,3.45 -123.28,-26.68 -54.68,-33.1 -197.5,-219.88 -245.72,-283.38 -212.93,-280.21 -383.08,-618.03 -483.74,-953.62 149.97,100.9 191.96,360.74 289.57,483.17 39.38,49.41 161.94,123.12 222.98,195.02 246.64,290.81 534.24,597.37 666.89,956.76zm-12681.88 -1091.53c231.14,-225.74 400.95,-369.98 685.7,-537.53 77.23,-45.46 173.51,-101.06 257.97,-129.01 -319.46,259.73 -581.14,707.68 -1024.76,739.77 4.38,-40.65 54.85,-47.6 81.09,-73.23zm1595.86 -482.05c25.56,-76.28 455.73,-437.19 496.83,-400.43 -26.18,30.46 -52.34,60.91 -78.52,91.37 -139.43,103.02 -278.88,206.03 -418.31,309.06zm14558.74 4296.11c-6.5,-5.82 -43.19,19.93 -70.33,-6.5 -60.95,-59.29 -132.83,-214.54 -204.4,-293.43 -920.73,-1015.24 -2474.65,-1253.8 -3493.5,-2144.12 -670.11,-585.52 -972.69,-1447.01 -1194.47,-2283.62 53.41,8.47 54.25,61.18 70.33,99.49 78.76,187.35 115.57,400.68 203.44,599.95 970.81,2201.36 4105.39,2299.61 4833.8,4175.25 210.47,542.03 202.4,1198.04 -169.94,1665.27 116.37,-255.82 233.46,-497.52 249.3,-785.36 10.25,-186.94 -94.19,-910.64 -224.23,-1026.93zm-14590.09 -4635.44c25.16,14.17 399.95,-240.94 497,-200.37 -243.08,159.23 -520.14,339.51 -713.18,556.33 -141.93,159.47 -245.04,431.16 -438.25,523.23 -32.63,15.58 -76.03,-14.38 -85.59,-8.72 -16.31,9.64 -40.26,115.76 -97.89,116.97 74.59,-345.32 460.47,-970.54 823.41,-1048.27 89.49,-19.15 4.34,55.12 14.5,60.83zm10124.1 -215.51c58.28,-8.63 91.06,1.29 140.93,29.4 327.46,184.57 1129.41,885.82 1396.55,1173.15 38.01,40.89 421.37,551.38 449.57,524.79 5.22,-20.51 10.42,-41.03 15.64,-61.53 336.06,399.87 499.16,907.18 574.66,1418.65 -77.68,21.12 -71.08,-61.67 -99.57,-82.92 -9.97,-7.47 -57.26,20.37 -72.22,-6.15 -30.01,-53.25 -10.73,-128.97 -14.86,-188.1 -82.54,14.07 33.75,186.3 -92.66,153.92 -0.16,-102.72 -0.32,-205.44 -0.48,-308.16 -10.36,92.49 -20.71,184.99 -31.06,277.48 -49.11,66.43 -98.82,-368.74 -107.54,-401.88 -360.58,-1375.11 -1242.92,-1414.91 -2003,-2298.25 -23.35,-27.11 -178.66,-210.92 -155.96,-230.4zm3229.5 863.33c-173.72,-71.54 -334.3,-177.54 -507,-251.86 -433.06,-186.29 -880.96,-286.27 -1291.67,-536.96 -36.45,-22.25 -299.73,-175.86 -250.63,-228.87 581.94,533.35 1518.83,412.39 2049.3,1017.69zm-10434.25 -493.3c41.76,-30.61 79.49,-67 123.93,-92.51 41.03,66.35 -38.93,605.65 -154.42,524.19 -30.27,-86.48 -74.35,-130.78 -65.83,-232.01 4.55,-53.99 54.81,-45.75 63.13,-69.65 14.88,-42.78 20.01,-87.29 33.19,-130.02 -28.8,21.13 -180.38,161.64 -153.58,48.28 98.21,-172.48 99.98,-377.87 152.1,-558.78 12.1,-41.97 3.58,-95.71 63.29,-106.44 13.67,227.75 4.82,400.87 -61.81,616.94zm7577.26 -740.06c232.02,83.27 320.31,362.75 341.28,585.81 -106.45,-108.61 -101.46,-271.54 -191.19,-411.28 -42.56,-66.23 -113.32,-105.44 -150.09,-174.53zm-10340.85 1048.95c747.61,-284.99 1468.68,-567.7 2017.98,-1172.62 13.59,57.8 -32.34,73.43 -61.71,108.01 -493.14,581.43 -1152.51,848.39 -1862.72,1080.43 -30.34,9.88 -99.9,42.14 -93.55,-15.82zm9968.23 -1172.34c285.74,53.06 439.77,329.13 527.89,585.52 -284.51,-72.57 -365.71,-380.78 -527.89,-585.52zm-8819.41 431.29c217.36,-154.05 434.72,-308.1 652.09,-462.15 -59.27,107.14 -143.93,194.5 -232.1,278.13 -248.66,235.9 -735.56,501.29 -1051.4,652.25 -52.84,25.22 -116.98,55.15 -176.01,56.19 229.61,-216.02 531.8,-468.07 796.8,-642.6 68.4,-45.03 180.3,-98.3 258.99,-128.02 -82.79,82.06 -165.59,164.14 -248.37,246.2zm-2763.56 401.31c-7.68,-433.13 351.8,-824.37 775.91,-894.46 29.04,82.18 -48.43,53.87 -55.7,65.31 -9.16,14.43 23.46,50.85 21.06,74.48 -10.25,100.78 -138.8,137.17 -195.22,202.28 -72.74,83.87 -124.93,205.14 -208.12,286.88 -104.03,102.19 -245.03,146.33 -337.93,265.51zm-2670.66 1388.2c-61.04,-861.56 541.96,-1538.19 1318.95,-1820.64 366.44,-133.21 735,-158.83 1102.84,-261.78 214.91,-60.18 411.37,-159.75 621.05,-231.09 52.88,48.73 -185.89,203.29 -206.31,226.62 -108.37,123.85 -213.98,281.3 -251.35,444.22 -25.43,110.95 3.58,296.08 -12.42,355.41 -5.99,22.22 -230.01,253.09 -258.65,270.13 -193.37,115.24 -847.53,177.18 -1116.43,248.32 -510.62,135.04 -879.82,344.32 -1197.68,768.81zm4068.04 -2220.72c174.04,-50.21 342.74,-149.59 527.54,-154.33 -144.36,57.06 -288.71,114.1 -433.06,171.16 -31.5,-5.61 -62.98,-11.22 -94.48,-16.83zm-931.86 1973.64c761.73,-724.06 1999.67,-767.04 2780.08,-1418.04 244.87,-204.26 436.59,-465.07 635.59,-710.21 -309.74,707.32 -1039.8,1192.74 -1686.8,1578.6 -484.33,288.84 -1041.33,506.88 -1508.74,814.93 -420.68,277.2 -782.18,646.57 -1136.39,999.69 -46.1,-23.9 6.82,-74.27 22.09,-101.42 158.65,-282.26 458.98,-509.89 676.62,-746.93 4.9,-22.89 -32.59,-21.12 -46.02,-15.01 -63.73,28.84 -326.44,286.95 -387.72,355.32 -213.7,238.35 -360.61,526.12 -544.46,785.68 -4.46,-97.33 77.28,-223.45 123.7,-309.01 336.73,-620.71 712.89,-938.28 1330.63,-1269.46 501.54,-268.85 1051.74,-476.4 1573.36,-704.59 -31.35,-5.43 -62.68,-10.87 -94.03,-16.3 -579.31,252.24 -1158.6,504.51 -1737.91,756.75zm11148.47 -1727.53c-38.02,34.62 -231.86,-210.96 -261.03,-249.4 -32.92,-43.46 -83.59,-94.6 -80.25,-151.32 147.43,99.34 241.22,258.41 341.28,400.72zm-12825.41 -246.51c243.25,0 486.51,0 729.77,0 74.1,0 390.35,-80.82 481.49,-107.81 101.5,-30.05 179.7,-87.57 279.31,-107.82 -62.77,77.16 -209.72,146.94 -301.86,177.99 -75.55,25.47 -365.59,99.33 -427.87,99.33 -196.68,0 -393.36,0 -590.03,0 -27.49,0 -112.59,-57.43 -170.66,-31.13 -0.05,-10.19 -0.1,-20.37 -0.15,-30.56zm1645.88 -92.83c93.05,-92.44 186.11,-184.88 279.16,-277.32 10.5,61.64 20.99,123.29 31.5,184.93 -103.56,30.8 -207.11,61.59 -310.66,92.39zm3012.06 -308.49c38.29,28.68 159.4,-130.55 186.29,-30.97 -1342.82,1011.82 -3287.47,809.54 -4205.15,2378.26 -151.13,258.31 -300.74,669.4 -300.37,969.29 0.16,133.27 53.68,255.47 33.86,401.71 -5.7,42.22 -17.87,92.39 -61.71,45.64 -225.31,-673.94 52.19,-1312.37 440.21,-1860.69 835.74,-1181.1 1897.76,-1313.45 3177.85,-1748.16 119.5,-40.56 315.89,-159.94 410.03,-178.78 108.91,-21.85 224.23,12.98 334.33,-38.12 -5.11,20.61 -10.23,41.22 -15.34,61.82zm-2266.77 493.58c208.84,-318.44 485.54,-555.48 883.92,-586.93 245.12,-19.36 485.63,53.66 730.74,32.26 -73.9,97.49 -238.05,71.17 -341.27,61.69 30.93,20.36 61.88,40.7 92.82,61.06 -322.64,112.99 -727.2,85.96 -1033.33,223.04 -127.02,56.84 -204.21,168.16 -332.88,208.88zm11179.53 1233.96c-251.47,-85.8 -540.35,-244.02 -755.58,-405.93 -507.92,-382.28 -712.82,-882.5 -765.78,-1506.38 52.6,8.6 55.49,60.21 70.64,99.17 60.72,155.81 98.13,323.71 172.02,476.96 134.42,278.6 417.2,660.43 642.98,872.84 191.48,180.12 425.59,308.82 635.72,463.34zm-12840.93 -1387.92c-163.78,15.26 -346.31,-11.09 -512.38,0 320.44,-57 640.87,-114 961.31,-171 257.47,-68.12 435.07,-242.49 622.13,-415.13 -134.05,372.96 -711.77,552.71 -1071.06,586.13zm12499.32 -0.28c-343.09,-139.62 -825.97,-180.71 -962.36,-585.81 225.27,364.12 658.3,348.57 962.36,585.81zm-558.95 -708.93c291.09,132.88 644.3,178.15 885.85,399.92 321.1,294.83 348.35,782.86 122.96,1141.93 -69.92,12.93 -43.16,-30.33 -46.21,-76.33 -18.93,-283.13 34.04,-427.22 -110.43,-692.81 -112.84,-207.39 -340.23,-440.63 -572.78,-495.99 10.44,-20.28 20.9,-40.57 31.35,-60.85 -124.17,28.56 -227.28,-129.98 -310.74,-215.87zm-11800.93 7434.31c-779.92,-643.8 -940.78,-1674.51 -533,-2581.26 856.92,-1905.49 3696.79,-1683.6 4761.94,-3722.15 181.87,-348.1 251.03,-732.35 389.66,-1093.7 14.99,-39.08 18.29,-90.58 70.61,-99.21 -56.58,431.92 -146,870.79 -371.91,1250.02 -5.71,91.74 35.29,23.22 56.94,-5.31 139.88,-183.88 221.97,-439.15 284.59,-658.34 55.65,-7 29.97,69.17 26.83,103.67 -188.22,2064.91 -2431.39,2379.34 -3838.43,3313.33 -70.48,46.75 -231.98,204.29 -272.8,222.73 -13.47,6.06 -50.95,7.84 -46.05,-15.06 820.35,-846.51 2080.39,-1016.57 2980.91,-1758.68 -28.82,-49.4 -69.69,11.57 -96.12,27.92 -184.41,114.12 -364.23,239.6 -555.22,343.08 -593.16,321.34 -1258.84,533.07 -1818.2,908.51 -1001.09,671.97 -1485.63,1511.8 -1444.49,2732.26 2.42,71.02 6.36,351.23 14.23,384.25 13.43,56.11 140.89,286.07 179.58,348.77 67.87,109.95 168.61,184.54 210.93,299.17zm1242.8 -7095.45c10.77,-430.44 398.31,-733.22 776.03,-863.28 -150.19,123.19 -300.38,246.38 -450.58,369.58 -108.48,164.56 -216.97,329.14 -325.45,493.7zm10806.55 -432c-248.06,-83.44 -532.04,-233.42 -620.77,-493.3 188.03,191.67 402.41,338.81 620.77,493.3zm217.55 -523.99c58.23,-59.05 428.36,411.15 372.18,524.26 -68.52,-39.56 -408.79,-487.15 -372.18,-524.26zm-1086.81 308.53c19.24,-93.75 -19.57,-181.36 -27.61,-266.32 -3.26,-34.34 -28.49,-110.9 26.96,-103.83 76.67,368.1 314.6,641.84 611.2,858.31 162.02,118.25 347.19,192.93 504.22,301.21 26.85,18.52 197.71,129.3 157.89,166.74 -234.11,-182.84 -558.76,-182.76 -805.16,-356.68 -133.74,-94.41 -202.13,-267.04 -343.29,-322.39 20.54,-25.44 41.09,-50.89 61.64,-76.32 -72.06,-63.03 -127.66,-131.23 -124.29,-232.02 -20.52,10.43 -41.04,20.87 -61.56,31.3zm-9533.61 400.83c111.72,-315.08 594.85,-643.17 919.13,-677.11 410.72,-42.98 689.8,-93.55 1099.03,-202.17 220.04,-58.36 418.28,-169.55 652.14,-169.34 -735.16,670.24 -1970.77,337.53 -2670.3,1048.62zm10340.78 -1048.54c93.26,40.94 186.53,81.89 279.8,122.83 4.86,-20.32 9.73,-40.65 14.59,-60.97 359.11,179.87 667.13,650.59 497.31,1048.22 -67.59,-179.12 -88.89,-384.89 -188.42,-552.83 -137.67,-232.34 -461.15,-313.11 -603.28,-557.25zm465.81 0c294.71,72.9 499.73,379.07 465.49,678.19 -53.48,-116.38 -106.97,-232.75 -160.45,-349.13 -101.68,-109.69 -203.36,-219.38 -305.04,-329.06zm-10806.86 462.13c288.99,-274.78 727.68,-486.83 1122.81,-565.56 63.45,-12.65 236.36,-59.33 274.46,10.24 -165.53,41.13 -331.07,82.27 -496.6,123.39 210.33,16.96 441.35,-112.87 637.61,-123.72 146.79,-8.07 296.22,56.73 449.01,31.82 7.31,44.34 -54.74,43.06 -86.72,51.89 -433.35,119.59 -907.59,100.7 -1348.37,234.15 -194.61,58.88 -365.92,162.4 -552.2,237.79zm341.72 -555.32c133.61,10.6 258.82,-49.16 388.7,-60.81 33.43,-2.97 144.5,-24.66 138.84,29.88 -409.96,121.35 -917.81,285.39 -1153.92,658.55 -80.99,191.88 -161.97,383.77 -242.96,575.65 -148.63,-604.69 304.92,-1291.92 962.21,-1264.33 -30.96,20.36 -61.91,40.7 -92.87,61.06zm2774.53 103.67c76.19,-72.74 185.33,-136.05 253.27,-226.58 5,15.2 9.99,30.39 14.99,45.59 -233.75,332.78 -556.3,667.99 -941.26,823.52 -317.33,128.17 -707.6,153.08 -1045.66,149.06 232.63,30.77 465.28,61.55 697.91,92.31 212.41,-61.62 424.82,-123.23 637.24,-184.85 -8.08,53.69 -63.13,52.42 -99.98,70.04 -231.54,110.83 -511.46,176.94 -769.36,176.74 36.2,10.32 72.41,20.62 108.61,30.94 386.61,-23.79 783.83,-118.06 1072.47,-384.81 56.38,-52.14 78.88,-139.71 153.78,-170.87 -77.88,199.11 -293.87,392.23 -475.81,498.8 -821.8,481.28 -1504.24,11.81 -2250.5,201.43 -360.45,91.6 -526.6,251.22 -702.93,566.54 -52.8,94.39 -55.97,214.09 -141.37,275.67 126.38,-701.34 509.62,-1090.43 1204.47,-1255.65 696.22,-165.53 1263.87,-92.55 1910.25,-508.61 69.85,-44.98 214.27,-191.56 254.73,-209.83 13.47,-6.07 50.95,-7.84 46.06,15.02 -57.19,77.76 -185.01,156.45 -233.27,231.04 -28.62,44.23 -28.09,73.27 31.22,61.99 87.08,-89.5 188.02,-214.3 275.14,-297.49zm7380.06 451.65c-170.49,-113.33 -341,-226.66 -511.49,-339.98 -204.22,-172.72 -209.32,-207.31 -312.67,-429.76 -25.32,-54.54 -120.8,-76.56 -107.17,-155.45 472.56,99.9 697.84,551.11 931.33,925.19zm-465.64 -924.87c422.89,63.34 991.49,113.4 1148.54,585.81 -228.49,-221.93 -488.08,-249.85 -783.75,-316.27 -121.59,-89.85 -243.19,-179.69 -364.79,-269.54zm-838.63 -215.94c63.85,-14.14 71.12,32.38 100.34,69.69 147.82,188.84 228.76,430.96 395.8,624.81 381.27,442.37 1071.7,568.98 1304.69,1125.26 -253.19,-148.02 -516.64,-297.28 -754.77,-468.43 -279.28,-200.8 -486.87,-389.55 -674.2,-665.06 -38.7,-56.92 -399.83,-659 -371.86,-686.27zm-9626.51 616.66c190.95,-433.77 699.96,-713.38 1164.57,-739.73 975.3,-55.31 1856.77,686.38 2810.04,277.28 -63.44,87.92 -208.5,137.85 -310.37,169.55 -1073.51,334.11 -1741.97,-50.82 -2716.98,15.67 -452.32,30.8 -791.03,208.26 -1040.45,585.72 191.6,-541.5 762.7,-903.61 1334.91,-894.94 -36.09,-10.19 -72.17,-20.38 -108.26,-30.57 -498.64,-16.23 -836.7,255.19 -1133.46,617.02zm2918.95 -524.11c414.49,76.2 834.69,-9.64 1200.73,-211.01 169.03,-114.77 338.06,-229.54 507.08,-344.31 -417.8,463.65 -975.3,747.52 -1615.23,601.36 -34.4,-7.84 -100.37,-0.08 -92.58,-46.04zm6459.3 -616.98c268.59,83.51 539.19,137.45 821.48,155.2 244.32,15.35 505.22,-40.16 739.49,36.6 280.85,92.02 425.96,328.85 457.26,609.75 -46.75,-20.55 -93.49,-41.1 -140.24,-61.65 -9.92,20.7 -19.86,41.4 -29.78,62.1 -207.87,-124.33 -431.13,-278.21 -684.17,-280.42 -105.8,-0.88 -194.92,37.67 -308.89,33.78 -338.75,-11.52 -712.38,-192.61 -917.44,-462.85 160.88,92.23 321.77,184.45 482.65,276.67 83.82,-0.23 72.74,-0.68 6.27,-37.23 -103.15,-56.72 -227.48,-115.68 -302.58,-208.59 333.4,119.89 686.42,163.76 1039.18,186.01 33.56,2.13 146.48,21.37 140.74,-31.73 -384.04,-27.56 -794.72,-54.35 -1156.58,-193.17 -41.11,-15.74 -140.32,-38.15 -147.39,-84.47zm-7484.11 308.48c399.84,27.52 781.9,129.72 1186.87,83.68 586.36,-66.6 1014.48,-644.01 1638.86,-608.18 -652.79,694.66 -1535.43,898.84 -2453.54,632.48 -124.07,-35.99 -248.12,-71.98 -372.19,-107.98zm-1273.22 -586.28c22.63,-27.68 224.66,153.96 277.83,170.79 110.27,34.83 232.02,12.54 342.97,29.4 -70.28,75.84 -639.52,430.65 -682.89,385.62 20.7,-195.28 41.4,-390.54 62.09,-585.81zm8415.57 -184.97c116,-13.82 230.41,37.95 330.34,51.53 37.38,5.06 86.69,-22 141.74,-14.58 277.27,37.48 370.65,258.16 583.14,379.23 -152.58,127.04 -378.12,-39.05 -526.72,-93.6 -88.33,-32.41 -239.3,-60.81 -324.41,-110.42 -35.61,-20.72 -163.1,-172.11 -204.09,-212.16zm-5061.83 277.04c409.11,-347.42 1006.97,-185.43 1490.41,-369.59 -103.39,46.25 -206.79,92.49 -310.18,138.74 -399.34,81.78 -805.84,44.74 -1180.23,230.85zm7080.5 31c-5.87,-184.73 0.84,-420.8 185.8,-524.18 87.56,64.23 -23.83,527.6 -185.8,524.18zm-10620.42 308.69c-86.35,-251.32 -10.81,-463.89 6.76,-717.95 28.6,-79.42 57.19,-158.83 85.79,-238.25 -29.25,148.31 49.14,298.33 44.72,436.39 -3.85,120.26 -55.65,334.92 -76.22,473.22 -6.23,41.73 -13.95,96.28 -61.05,46.59zm2623.81 123.36c-164.51,23.17 -373.27,-16.91 -543.49,0 0.05,-10.18 0.11,-20.35 0.17,-30.53 82.71,-0.21 165.42,-0.43 248.13,-0.64 0.06,-10.18 0.1,-20.35 0.16,-30.53 -144.91,0 -289.83,0 -434.75,0 102.67,-47.11 205.34,-94.2 308.01,-141.3 296.76,-208.44 536.61,-452.71 896.38,-559.46 338.99,-100.59 624.3,-67.57 969.23,-39.93 -186.23,-30.66 -372.44,-61.3 -558.67,-91.95 569.28,-61.7 1138.57,-123.39 1707.85,-185.09 -108.86,113.15 -316.85,199.87 -464.81,232.21 -290.24,63.39 -587.21,36.39 -881.87,80.17 -149.88,22.26 -401.77,51.9 -485.5,180.59 62.06,-15.37 124.11,-30.74 186.17,-46.11 -303.83,187.19 -567.44,579.1 -947.01,632.57zm-2180.62 -1165.95c252.81,33.73 465.49,521.86 250.11,698.12 -439.41,149.81 -774.78,-768.17 -250.11,-698.12zm332.88 1042.23c349.92,-333.71 909.16,-237.43 1325.91,-456.35 151.25,-79.45 302.63,-249.59 458.86,-346.24 406.86,-251.66 769.64,-277.84 1239.15,-211.25 83.9,11.89 202.8,18.44 267.66,73.43 -209.48,17.96 -418.44,20.85 -627.31,55.19 -665.44,109.42 -699.03,261.26 -1194.94,602.2 -427.8,294.11 -551.76,244.7 -1051.73,253.9 -146.35,2.69 -260.07,-30.49 -417.6,29.12zm9812.97 -246.63c-77.32,81.26 -202.29,-283.26 -209.68,-331.11 -35.04,-226.22 53.24,-500.57 316.89,-502.57 45.33,46.74 90.68,93.48 136.01,140.22 -227.31,158.99 -317.84,425.82 -243.22,693.46zm-2421.92 -770.74c670.59,112.79 1093.2,-364.64 1718.02,97.53 233.54,172.72 394.32,454.1 455.35,735 -383.38,-43.51 -392.46,-474.75 -775.18,-602.45 -29.57,-9.83 -129.79,-44.66 -124.89,15.99 78.05,40.78 156.1,81.57 234.15,122.36 133.99,165.09 267.97,330.21 401.96,495.3 -290.6,-53.5 -377.4,-340.07 -605.12,-478.6 51.63,-4.97 103.27,-9.94 154.9,-14.91 -363.63,-169.1 -745.73,-26.95 -1117.55,-154.96 139.25,-20.87 278.5,-41.75 417.75,-62.63 237.77,-10.39 408.11,-1.4 636.31,49.38 31.66,7.02 101.31,41.01 94.52,-16.88 -479.48,-183.36 -903.94,23.22 -1403.79,-132.99 -32.51,-10.17 -93.79,-8.04 -86.43,-52.14zm-6521.55 246.15c-20.97,-19.52 306.89,-414.65 372.35,-431.56 -77.42,113.21 -154.85,226.44 -232.27,339.65 -46.69,30.64 -93.39,61.27 -140.08,91.91zm8851.08 -493.02c20.56,5.11 41.13,10.23 61.69,15.35 21.1,155.36 -238.26,209.18 -246.53,397.37 -21.21,6.23 -42.41,12.45 -63.62,18.68 -41.58,-71.79 -83.18,-143.59 -124.77,-215.38 146.28,-17.83 337.35,-48.88 373.23,-216.02zm-9441.09 -92.5c209.2,79.09 393.03,92.78 589.69,-31.13 -119.07,154.15 -238.12,308.32 -357.19,462.48 -37.63,-96.08 -75.28,-192.16 -112.91,-288.24 -39.87,-47.71 -79.73,-95.4 -119.59,-143.11zm-807.25 246.34c274.69,-671.56 1137.63,-155.93 850.56,459.64 -22.9,49.09 -214.41,294.95 -260.59,249.85 113.88,-371.47 -179.42,-793.44 -589.97,-709.49zm7204.58 -369.7c272.25,21.93 519.62,160.15 792.22,184.28 551.53,48.77 1118.8,-171.27 1609.21,159.8 41.14,27.79 273.41,233.57 237.72,272.57 -196.22,-133.19 -391.67,-304.31 -638.96,-336.72 -557.71,-73.15 -1198.16,373.4 -1668.63,-115.76 -110.53,-54.73 -221.04,-109.45 -331.56,-164.17zm-2437.9 215.62c139.96,14.74 319.57,0 465.81,0 42.91,0 140.07,-76.08 201.8,-61.42 -134.41,116.89 -441.67,224.09 -619.08,263.87 -700.8,157.09 -1265.9,-233.82 -1958.24,-110.22 14.88,-40.09 139.89,-73.15 179.91,-83.11 284.87,-70.9 498.2,9.15 782.46,21.41 -109.9,-29.51 -219.81,-59 -329.7,-88.5 -280.81,-24.82 -583.72,-2.81 -827.75,149.55 -29.86,18.64 -209.6,237.51 -270.89,185.74 227.01,-402.57 564.1,-640.4 1041.85,-617.95 456.05,21.45 895.78,294.44 1333.83,340.63zm5636.45 -431.68c51.68,-0.02 103.35,-0.04 155.03,-0.05 -20.78,82.13 -41.58,164.27 -62.37,246.4 -46.57,-5.34 -102.82,-237.64 -92.66,-246.35zm-11179.64 925.26c-16.16,-20.04 -63.02,-38.68 -92.27,-77.17 -211.73,-278.24 -406.21,-580.34 -528.54,-909.99 177.54,149.3 325.41,322.82 517.89,456.98 100.06,69.73 567.8,285.56 585.24,313.68 61.24,98.73 -119.59,507.88 -110.02,648.34 -18.85,19 -312.83,-318.24 -342.97,-354.39 -24.39,-29.21 -22.86,-69.41 -29.33,-77.45 50.39,75.88 199.06,78.69 271.83,23.37 71.09,-112.74 36.69,-150.78 -23.43,-239.31 69.28,112.11 -58.42,344.56 -200.55,183.28 -148.67,-168.71 136.55,-286.92 200.55,-183.28 -12.49,-18.43 18.09,-78.74 -81.52,-83.11 -50.26,17.6 -100.52,35.22 -150.78,52.82 -55.16,55.95 -56.81,184.97 -16.1,246.23zm7143.46 -986.68c482.89,261.49 957.98,468.8 1365.77,847.49 263.28,244.51 1145.72,1271.49 1241.35,1574.27 4.98,15.79 8.48,50.32 -14.94,45.51 -230.34,-249.6 -607.78,-276.31 -929.94,-244.94 -11.53,1.12 -215.83,45.62 -226.56,50.01 -146.3,59.68 -248.69,404.6 -61.31,404.16 150.13,-0.35 465.92,-129.1 662.58,-143.24 287.61,-20.72 454.92,29.68 631.82,259 123.97,160.72 114.68,350.96 90.49,550.83 -54.37,449.07 -318.26,148.45 -510.13,112.83 -179.75,-33.42 -501.61,2.13 -675.41,66.84 -135.78,50.53 -183.88,194.25 -296.43,34.58 -168.38,-238.83 -187.3,-510.73 -98.53,-781.26 -52.08,18.23 -84.96,157.18 -90.22,202.93 -59.04,511.85 278.12,763.35 538.22,1126.02 168.29,234.66 98.28,207.09 114.32,310.48 8.84,57.08 60.15,179.21 28.33,272.88 54.41,-19.28 36.13,-186.54 31.82,-232.34 -7.1,-76.19 -20.28,-158.7 -48.05,-229.83 -44.01,-112.75 -407.11,-466.4 -356.79,-524.51 107.89,-2.7 192.87,-75.56 297.76,-90.18 212.21,-29.57 923.58,15.83 852.3,347.89 -2.95,13.84 1.32,68.79 47.65,18.96 13.66,-20.53 102.76,-65.99 106.34,-61.05 -6.04,331.22 238.6,591.88 276.41,913.38 26.93,228.91 -6.7,463.86 -27.36,690.65 30.84,-92.46 61.67,-184.92 92.51,-277.37 11.45,291.62 -28.38,582.2 -70.33,870.56 -78.64,540.66 -235.64,1591.17 -543.32,2020.76 -335.7,468.81 -750.72,425.9 -1263.63,441.73 -1043.6,32.14 -2665.98,166.13 -3599.05,-314.4 -670.91,-345.48 -971.12,-990.33 -1339.93,-1599.59 -41.23,50.88 35,88.92 31.98,157.05 -7.83,176.49 -198.18,342.67 -372.18,338.02 -166.99,-4.51 -746.01,-369.47 -758.9,-516 -4.34,-49.61 125.89,-131.19 167.56,-132.4 74.9,-2.16 182.03,126.2 276.46,118.42 123.61,-228.16 188.11,-205.74 423.43,-132.56 163.54,-163.96 -170.47,-304.31 -157.97,-432.64 7.55,-77.97 156.31,-168.55 203.45,-232.34 87.88,174.57 175.77,349.12 263.65,523.68 -41.25,-185.01 -82.48,-370.01 -123.73,-555.01 132.89,16.79 142.49,190.44 277.83,233.14 309.5,97.65 206.79,-302.95 219.2,-495.19 6.03,-93.43 40.14,-197.67 46.14,-293.23 386.69,514.19 1112.48,606.26 1488.76,1143.22 78.18,132.97 156.37,265.96 234.55,398.94 -166.8,-969.8 -1644.11,-1150.08 -1824.58,-2027.7 -75.95,-369.23 -46.21,-906.03 38.17,-1274.09 50.11,-218.56 390.43,-1001.14 528.67,-1171.54 83.01,-102.3 209.47,-189.67 294.46,-293.62 163.91,-200.44 209.52,-394.53 420.8,-569.14 239.22,-197.63 568.49,-280.66 806.77,-463.38 195.66,-150.07 337.27,-418.86 533.04,-550.22 236.72,-158.79 638.2,-138.26 756.7,-436.46zm-6025.36 246.14c46.52,-92.29 93.04,-184.58 139.56,-276.87 46.59,92.24 93.18,184.48 139.77,276.72 -93.11,0.05 -186.22,0.1 -279.33,0.15zm4394.03 61.87c155.26,0 310.54,0 465.81,0 82.73,0 449.73,-99.91 550.14,-132.15 187.71,-60.34 354.55,-165.66 536.46,-238.33 40.95,14.83 -36.04,64.44 -49.06,74.67 -392.68,308.54 -1021.88,365.53 -1502.24,325.52 -0.37,-9.9 -0.74,-19.81 -1.11,-29.71zm1785.8 -369.87c602.83,-170.92 1161.56,-8.68 1614.62,400.39 -434.73,-82.21 -869.44,-164.43 -1304.16,-246.63 15.29,-20.54 30.59,-41.07 45.89,-61.61 88.12,-10.17 176.25,-20.33 264.36,-30.5 -77.49,-0.2 -154.97,-0.4 -232.46,-0.6 -129.42,-20.35 -258.83,-40.71 -388.25,-61.05zm3618.1 -86.8c226.32,100.49 97.42,797.53 -120.47,732.34 -199.23,-59.58 -133.89,-684.06 120.47,-732.34zm-5605.59 302.74c154.43,-39.76 318.05,-15.99 473.13,-39.16 367.36,-54.95 731.7,-353.76 1141.49,-300.22 -12.66,59.97 -62.29,54.15 -108.5,61.58 -182.35,29.33 -364.38,23.5 -543.43,92.7 -8.29,51.55 75.62,33.75 109.49,31.78 146.83,-8.64 300.69,-61.1 449.14,-47.68 -339.16,216.95 -747.62,308.86 -1148.69,323.75 93.06,-30.63 186.13,-61.27 279.19,-91.9 -156.28,-7.19 -292.02,36.19 -451.34,31.74 -44.4,-1.26 -186.01,-8.24 -200.48,-62.59zm403.77 -185.05c329.99,-175.13 639.36,-319.78 1024.4,-246.88 -165.51,35.97 -331.01,71.93 -496.51,107.9 -147.64,33.7 -288.4,121.63 -433.46,155.73 -31.39,7.39 -101.47,40.77 -94.43,-16.75zm3136.26 -308.57c383.19,178.63 767.15,366.97 1086.85,647.23 -425.22,-30.97 -782.87,-376.54 -1086.85,-647.23zm-760.84 123.11c-156.6,-21.04 -350.89,15.3 -512.42,0 193.16,-60.92 386.33,-121.84 579.49,-182.76 561.16,-16.48 847.72,411.68 1268.56,676.18 -67.34,-10.18 -134.68,-20.35 -202.01,-30.53 36.1,20.46 72.2,40.93 108.29,61.39 50.64,41.61 -37.64,34.3 -62.55,32.17 -353.26,-30.04 -750.44,-498.85 -1179.36,-556.45zm-6435.55 -241.97c358.4,63.07 543.64,983.55 23.42,780.98 -430.81,-167.74 -465.73,-858.82 -23.42,-780.98zm9028.41 1043.89c-544.34,-30.73 -655.44,-1027.38 -103.12,-1038.83 79.37,-1.64 321.35,131.11 351.53,190.96 27.57,54.55 -151.09,87.33 -200.11,140.07 -154.79,166.49 -136.83,512.06 -48.3,707.8zm-10026.46 -1137.48c65.86,-16.47 165.44,-7.55 198.79,57.73 35.4,65.55 11.65,131.59 -47.45,171.19 -118.39,61.1 -224.27,-135.12 -151.34,-228.92zm1300.39 1908.54c137.23,-108.17 360.53,-214.26 478.18,-342.11 162.52,-176.58 285.23,-505.83 468.63,-706.75 759.31,-831.92 1665.5,-117.66 2480.18,-466.92 326.14,-139.82 717.68,-618.54 1044.58,-257.36 13.18,73.27 -33.43,38.85 -78.16,44.72 -477.38,62.21 -653.35,283.61 -1049.48,438.63 -590.94,231.28 -990.49,-179.44 -1613.58,32.09 -470.95,159.86 -549.35,493.79 -817.01,823.41 -209.52,257.99 -590.1,391.95 -913.34,434.29zm5993.61 -1850.81c43.39,-232.21 429.69,-94.04 579.85,-36.15 86.1,53.13 172.2,106.27 258.31,159.41 -279.2,-79.37 -541.88,-195.13 -838.16,-123.26zm-6490.48 -30.97c327.29,-547.42 1087.94,-192.25 986.18,409.54 -35.51,210.16 -219.15,402.61 -427.1,454.35 171.86,-400.76 -67.83,-945.64 -559.08,-863.89zm2018.51 339.33c327.9,-275.83 724.19,-479.57 1117.95,-647.23 -348.39,250.9 -683.97,558.46 -1117.95,647.23zm1087.09 -61.06c403.97,-94.63 692.17,-423.77 1093.52,-533.43 163.63,-44.66 351.21,-114.27 458.74,55.36 -292.03,162.13 -584.05,324.26 -876.09,486.39 -117.13,18.3 -234.27,36.6 -351.4,54.91 -108.26,-21.07 -216.51,-42.15 -324.77,-63.23zm4782.15 -0.63c-248.46,-99.99 -469.79,-277.85 -713.42,-386.1 -129.6,-57.6 -262.6,-85.15 -393.52,-133.52 -153.46,-56.67 -141.53,-129.99 13.9,-107.53 325.12,46.95 818.99,439.16 1093.04,627.15zm2142.44 -647.4c-0.16,167.71 -47.5,771.68 -167.57,866.35 -37.49,29.61 -77.15,37.31 -123.32,25.83 -45.07,-86.77 -90.14,-173.53 -135.22,-260.29 74.21,-77.64 148.41,-155.3 222.62,-232.94 67.83,-132.98 135.65,-265.97 203.49,-398.95zm-1179.6 -61.69c71.73,-17.92 51.16,13.78 70.93,38.88 36.2,45.95 244.51,362.07 208.35,392.68 -313.32,-4.61 -431.29,198.71 -466.93,477.64 -5.67,44.46 28.52,90.73 -44.97,77.56 -150.23,-154.05 -300.48,-308.11 -450.71,-462.16 349.81,130.65 710.58,-167.95 683.33,-524.6zm-5962.54 523.99c390.7,-421.56 922.94,-777.57 1521.55,-770.7 -73.98,120.42 72.13,84.95 62.05,215.58 -190.92,21.77 -597.29,66.08 -754.58,160.47 -48.86,29.36 -61.71,84.15 -103.79,112.79 -85.99,58.52 -180.11,106.05 -259.31,174.33 7.52,61.61 241.71,-125.77 154.71,-0.6 -229.36,142.19 -475.57,238.71 -743.75,279.45 -32.68,4.94 -101.23,41.57 -94.03,-16.4 308.13,-112.03 613.36,-255.87 869.24,-462.81 -217.37,102.63 -434.72,205.26 -652.09,307.89zm3850.89 -770.78c815.73,279.37 1573.51,891.68 2049.37,1603.7 -61,14.1 -73.66,-31.21 -105.77,-64.27 -132.16,-136.12 -249.13,-284.75 -390.62,-414.01 -395.25,-361.07 -821.4,-618.18 -1283.99,-883.93 -121.88,-70.05 -306.12,-71.62 -268.99,-241.49zm2121.82 113.55c-25.51,-44.94 -20.01,-121.5 -49.26,-183.08 -33.35,-70.34 -136.38,-151.04 -100.95,-208.11 291.17,276.43 477.59,639.03 667.82,986.72 -48.96,-13.12 -97.92,-26.24 -146.88,-39.36 -73.33,-186.18 -207.86,-337.74 -309.41,-508.09 -16.68,-27.95 -54.4,-35.86 -61.32,-48.08zm-9699.52 750.05c-265.58,-351.5 -433.7,-780.02 -558.4,-1203.06 165.89,172.11 267.19,394.25 433.64,571.51 179.81,191.44 411.31,338.29 621.76,493.1 20.12,58.76 -41.72,35.67 -60.04,69.12 -69.92,127.82 -135.5,272.38 -188.66,408.59 -60.36,43.86 -207.11,-232.85 -217.24,-292.65 129.59,25.46 236.29,36.5 251.15,-123.28 31.91,-343.03 -427.64,-230.77 -282.21,76.67zm1883.57 544.28c178.46,-177.7 262.49,-295.03 480.04,-463.94 817.75,-634.81 1857.98,-1123.05 2884.96,-1283.56 -1.07,50.46 -2.15,100.93 -3.22,151.39 -938.45,207.1 -1828.24,607.39 -2615.23,1150.13 -484.59,334.19 -889.27,699.68 -1262.82,1151.73 -64.74,78.37 -307.54,454.54 -358.17,477.31 -16.5,7.4 -52.75,5.79 -45.96,-14.97 200.48,-385.06 457.29,-738.01 756.01,-1053.53 41,-43.26 120.59,-70.98 164.39,-114.56zm7432.96 -759.69c-163.31,172.08 -463.85,-29.61 -572.5,-187.59 -374.55,-544.51 153.3,-1242.83 696.58,-722.82 -462.43,18.76 -485.57,739.69 -124.08,910.41zm-7390.88 -1080.52c234.55,-403.17 857.97,-364.44 1041.64,60.66 201.48,466.23 -139.4,910.07 -637.8,895.78 -16.47,-83.47 60.04,-64.11 107.5,-123.72 259.02,-325.52 -44.8,-1013.04 -511.34,-832.72zm6521.39 -523.83c175.91,138.77 351.84,277.54 527.76,416.3 -446.07,113.24 -549.35,593.64 -372.66,971.46 -248.3,-133.75 -496.62,-267.52 -744.92,-401.27 105.9,-23.14 211.78,-46.27 317.68,-69.41 340.32,-176.58 461.36,-584.97 272.14,-917.08zm-1979.99 -146.57c1451.72,195.94 1292.96,2409.51 -285.54,1918.66 -1231.19,-382.84 -1022.23,-2095.16 285.54,-1918.66zm996.77 -28.36c428.07,-426.22 1142.46,117.69 945.04,707.4 -115.97,346.25 -597.3,453.21 -848.44,178.3 -35.81,-39.2 -224.99,-434.49 -230.74,-482.66 -13.38,-112.18 53.97,-323.23 134.14,-403.04zm-3418.36 -375.49c35.12,7 443.43,323.31 474.78,363.48 212.29,272.02 -34.37,715.59 -327.82,818.66 -556.55,195.5 -1043.38,-433.77 -708.8,-919.88 99.01,-143.89 386.12,-297.2 561.84,-262.26zm3241.63 138.22c46.13,-39.96 97.69,-176.54 175.84,-169.15 110.65,59.9 221.31,119.81 331.96,179.72 -319.94,-3.74 -505.83,279.48 -574.31,555.39 -108.56,-87.35 -217.12,-174.7 -325.68,-262.05 120.39,-113.11 267.98,-196.34 392.19,-303.91zm-4802.44 565.85c361.68,-325.6 828.78,-595.5 1288.25,-771.43 -98.21,69.93 -196.42,139.84 -294.63,209.76 -778.04,1182.74 1222.07,1714.88 1211.5,315.19 258.68,72.09 517.35,144.18 776.03,216.27 -72.88,128 -145.77,256 -218.64,384 -1227.5,283.58 -2415.45,817.9 -3337.19,1682.4 22.99,-207.47 36.98,-391.01 -65.05,-582.92 -120.39,-226.42 -350.84,-346.25 -602.28,-357.62 111.36,-140.26 264.01,-323.19 403.25,-432.33 31.22,-24.5 39.9,-59.64 93.43,-45.75 -108.02,439.44 271.44,838.59 726.12,798.79 869.5,-76.21 867.77,-1345.75 19.21,-1416.36zm6558.83 271.25c-9.16,-5.07 -83.3,-121.91 -130.36,-163.32 -421.16,-370.63 -878.25,-664.82 -1384.17,-908.8 26.36,-57.44 52.73,-114.88 79.08,-172.32 14.06,-3.62 28.11,-7.23 42.16,-10.85 675.13,351.19 1276.39,812.64 1790.42,1370.09 -84.38,11.61 -152.09,-71.66 -240.22,-101.23 -48.01,-16.1 -119.22,7.23 -156.91,-13.57zm-7782.99 425.66c444.67,-496.36 1000.98,-973.55 1568.37,-1326.43 157.44,-97.92 679.35,-415.17 827.91,-444.73 118.34,-23.58 168.97,80.98 194.16,179.47 -416.42,163.8 -795.48,406.41 -1177.38,635.45 -104.64,62.78 -215.47,176.38 -302.14,224.26 -208.15,115.08 -300.7,51.9 -489.6,284.9 -307.81,379.63 -542.85,651.49 -929.45,958.49 -283.18,224.87 -225.72,365.69 -346.42,643.01 -91.9,211.04 -227.85,445.22 -435.07,555 -46.58,-24.1 9,-74.39 20.97,-102.59 233.38,-549.82 670.07,-1161.89 1068.65,-1606.83zm8738.93 228.83c-163.72,-200.41 -327.45,-400.82 -491.17,-601.23 304.55,-421.28 353.98,-932.69 398.66,-1434.64 52.08,302.88 104.16,605.75 156.24,908.64 -21.25,375.74 -42.49,751.49 -63.73,1127.23zm-9595.41 -2405.89c86.15,-15.14 52.51,17.44 70.12,67.36 67.92,192.65 108.38,398.1 185.65,588.26 176.53,434.57 472.96,844.33 799.5,1179.57 -160.27,169.47 -320.53,338.93 -480.8,508.4 -310.86,-682.89 -528.33,-1453.76 -541.48,-2207.02 -0.92,-52.54 -11.33,-90.21 -32.99,-136.57zm8415.84 -1079.87c93.48,-15.07 49.87,22.74 62.81,74.79 184.33,741.09 127.95,1514.01 92.14,2269.44 -216.9,-160.46 -433.79,-320.91 -650.69,-481.36 340.32,-542.11 508.41,-1223.85 495.74,-1862.87zm-6552.28 2190.1c-164.31,-783.02 -360.6,-1566.74 -310.57,-2375.2 142.97,346.27 285.94,692.52 428.91,1038.79 185.61,305.15 348.72,626.29 595.45,889.27 -237.93,149.04 -475.86,298.1 -713.79,447.14zm4968.65 -3578.46c611.55,742.45 792.7,1962.07 304.22,2816.68 -138.99,243.1 -533.04,698.89 -808.09,773.03 -139.4,37.57 -352.81,-56.23 -533.48,-38.8 -325.28,31.41 -464.49,247.92 -802.79,204.65 -1044.7,-133.59 -1943.25,-1180.13 -2037.96,-2201.67 -55.13,-595.13 73.74,-1280.03 461.51,-1738.99 -339.92,1340.52 806.29,2697.43 2212.93,2460.2 1086.04,-183.17 1538.63,-1299.39 1203.66,-2275.1zm-3416.27 24339.91c-334.29,101.95 -712.9,163.77 -993.42,-92.55 64.98,204.31 441.29,322.96 636.47,338.9 620.36,50.66 1123.94,-307.72 1543.1,-710.96 358.68,-345.13 600.98,-751.63 614.97,-1263.08 29.33,-29.81 574.02,120.7 606.53,185 42.96,85.08 -42.75,328.94 -48.58,446.24 -30.46,611.59 438.48,1181.29 1025.61,1328.06 240.62,60.14 555.86,75.92 745.53,-107.89 -169.14,23.66 -518.33,77.69 -653.18,-46.24 -63.06,-57.87 7.87,-131.94 1.44,-138.98 -10.09,-10.96 -205.26,-50.32 -278.79,-109.25 -331.44,-265.62 -256.29,-807.46 29.29,-1079.31 831.52,-791.59 2328.72,-82.3 3385.04,-493.46 442.71,-172.33 1242.72,-814.53 1242.72,-1325.94 0,-179.96 0,-359.91 0,-539.86 145.79,-26.19 246.13,323.51 265.49,430.36 85.28,470.52 -37.69,1039.46 -513.7,1235.89 27.53,67.15 124.57,38.79 92.26,152.63 -329.06,149.91 -666.49,268.36 -1035.49,252.01 -22.75,50.67 -45.5,101.34 -68.24,152 -428.87,-21.05 -857.73,-42.09 -1286.6,-63.14 116.85,163.19 292.93,100.98 446.44,126.73 1022.68,171.6 1883.37,344.23 2737.16,-403.97 120.34,-105.49 332.15,-422.36 400.63,-465.82 57.46,-36.49 270.11,-64.84 380.46,-115.61 1010.74,-465.07 1260.96,-1694.49 688.15,-2607.05 -46.86,-74.64 -195.9,-150.39 -134.9,-237.65 11.89,-16.98 62.52,-19.83 71.41,-35.54 19.65,-34.74 -2.05,-87.4 7.07,-125.97 6.79,-28.47 55.34,-22.41 70.72,-60.41 59.32,-146.53 57.87,-316.2 54.37,-472.34 -3.54,-158.7 -93.1,-254.13 182.99,-278.43 81.22,-7.2 167.21,184.36 218.12,243.33 24.99,28.96 69.92,11.65 95.96,41.05 186.78,210.64 192.08,525.36 273.25,770.14 39.22,118.17 87.45,197.83 97.49,366.94 19.61,331.26 -27.53,590.1 -112.15,906.1 -14.27,53.26 -32.19,99.14 34.83,34.54 165.16,-349.65 266.46,-768.24 232.38,-1156.39 -13.73,-156.61 -108.45,-662.36 -169.33,-789.3 -55.58,-115.87 -211.56,-271.77 -270.76,-408.34 -122.91,-283.63 110.35,-312.23 267.07,-517.65 213.29,-279.53 345.33,-743.82 329.83,-1093.81 -52.05,-1175.99 -1113.9,-1926.05 -2065.66,-2420.84 -92.77,-313.63 -21.54,-646.46 -51.06,-967.27 -56.78,-615.91 -492.58,-1174.19 -989.61,-1515.7 258.69,61.8 517.38,123.58 776.07,185.37 -466.1,-249.64 -1018.34,-276.83 -1489.38,-525.68 -9.76,-18.97 -19.52,-37.95 -29.28,-56.92 79.68,-96.52 137.94,-197.58 121.51,-327.57 84.34,-23.56 57.82,53.43 107.05,92.76 579.16,462.65 1894.47,476.14 2165.51,1212.59 144.66,393.04 28.8,869.67 -350.45,1082.36 -60.92,34.14 -160.29,25.42 -183.08,79.89 536.37,-59.89 851.86,-778.33 714.27,-1264.32 42.04,-45.84 425.39,340.18 464.72,386.34 395.13,463.49 560.52,1047.69 467.06,1649.36 31.39,9.01 61.8,-131.06 61.8,-138.66 0,-185.09 0,-370.19 0,-555.28 0,-337.64 -377.81,-938.04 -620.71,-1172.65 -134.5,-129.87 -340.72,-231.33 -464.05,-341.07 -85.99,-76.56 -157.04,-220.24 -249.9,-307.04 -528.58,-494.18 -1350.5,-420.48 -1861.35,-834.86 -260.88,-211.6 -191.16,-298.16 -291.5,-574.19 -28.33,-77.97 -129.15,-185.94 -140.72,-263.54 -13.46,-90.18 96.64,-221.77 103.4,-316.37 328.9,323.07 826.09,324.07 1242.83,462.1 418.12,138.45 747.42,379.66 991.34,742.78 47.12,91.86 94.22,183.7 141.33,275.55 -218.92,-882.2 -1140.33,-1123.81 -1924.81,-1295.86 0.13,-75.83 91.22,0.36 108.46,0.36 300.19,0 600.37,0 900.56,0 78.84,0 387.57,105.12 471.44,148.71 142.32,73.95 247.24,183.04 336.14,313.91 34.07,-85.15 -96.93,-195.81 -154.79,-247.31 -583.8,-519.25 -1393.62,-75.56 -1921.03,-405.37 -252.76,-158.02 -123.56,-262.91 -144.42,-519.45 355.06,280.04 808.5,201.35 1226.76,185.2 38.03,-1.44 115.26,23.19 108.26,-30.97 -191.5,0 -383.01,0 -574.51,0 -209.16,0 -640.81,-65.55 -762.84,-260.2 -49.3,-78.69 -60.6,-264.35 -116.61,-377.74 -43.29,-87.48 -164.92,-191.44 -184.66,-248.43 -48.85,-141.03 -31.01,-313.03 -108.81,-478.04 -39.25,-83.35 -199.63,-236.15 -204.13,-259.57 -4.5,-23.33 82.74,-195.86 98.69,-262.9 46.49,-195.45 132.29,-598.02 44.65,-774.36 -45.34,-91.21 -149.29,-99.25 -150.58,-160.1 168.73,-562.92 339.72,-1093.65 278.12,-1694.33 -3.18,-31.32 -12.42,-145.08 -57.95,-142.3 -54.17,379.18 -227.16,649.91 -435.75,955.86 -21.16,-5.94 -42.32,-11.88 -63.49,-17.83 -12.74,-191.36 -244.36,-426.06 -285.27,-576.81 -34.59,-127.41 66.58,-629.6 71.17,-807.49 16.19,-633.61 -93.95,-1305.54 -312.23,-1898.26 -54.01,-7.39 -29.29,70.17 -30.66,107.41 -10.53,280.81 2.57,542.43 -39.46,824.92 -49.26,331.07 -163.1,617.75 -302.58,918.29 -51.6,37.43 -355.34,-324.24 -420.04,-371.4 26.68,-323.01 53.36,-646.03 80.04,-969.04 -43.84,-589.39 -73.86,-1264.21 -280.07,-1822.01 -17.28,-46.69 -43.05,-154.33 -93.44,-169 18.93,522.39 -8.95,1030.11 -146.83,1535.59 -27.72,101.65 -279.88,776.56 -323.8,804.03 -125.65,78.53 -494.95,-262.26 -642.86,-277.36 -66.59,-105.68 160.21,-414.9 197.43,-519.61 261.11,-734.5 -39.47,-1854.59 -499.89,-2465.62 -92.06,-122.2 -256.45,-344.45 -416.34,-326.77 746.93,1145.75 132.08,2672.49 -1352.48,2577.49 -1056.98,-67.64 -1880.6,-1175.71 -1682.57,-2198.66 30.22,-156.06 111.52,-296.28 115.54,-455.63 -187.06,11.33 -307.89,215.14 -397.39,360.74 -357.63,581.92 -458.05,1353.74 -301.45,2014.83 73.29,309.57 217.88,565.68 359.12,846.37 -137.06,86.65 -559.32,281.66 -709.44,195.22 -20.78,-12.01 -233.64,-341.7 -267.83,-396.7 -411.37,-661.48 -516.92,-1142.85 -731.5,-1864.92 -13.39,-45.1 17.31,-54.06 -62.85,-44.98 -19.73,222.14 -39.46,444.29 -59.19,666.43 53.16,190.83 12.81,388.83 28.28,582.5 47.26,591.77 217.84,1176.29 343.42,1753.94 -133.13,93.27 -265.14,193.61 -389.5,298.65 -240.67,203.33 -210.4,375.65 -481.25,75.43 -343.96,-381.27 -597.93,-899.36 -746.81,-1386.67 -66.35,-217.07 -92.7,-443.65 -153.75,-649.64 -13.37,-45.15 17.25,-54.02 -62.89,-44.99 -123.99,1014.89 127.64,2028.32 512.84,2959.34 -98.45,150.26 -196.9,300.53 -295.35,450.8 -74.11,47 -366.16,-189.56 -435.35,-247.83 -418.73,-352.88 -529.23,-652.74 -791.95,-1096.31 -23.63,-39.93 5.54,-77.72 -77.07,-60.78 49.1,784.4 435.95,1483.81 864.63,2119.95 -60.67,187.91 -121.32,375.83 -181.99,563.75 -313.15,-110.33 -635.54,-272.9 -885.45,-492.77 -138.96,-122.23 -228.08,-268.12 -350.16,-392.53 -30.46,-31.05 -30.3,-87.32 -99.14,-70.86 30.51,554 419.04,1039.95 745.98,1464.37 87.4,113.43 273.69,270.52 336.22,375.48 74.57,125.25 113.11,346.13 193.43,485.11 -427.47,250.77 -629.07,625.29 -734.02,1097.51 -19.82,89.21 1,184.85 -20.06,257.71 -10.37,35.71 -173.2,192.53 -213.18,220.12 -450.66,311.23 -998.28,4.94 -1488.44,110.26 264.04,30.62 528.06,61.25 792.1,91.87 368.64,23.42 639.76,-23.38 915.38,-277.28 21.51,139.79 -27.52,232.01 -111.15,336.57 -495.5,619.87 -2217.49,496.72 -2963.94,664.98 -327.74,73.86 -718.29,303.87 -893.9,592.79 -18.96,31.22 -116.17,173.85 -37.08,194.7 186.29,-552.19 903.61,-797.5 1443.84,-803.04 61.56,-0.6 50.23,4.3 47.06,62.38 -189.23,54.83 -371.51,175.45 -496.84,324.36 -29.17,34.66 -75.38,50.04 -61.73,108.01 357.57,-394.61 773.91,-459.68 1288.14,-431.57 222.6,30.64 445.18,61.27 667.78,91.91 -849.77,77.08 -1782.2,532.95 -2070.47,1383.02 -100.58,296.68 -36.33,486.11 -74.78,758.62 -12.34,87.27 -64.98,152.23 -81.42,227.62 -72.73,333.92 -25.36,631.8 192.44,901.45 113.24,140.14 366.11,257.6 291.22,473.82 -18.17,52.42 -367.41,107.44 -454.32,134.65 -1700.18,531.41 -2123.8,2285.83 -977.27,3605.62 -105.85,497.64 -40.99,1013.12 115.2,1493.24 31.3,96.12 398.87,526.72 500.82,644.06 51.15,58.87 146.18,97.16 198.87,172.63 214.05,306.61 279.83,616.86 592.98,922.5 908.16,886.42 2508.92,597.45 3366.36,1560.88 50.67,-31.01 -10.53,-68.12 -30.99,-92.59 -138.22,-165.2 -353.93,-280.01 -534.48,-394.52 -261.79,-104.82 -523.6,-209.65 -785.39,-314.47 548.03,61.73 1085.44,286.71 1475.11,678.19 75.35,-104.97 -138.43,-149.91 -93.46,-246.47 307.68,246.59 505.47,930.17 365.91,1288.66 -15.2,39.01 -17.77,90.75 -70.45,99.38 45.49,-229.68 60.64,-570.35 -124.21,-740.38 81.73,266.44 184.61,657.87 -14.86,895.63 -77.91,50.97 -155.84,101.94 -233.75,152.91 67.15,-0.16 184.8,-1.48 238.93,-40.01 37.93,-26.98 258.87,-297.76 282.37,-351.7 135.42,-310.82 43.65,-629.83 -55.33,-934.47 215.18,283.55 286.27,713.46 75.39,1016.09 -47.63,68.29 -130.6,110.9 -168.86,186.74 190.51,-58.2 316.77,-327.77 338.03,-512.06 39.54,-342.48 -99.58,-583.71 -281.21,-855.17 -65.53,-97.93 -196.82,-158.27 -180.86,-298.17 243.33,51.21 486.67,102.43 730.01,153.64 759.08,53.91 1534.94,-25.06 2259.14,254.59 149.92,57.92 274.57,159.38 426.62,208.26 -516.55,-460.16 -1279.49,-522.21 -1941.15,-616.37 -113.52,1.48 -228.25,-4.98 -341.61,-0.28 -38.13,1.57 -115.33,-23.5 -108.41,30.84 160.45,0 320.91,0 481.36,0 160.4,30.75 320.8,61.49 481.21,92.23 -571.54,-53.06 -1107.47,11.65 -1669.4,-145.84 -1165.29,-326.54 -2123.07,-1479.43 -1856.34,-2724 9.21,-43.01 42.29,-214.49 78.85,-214.73 52.4,-294.83 312.87,-701.85 526.65,-911.32 25.31,-24.75 260.26,-217.99 280.76,-198.95 -772.17,742.98 -928.73,1904.47 -373.11,2822.99 13.31,74.8 -32.35,36.95 -61.64,14.83 266.17,509.56 807.46,896.13 1359.5,1040.23 987.35,257.63 2054.19,10.79 2942.14,594.27 92.33,5.71 23.34,-34.94 -5.35,-56.55 -258.87,-194.74 -717.48,-360.67 -1035.86,-405.82 0.02,-30.76 0.06,-61.54 0.08,-92.3 690,-13.38 1995.41,-69.33 2303.5,719.52 114.84,293.99 121.95,970.06 -315.69,977.37 46.46,10.11 92.94,20.21 139.4,30.32 66.38,153.85 -259.11,217.67 -325.89,308.69 837.35,-255.38 1112.53,-1195.27 719.49,-1933.28 -103.18,-193.77 -250.99,-366.45 -408.79,-519.37 -4.94,-22.85 32.43,-21.04 46.01,-15.02 60.76,26.95 322.48,330.75 370.34,403.48 550.79,837.02 228.56,1841.58 -742.28,2126.21 -34,1.77 7.36,-51.29 15.23,-62.02z"/>
   <path class="fil0" d="M9528.39 11783.51c140.49,-123.2 246.21,-277.43 388.82,-400.11 410.89,-353.36 690.96,-416.82 1237.46,-367.34 338.59,30.65 861.18,247.84 1153.68,243.59 188.1,-2.78 182.44,-125.98 169.58,-278.05l-61.41 61.33 -109.21 -184.77 -30.78 61.49c-64.26,-74.67 -152.55,-127.08 -246.94,-155.76 -349.59,-106.21 -1121.69,-82.47 -1477.27,16.47 -418.8,116.52 -847.95,621.68 -1023.93,1003.15z"/>
   <path class="fil0" d="M10677.25 12092.33l15.15 62.21 -201.6 -62.21 62.05 91.94 -108.1 -31.17 15.31 62.06 -248.62 -61.14 92.99 91.95 -403.53 -30.25 154.95 91.94 -372.47 -61.13c154.2,163.16 367.89,254.66 590.06,277.64l-93.18 122.83c59.72,10.97 93.07,-45.06 145.99,-55.15 80.09,-15.34 175.92,6.71 251.27,-26.55 49.71,-21.93 42.95,-91.46 81.98,-135.28 245.64,-275.83 857.24,-297.65 1191.4,-192.97 128.63,40.29 214.87,139.5 347.83,132.31 -192.75,-138.34 -434.75,-299.72 -675.57,-330.93 -276.1,-35.8 -565.74,72.94 -845.91,53.9z"/>
   <path class="fil0" d="M13171.52 13551.49c-39.78,45.1 -104.59,219.8 4.1,206.05 98.45,2.82 194.57,-130.02 257.1,-147.37 36.48,-10.12 82.21,26.43 118.62,-2.73 106.84,-85.6 20.81,-213.98 -89.29,-212.77 -61.36,0.65 -248.9,109.61 -290.53,156.82z"/>
   <path class="fil0" d="M14061.79 13449.43c-53.28,-13.33 -61.92,21.5 -93.19,46.04 -313.03,246.06 221.94,492.54 93.19,-46.04z"/>
   <path class="fil0" d="M13099.17 13911.79c-29.33,-66.15 -135.69,-50.28 -202.56,-91.37 -71.37,-43.83 -155.51,-189.43 -164.4,-271.41 -6.98,-64.28 56.5,-173.37 -5.13,-191.93 -102.48,306.36 1.64,619.59 372.09,554.71z"/>
   <path class="fil0" d="M11391.5 11567.89l300.49 117.5 289.08 221.53c77.08,-85.64 -472.44,-413.62 -589.57,-339.03z"/>
   <g>
    <path class="fil0" d="M12543.07 15053.8l-0.43 -92.94c-83.55,57.19 -106.1,128.2 -216.8,61.86l-0.45 123.23c334.25,77.04 613.62,-215.54 916.08,-246.64 201.4,-20.68 325.53,57.89 496.87,63.68 120.55,4.09 225.91,-43.99 341.64,-34.44 169.94,14.07 324.73,169.08 384.85,320.95 -42.12,253.9 -1020.92,170.44 -1219.39,139.58 -200.11,-31.09 -380.57,-113.95 -578.12,-150.14l822.6 308.36c245.29,-0.48 758.11,34.67 938.09,-163.44 69.12,-76.08 28.06,-184.57 226.85,-145.33 7.39,-120.5 -149.21,-147.58 -124.78,-308.2l-15.03 215.57c-124.73,-106.19 -368.08,-411.72 -530.99,-431.39 -91.38,-11.02 -180.22,34.91 -276.58,33.37 -130.96,-2.13 -220.77,-50.25 -365.31,-26.27 -119.46,19.8 -754.45,384.53 -799.1,332.19z"/>
    <path class="fil1" d="M14490.37 14920.49c-290.26,-886.64 -578.99,-485.67 -856.09,-567.88 -376.87,-111.83 -678.06,235.68 -926.43,453.38 174.56,-109.06 623.85,-474.97 825.67,-418.92 610.35,169.53 447.96,-350.15 956.85,533.42z"/>
   </g>
   <path class="fil1" d="M12212.76 22607.88c-140.67,966.5 -434.76,780.94 -760.72,-120.5 232.71,1233.9 865.6,987.56 760.72,120.5z"/>
   <g>
    <path class="fil1" d="M14078.89 13869.25c344.71,28.69 190.57,-475.26 84.78,-524.86 56.89,194.15 124.8,410.29 -84.78,524.86z"/>
   </g>
   <path class="fil2" d="M14078.89 13869.25c270.43,-35.33 150.7,-300.62 127.13,-438.57 -5.28,-30.84 -15.78,-64.28 -42.35,-86.29"/>
   <g>
    <path class="fil1" d="M14139.33 13143.98c-99.98,-0.17 -70.64,188.76 -425.41,-0.01 -6.86,-3.65 -9.56,-2.93 -17.87,-3.45 4.01,10.58 1.16,5.91 8.21,14.17l-0.51 -0.38c153.04,156.94 289.77,174.46 435.58,-10.33z"/>
   </g>
   <path class="fil2" d="M14139.33 13143.98c-53.29,14.16 -122.38,189.13 -327.31,66.74 -40.89,-24.42 -59.13,-25.39 -102.93,-61.39l-13.04 -8.81"/>
   <g>
    <path class="fil1" d="M13601.27 13862.14c-81.23,-60.02 -181.51,88.2 -46.41,324.74 38.92,-226.58 -46.96,-227.13 46.41,-324.74z"/>
   </g>
   <path class="fil2" d="M13601.27 13862.14c-145.99,0 -46.41,261.8 -46.41,324.74"/>
   <g>
    <path class="fil1" d="M9923.97 12050.16c339.65,-256.59 804.57,-599.46 1257.11,-577.86 -448.3,-205.57 -993.96,291.76 -1257.11,577.86z"/>
   </g>
   <path class="fil2" d="M9923.97 12050.16c206.54,-253.54 919.68,-701.59 1257.11,-577.86"/>
   <g>
    <path class="fil1" d="M15062.54 12040.99c68.9,-322.42 -853.12,-776.32 -1140.31,-65.76 -12.65,31.28 -32.23,17.07 -34.22,65.76 33.1,-33.33 44.72,-28.09 66.92,-69.17 254.43,-470.72 980.12,-318.45 1107.61,69.17z"/>
   </g>
   <path class="fil2" d="M15062.54 12040.99c11.94,-358.32 -921.26,-643.35 -1121.84,-74.17 -16.71,47.42 -36.22,26.56 -52.69,74.17"/>
   <g>
    <path class="fil1" d="M10527.78 12540.87c533.57,265.09 686.05,176 1271.04,25.44l-0.55 0.07c15.82,-4.03 8.12,-1.21 23.05,-8.61l-12.38 -3.47c-312.91,-53.49 -461.12,217.08 -1281.16,-13.43z"/>
   </g>
   <path class="fil2" d="M10527.78 12540.87c551.49,243.44 769.88,101.14 1269.78,19.07l23.76 -2.17"/>
   <g>
    <path class="fil1" d="M14959.4 12724.04c-237.69,11.19 -378.31,-20.91 -619.75,-23.38 236.12,69.03 396.6,127.99 619.75,23.38z"/>
   </g>
   <path class="fil2" d="M14959.4 12724.04c-209.96,67.39 -410.25,-0.05 -619.75,-23.38"/>
   <g>
    <path class="fil1" d="M11348.32 16338.99c-4.72,239.28 994.82,772.27 1558.9,620 105.92,-28.58 1144.03,-189.17 1221.58,-25.94 70.01,-194.84 -1154.42,-70.67 -1255.09,-46.54 -440.72,105.6 -1367.64,-237.16 -1525.39,-547.52z"/>
   </g>
   <path class="fil2" d="M11348.32 16338.99c12.54,194.31 1103.07,786.7 1542.15,583.76 141.69,-65.48 1250.73,-146.7 1238.33,10.3"/>
   <g>
    <path class="fil1" d="M14229.67 15822.9c-507.24,-94.6 -557.95,-99.56 -1069.33,-8.87 433.04,-12.97 637.99,-8.99 1069.33,8.87z"/>
   </g>
   <path class="fil2" d="M14229.67 15822.9c-422.47,-56.44 -670.87,-59.95 -1069.33,-8.87"/>
  </g>
 </g>
</svg>
