<svg width="242" height="242" viewBox="0 0 242 242" fill="none" xmlns="http://www.w3.org/2000/svg">
<path fill-rule="evenodd" clip-rule="evenodd" d="M206.586 60.4649C207.387 61.6029 208.16 62.7481 208.912 63.8967L209.108 64.196L206.969 65.5884L206.774 65.2891C206.135 64.309 205.47 63.3316 204.785 62.3618C204.147 61.4578 203.499 60.5718 202.847 59.7075L197.778 63.6015C200.043 66.6297 202.122 69.7791 204.004 73.0318C205.885 76.2845 207.568 79.6399 209.044 83.0808L214.959 80.6306C214.539 79.649 214.102 78.6622 213.644 77.6734C213.142 76.5861 212.618 75.5066 212.07 74.4453L211.906 74.1275L214.185 72.9558L214.349 73.2748C214.979 74.5066 215.581 75.7538 216.159 77.0116C216.744 78.2838 217.299 79.5526 217.829 80.8157C218.361 82.108 218.865 83.3972 219.339 84.6856C219.815 85.9801 220.271 87.2946 220.704 88.628L220.815 88.9693L218.386 89.7434L218.276 89.4062C217.905 88.2705 217.511 87.1389 217.096 86.0099C216.725 84.9997 216.336 83.9951 215.932 82.9939L210.017 85.4442C211.407 88.9206 212.589 92.4816 213.559 96.1058C214.529 99.7323 215.287 103.429 215.829 107.172L222.188 106.34C222.033 105.264 221.86 104.177 221.67 103.086C221.466 101.923 221.242 100.765 221 99.6215L220.925 99.2723L223.427 98.7394L223.501 99.0894C223.789 100.438 224.049 101.798 224.283 103.166C224.515 104.52 224.722 105.893 224.907 107.285C225.084 108.666 225.237 110.053 225.363 111.443C225.487 112.815 225.585 114.185 225.655 115.546L225.673 115.903L223.113 116.032L223.097 115.673C223.043 114.496 222.958 113.301 222.852 112.095C222.757 111.018 222.645 109.947 222.521 108.881L216.143 109.71C216.356 111.508 216.526 113.317 216.644 115.136C216.769 117.076 216.837 119.018 216.837 120.961C216.837 122.911 216.773 124.857 216.651 126.797C216.537 128.617 216.372 130.422 216.16 132.211L222.521 133.059C222.645 131.992 222.757 130.918 222.852 129.839C222.958 128.63 223.043 127.435 223.097 126.263L223.113 125.907L225.673 126.013L225.655 126.374C225.585 127.733 225.488 129.102 225.364 130.475C225.238 131.867 225.084 133.261 224.907 134.65C224.722 136.038 224.515 137.409 224.283 138.762C224.049 140.13 223.789 141.493 223.501 142.847L223.427 143.196L220.926 142.667L221 142.318C221.246 141.151 221.473 139.971 221.68 138.782C221.867 137.71 222.037 136.643 222.188 135.58L215.829 134.748C215.289 138.494 214.532 142.184 213.564 145.805C212.593 149.435 211.409 153.003 210.017 156.492L215.932 158.942C216.335 157.945 216.721 156.941 217.091 155.932C217.508 154.794 217.904 153.656 218.276 152.517L218.387 152.177L220.815 152.968L220.704 153.308C220.271 154.634 219.815 155.946 219.339 157.24C218.865 158.529 218.361 159.822 217.829 161.119C217.295 162.395 216.74 163.662 216.159 164.92C215.585 166.164 214.983 167.407 214.349 168.645L214.185 168.964L211.906 167.792L212.07 167.475C212.618 166.413 213.142 165.34 213.644 164.257C214.102 163.273 214.54 162.289 214.959 161.305L209.044 158.855C207.567 162.291 205.882 165.646 203.999 168.902C202.121 172.15 200.043 175.299 197.777 178.333L202.846 182.212C203.499 181.341 204.139 180.471 204.757 179.6C205.45 178.623 206.125 177.634 206.774 176.631L206.968 176.331L209.108 177.724L208.912 178.023C208.155 179.183 207.371 180.337 206.562 181.482C205.771 182.603 204.958 183.709 204.126 184.797C203.283 185.895 202.415 186.978 201.524 188.046C200.639 189.109 199.732 190.154 198.804 191.186L198.566 191.45L196.665 189.748L196.903 189.482C197.701 188.59 198.482 187.678 199.249 186.754C199.943 185.919 200.619 185.081 201.282 184.245L196.213 180.347C195.084 181.779 193.926 183.177 192.733 184.533C191.46 185.981 190.132 187.4 188.744 188.78C187.356 190.169 185.933 191.499 184.483 192.774C183.124 193.968 181.727 195.126 180.298 196.247L184.196 201.334C185.043 200.67 185.885 199.994 186.715 199.304C187.64 198.536 188.548 197.754 189.431 196.955L189.695 196.716L191.4 198.598L191.138 198.838C190.143 199.747 189.115 200.642 188.064 201.518C186.986 202.419 185.88 203.3 184.759 204.159C183.662 205.008 182.548 205.831 181.423 206.629C180.285 207.436 179.139 208.216 177.99 208.969L177.691 209.165L176.298 207.02L176.595 206.825C177.584 206.175 178.572 205.496 179.557 204.795C180.435 204.169 181.305 203.531 182.162 202.882L178.284 197.829C175.265 200.087 172.124 202.156 168.88 204.03C165.62 205.913 162.255 207.598 158.805 209.079L161.251 214.997C162.243 214.571 163.232 214.133 164.212 213.682C165.292 213.184 166.371 212.664 167.441 212.12L167.757 211.959L168.932 214.219L168.61 214.383C167.383 215.007 166.137 215.615 164.871 216.201C163.62 216.78 162.353 217.335 161.07 217.863C159.798 218.398 158.507 218.906 157.201 219.388C155.917 219.862 154.602 220.314 153.257 220.743L152.917 220.851L152.142 218.418L152.482 218.31C153.603 217.951 154.736 217.557 155.876 217.138C156.896 216.763 157.9 216.376 158.891 215.982L156.443 210.068C152.964 211.459 149.4 212.642 145.772 213.612C142.146 214.581 138.448 215.339 134.698 215.88L135.546 222.224C136.605 222.072 137.669 221.906 138.735 221.721C139.907 221.52 141.084 221.294 142.265 221.039L142.616 220.963L143.141 223.459L142.794 223.535C141.444 223.83 140.081 224.094 138.708 224.331C137.352 224.565 135.982 224.773 134.602 224.959C133.228 225.134 131.854 225.286 130.476 225.409C129.093 225.533 127.714 225.631 126.34 225.695L125.984 225.712L125.853 223.164L126.21 223.146C127.416 223.084 128.609 222.996 129.791 222.89C130.84 222.796 131.914 222.683 133.006 222.555L132.177 216.198C130.379 216.409 128.57 216.578 126.751 216.695C124.811 216.821 122.869 216.888 120.927 216.888C118.979 216.879 117.051 216.813 115.144 216.692C113.306 216.577 111.482 216.41 109.675 216.198L108.829 222.555C109.92 222.683 110.996 222.796 112.048 222.89C113.232 222.996 114.426 223.084 115.625 223.146L115.979 223.164L115.873 225.712L115.514 225.695C114.129 225.631 112.741 225.533 111.353 225.407C109.969 225.281 108.59 225.126 107.218 224.943C105.831 224.765 104.464 224.56 103.117 224.329C101.748 224.094 100.389 223.83 99.0375 223.535L98.689 223.459L99.2219 220.963L99.5723 221.039C100.752 221.294 101.929 221.52 103.102 221.721C104.172 221.906 105.239 222.072 106.306 222.224L107.138 215.88C103.408 215.342 99.7333 214.585 96.1265 213.621C92.4811 212.646 88.8985 211.458 85.3941 210.067L82.9446 215.982C83.9371 216.376 84.9444 216.764 85.966 217.138C87.1025 217.555 88.2333 217.949 89.3509 218.31L89.6903 218.419L88.9219 220.853L88.5791 220.743C87.2484 220.315 85.9373 219.863 84.6481 219.388C83.349 218.91 82.0542 218.401 80.7657 217.864C79.5022 217.343 78.2523 216.795 77.021 216.225C75.7582 215.641 74.4974 215.025 73.243 214.382L72.9247 214.218L74.0745 211.959L74.3927 212.12C75.4627 212.66 76.5414 213.18 77.628 213.684C78.6205 214.144 79.6043 214.586 80.5813 215.012L83.0308 209.079C79.5816 207.599 76.2178 205.914 72.9576 204.031C69.714 202.157 66.5721 200.087 63.5515 197.829L59.6711 202.881C60.5313 203.526 61.4009 204.164 62.2869 204.795C63.265 205.491 64.2537 206.169 65.2568 206.824L65.5562 207.018L64.1642 209.163L63.8644 208.969C62.7056 208.216 61.5548 207.436 60.4152 206.629C59.2768 205.823 58.1615 204.999 57.0749 204.158C55.9819 203.313 54.899 202.45 53.8332 201.564C52.773 200.683 51.7265 199.775 50.6992 198.836L50.4373 198.596L52.1419 196.716L52.4057 196.955C53.2882 197.754 54.196 198.536 55.1205 199.304C55.9512 199.994 56.7929 200.67 57.6411 201.334L61.5381 196.248C60.1151 195.133 58.7182 193.976 57.3538 192.774C55.9055 191.499 54.4878 190.168 53.1087 188.779C51.728 187.407 50.3968 185.989 49.1122 184.533C47.9088 183.168 46.7462 181.771 45.6237 180.347L40.5538 184.245C41.2156 185.082 41.8914 185.923 42.5853 186.76C43.3631 187.699 44.1463 188.612 44.9313 189.481L45.1717 189.747L43.2694 191.45L43.0313 191.186C42.1144 190.166 41.2073 189.12 40.3123 188.046C39.4219 186.978 38.5541 185.895 37.7116 184.797C36.8884 183.722 36.0743 182.615 35.2731 181.482C34.4631 180.338 33.6777 179.183 32.9192 178.023L32.7234 177.723L34.8683 176.332L35.0629 176.631C35.7175 177.634 36.396 178.622 37.0922 179.6C37.7116 180.47 38.3519 181.341 39.0057 182.211L44.0593 178.334C41.8033 175.32 39.7363 172.184 37.8624 168.945C35.9738 165.68 34.2817 162.31 32.7918 158.855L26.875 161.305C27.2994 162.297 27.7374 163.282 28.1914 164.257C28.6948 165.34 29.2186 166.413 29.7671 167.475L29.9315 167.792L27.6505 168.965L27.4872 168.644C26.864 167.416 26.2608 166.173 25.6821 164.92C25.1065 163.67 24.5517 162.403 24.0248 161.12C23.4877 159.833 22.9786 158.539 22.4975 157.24C22.0183 155.945 21.5621 154.633 21.1293 153.308L21.0186 152.968L23.4496 152.177L23.5607 152.517C23.9318 153.651 24.3298 154.786 24.7467 155.919C25.1235 156.943 25.5109 157.95 25.9048 158.942L31.8182 156.492C30.4262 153.003 29.2421 149.435 28.2715 145.805C27.3039 142.184 26.5465 138.494 26.006 134.748L19.6629 135.58C19.8156 136.646 19.9815 137.714 20.1637 138.784C20.3643 139.964 20.5858 141.143 20.8319 142.318L20.9048 142.667L18.4099 143.197L18.3355 142.847C18.0475 141.493 17.7875 140.13 17.5535 138.76C17.3222 137.404 17.1147 136.029 16.9295 134.635C16.7526 133.26 16.5999 131.879 16.4748 130.496C16.3501 129.117 16.2511 127.741 16.1808 126.374L16.1619 126.013L18.7218 125.907L18.7403 126.26C18.8038 127.461 18.8911 128.655 18.9969 129.839C19.0914 130.891 19.204 131.967 19.3318 133.059L25.6901 132.211C25.4788 130.421 25.3102 128.616 25.1923 126.797C25.0665 124.857 24.9984 122.911 24.9984 120.961C24.9984 119.018 25.0665 117.076 25.1923 115.136C25.3102 113.317 25.4788 111.509 25.6901 109.71L19.3318 108.882C19.204 109.973 19.0914 111.046 18.9969 112.095C18.8911 113.277 18.8038 114.47 18.7403 115.675L18.7218 116.032L16.1623 115.903L16.1808 115.546C16.2511 114.181 16.3497 112.806 16.4745 111.427C16.5992 110.04 16.7522 108.653 16.9295 107.27C17.1147 105.885 17.3222 104.515 17.5535 103.164C17.7875 101.798 18.0479 100.438 18.3355 99.0894L18.4103 98.739L20.9052 99.2723L20.8319 99.62C20.5866 100.783 20.3651 101.957 20.1637 103.139C19.9815 104.206 19.8156 105.274 19.6629 106.34L26.0064 107.172C26.5477 103.429 27.3066 99.7323 28.2768 96.1058C29.2459 92.4816 30.4285 88.9206 31.8182 85.4442L25.904 82.9943C25.5143 83.9769 25.1277 84.9785 24.749 86.0099C24.3298 87.1495 23.9352 88.2818 23.5769 89.4036L23.4685 89.7437L21.0178 88.9716L21.1293 88.628C21.5621 87.295 22.0183 85.9805 22.4975 84.6837C22.9783 83.3839 23.4874 82.0894 24.0244 80.7995C24.5517 79.5171 25.1065 78.251 25.6821 77.0018C26.2612 75.7485 26.8644 74.5062 27.4872 73.2763L27.6501 72.9551L29.9315 74.1275L29.7671 74.4453C29.2186 75.5063 28.6948 76.5857 28.1914 77.6734C27.7374 78.6527 27.2998 79.6411 26.8753 80.6309L32.7918 83.0808C34.2813 79.6267 35.973 76.2584 37.8613 72.994C39.7352 69.7546 41.803 66.618 44.0601 63.6011L39.0054 59.709C38.3519 60.5802 37.7116 61.454 37.0922 62.3263C36.3907 63.3135 35.7115 64.3022 35.0614 65.2902L34.8668 65.5869L32.723 64.1968L32.9192 63.8967C33.6637 62.7606 34.4435 61.6154 35.2583 60.4649C36.0637 59.3284 36.8869 58.2127 37.7279 57.126C38.5616 56.0296 39.4253 54.946 40.3146 53.8764C41.2069 52.8019 42.1136 51.7542 43.0313 50.7341L43.2717 50.4673L45.1709 52.1911L44.9313 52.4557C44.1338 53.3378 43.3518 54.2457 42.5838 55.1705C41.894 56.0013 41.2175 56.8433 40.5523 57.6911L45.6237 61.5734C46.747 60.1572 47.9092 58.7633 49.1107 57.4004C50.3968 55.9446 51.7272 54.5216 53.1079 53.1413C54.4874 51.7531 55.9055 50.4253 57.3538 49.1516C58.7095 47.9596 60.1076 46.8011 61.54 45.6729L57.6426 40.6016C56.8107 41.2547 55.972 41.9263 55.1205 42.6297C54.1957 43.3939 53.2874 44.171 52.4057 44.9662L52.1422 45.2047L50.4346 43.3206L50.7003 43.0813C51.7322 42.1534 52.7779 41.2433 53.8392 40.3574C54.8979 39.4738 55.9807 38.6064 57.0889 37.7613C58.177 36.9207 59.2886 36.0983 60.4228 35.2955C61.5638 34.4882 62.7109 33.7119 63.866 32.9677L64.1645 32.7753L65.5577 34.9194L65.2557 35.1141C64.2465 35.7653 63.2593 36.4392 62.2869 37.1282C61.4009 37.7563 60.5313 38.394 59.6707 39.0391L63.5519 44.1071C66.58 41.842 69.7291 39.7644 72.9825 37.8826C76.2348 36.0015 79.5903 34.3177 83.0304 32.8411L80.5809 26.9276C79.5982 27.3471 78.6137 27.7844 77.628 28.2414C76.5327 28.749 75.454 29.2728 74.3942 29.8167L74.0741 29.9811L72.927 27.7009L73.243 27.5384C74.4887 26.9 75.7405 26.2881 76.9949 25.708C78.235 25.1335 79.4935 24.5824 80.7669 24.0563C82.064 23.5234 83.3592 23.0154 84.6469 22.54C85.9376 22.0637 87.2484 21.6087 88.5791 21.1824L88.9182 21.0739L89.7085 23.4996L89.3687 23.6107C88.2288 23.9837 87.0885 24.3798 85.9486 24.7971C84.9413 25.166 83.939 25.5515 82.9442 25.9529L85.3941 31.8678C88.8838 30.4762 92.4509 29.2917 96.0811 28.3215C99.7023 27.3536 103.393 26.5962 107.138 26.0557L106.306 19.6966C105.24 19.8493 104.172 20.0186 103.104 20.2046C101.915 20.4125 100.736 20.6392 99.5696 20.8849L99.2212 20.9582L98.6886 18.4596L99.039 18.3851C100.394 18.0975 101.756 17.8329 103.125 17.5971C104.478 17.3639 105.847 17.1557 107.235 16.978C108.604 16.7947 109.984 16.6435 111.369 16.5203C112.758 16.3967 114.14 16.3011 115.512 16.23L115.872 16.2119L115.979 18.7555L115.625 18.774C114.426 18.8364 113.232 18.9241 112.048 19.0299C110.996 19.1244 109.92 19.2382 108.829 19.3655L109.675 25.7265C111.463 25.5137 113.268 25.3478 115.088 25.2336C117.03 25.1119 118.977 25.0481 120.927 25.0481C122.869 25.0481 124.81 25.1119 126.751 25.2336C128.571 25.3478 130.38 25.5137 132.177 25.7265L133.006 19.3655C131.914 19.2378 130.84 19.1244 129.791 19.0299C128.609 18.9241 127.416 18.8364 126.21 18.774L125.853 18.7555L125.984 16.2119L126.341 16.23C127.713 16.3011 129.095 16.3967 130.484 16.5203C131.868 16.6435 133.246 16.7947 134.613 16.9776C136.001 17.1557 137.371 17.3635 138.722 17.5971C140.089 17.8329 141.448 18.0975 142.793 18.3851L143.142 18.46L142.617 20.9586L142.268 20.8849C141.109 20.6411 139.94 20.4159 138.763 20.2099C137.684 20.0213 136.611 19.8505 135.546 19.6966L134.698 26.0398C138.438 26.5791 142.125 27.3392 145.741 28.3083C149.38 29.2834 152.954 30.4732 156.443 31.8678L158.892 25.9525C157.892 25.5488 156.887 25.1607 155.876 24.7899C154.747 24.3749 153.615 23.9815 152.479 23.6107L152.142 23.5007L152.918 21.0709L153.259 21.1824C154.603 21.6215 155.937 22.0834 157.252 22.5672C158.523 23.0351 159.797 23.5313 161.068 24.0563C162.352 24.5858 163.62 25.1422 164.871 25.7204C166.137 26.3059 167.383 26.9125 168.61 27.5373L168.93 27.7002L167.757 29.9811L167.44 29.8167C166.38 29.2683 165.301 28.7441 164.212 28.2414C163.223 27.7841 162.235 27.3475 161.251 26.9276L158.805 32.8407C162.246 34.3181 165.603 36.0023 168.856 37.8841C172.109 39.7655 175.257 41.8431 178.284 44.1075L182.176 39.0391C181.295 38.3766 180.421 37.7374 179.561 37.1282C178.591 36.443 177.603 35.7687 176.596 35.1126L176.297 34.9175L177.689 32.7745L177.989 32.9692C179.127 33.7092 180.263 34.4814 181.39 35.2792C182.542 36.0945 183.667 36.9237 184.759 37.7613C185.857 38.6037 186.941 39.4715 188.008 40.362C189.056 41.2358 190.099 42.1429 191.137 43.0825L191.401 43.3221L189.695 45.2047L189.431 44.9662C188.549 44.171 187.64 43.3939 186.715 42.6297C185.864 41.9267 185.026 41.2554 184.196 40.6027L180.313 45.6737C181.72 46.7902 183.113 47.9471 184.483 49.1516C185.941 50.4317 187.365 51.7591 188.745 53.1398C190.126 54.5208 191.453 55.9442 192.733 57.4004C193.923 58.7543 195.081 60.1489 196.212 61.5742L201.283 57.6915C200.616 56.8437 199.939 56.0013 199.249 55.1705C198.482 54.2457 197.701 53.3374 196.904 52.4557L196.665 52.1911L198.564 50.4673L198.804 50.7341C199.721 51.7538 200.628 52.8015 201.524 53.8764C202.415 54.946 203.284 56.0296 204.126 57.126C204.975 58.224 205.793 59.3386 206.586 60.4649ZM198.425 43.4615C218.261 63.2976 230.533 90.6996 230.533 120.961C230.533 151.222 218.261 178.623 198.425 198.459C178.589 218.295 151.187 230.566 120.927 230.566C90.6666 230.566 63.2639 218.295 43.4282 198.459C23.5921 178.623 11.3203 151.222 11.3203 120.961C11.3203 90.6996 23.5921 63.2976 43.4278 43.4615C63.2639 23.6254 90.6658 11.3537 120.927 11.3537C151.187 11.3537 178.589 23.6254 198.425 43.4615ZM206.753 69.9436L212.965 66.3515C210.8 62.7005 208.421 59.1878 205.845 55.8297C203.256 52.4545 200.469 49.2382 197.502 46.1938L192.452 51.2493C193.184 52.0006 193.904 52.7588 194.608 53.5223C195.391 54.3711 196.167 55.2385 196.93 56.1237L197.166 56.3977L195.198 58.0532L194.969 57.7814C194.143 56.8037 193.295 55.8474 192.428 54.9094C191.557 53.966 190.668 53.0415 189.768 52.1348C188.859 51.2338 187.931 50.3407 186.983 49.4627C186.042 48.5892 185.082 47.7328 184.104 46.9005L183.833 46.6704L185.47 44.7205L185.745 44.9522C186.618 45.6915 187.491 46.4697 188.359 47.2732C189.149 48.0038 189.902 48.7249 190.624 49.4339L195.691 44.3849C192.65 41.4195 189.437 38.6355 186.067 36.0472C182.709 33.4685 179.193 31.0828 175.535 28.9058L171.959 35.1341C172.835 35.6546 173.722 36.1916 174.628 36.7589C175.62 37.3803 176.598 38.0171 177.553 38.6767L177.846 38.8792L176.406 40.9784L176.112 40.7762C175.044 40.0445 173.972 39.3385 172.895 38.6574C171.814 37.9744 170.719 37.3115 169.608 36.6682C168.474 36.0185 167.347 35.3994 166.225 34.8113C165.095 34.2187 163.945 33.6438 162.772 33.0864L162.451 32.9337L163.532 30.63L163.855 30.7812C164.913 31.2771 165.956 31.7968 166.987 32.3357C167.919 32.8222 168.84 33.3237 169.75 33.8355L173.323 27.6386C169.645 25.5689 165.827 23.709 161.89 22.0755C157.99 20.4571 153.976 19.0613 149.867 17.9051L148.014 24.8239C149.024 25.1074 150.025 25.4033 151.014 25.7125C152.128 26.061 153.232 26.4287 154.321 26.8176L154.657 26.9382L153.798 29.3461L153.462 29.2271C152.251 28.7977 151.037 28.3933 149.818 28.0154C148.605 27.6385 147.37 27.2818 146.116 26.9465C144.868 26.6101 143.619 26.2987 142.374 26.0152C141.12 25.7291 139.859 25.4668 138.594 25.2302L138.244 25.1652L138.707 22.6651L139.057 22.7286C140.212 22.938 141.351 23.1742 142.479 23.4285C143.518 23.6629 144.535 23.9089 145.537 24.1618L147.39 17.2214C143.336 16.1885 139.188 15.3906 134.963 14.8392C130.781 14.2934 126.524 13.9884 122.206 13.9351V21.0728C123.252 21.0898 124.297 21.1174 125.334 21.1601C126.51 21.2084 127.676 21.2765 128.821 21.3691L129.177 21.3982L128.974 23.9614L128.618 23.9327C127.32 23.8284 126.034 23.7479 124.765 23.6946C123.499 23.6409 122.214 23.6126 120.91 23.6126C119.607 23.6126 118.325 23.6409 117.064 23.6946C115.801 23.7479 114.523 23.8284 113.231 23.9327L112.878 23.9614L112.657 21.3982L113.017 21.3691C114.169 21.2765 115.334 21.2084 116.511 21.1601C117.548 21.1174 118.593 21.0898 119.643 21.0728V13.9351C115.32 13.9884 111.058 14.2934 106.873 14.8392C102.646 15.3906 98.4959 16.1881 94.4416 17.2214L96.3098 24.1761C97.3193 23.9138 98.3371 23.6678 99.3584 23.4372C100.491 23.1817 101.63 22.9455 102.772 22.7286L103.124 22.6617L103.59 25.1826L103.24 25.2484C101.995 25.4823 100.752 25.7412 99.5148 26.0209C98.2525 26.3063 96.9912 26.6162 95.7361 26.9465C94.5039 27.2829 93.2711 27.6431 92.0329 28.0297C90.8057 28.4122 89.5872 28.817 88.3754 29.2448L88.0398 29.3639L87.18 26.9537L87.5163 26.8331C88.6049 26.4446 89.713 26.0772 90.831 25.7288C91.8227 25.4196 92.8281 25.1237 93.8387 24.8394L91.986 17.9051C87.878 19.059 83.8729 20.4506 79.9807 22.0641C76.0338 23.7003 72.207 25.5643 68.5114 27.6382L72.1012 33.8358C72.9946 33.3358 73.9108 32.8388 74.8489 32.3478C75.8966 31.7994 76.9412 31.2748 77.9776 30.7812L78.3038 30.6263L79.3847 32.9465L79.0627 33.0988C77.8974 33.6503 76.7492 34.2229 75.6214 34.8144C74.4955 35.4047 73.3737 36.0231 72.2591 36.6671C71.1495 37.3107 70.05 37.9778 68.9642 38.6634C67.8688 39.3547 66.7924 40.0607 65.7395 40.7762L65.4473 40.975L63.9877 38.8781L64.287 38.6751C65.2625 38.0141 66.2406 37.3791 67.2184 36.7654C68.1092 36.206 69.0012 35.6625 69.8913 35.1337L66.3019 28.9047C62.6376 31.0847 59.1174 33.4726 55.7604 36.0529C52.3962 38.6389 49.1908 41.4213 46.1626 44.3841L51.2128 49.4347C51.9631 48.7034 52.719 47.9792 53.4802 47.2732C54.3362 46.4791 55.2048 45.7017 56.0888 44.9522L56.3602 44.7228L58.0171 46.67L57.7465 46.9005C56.7801 47.7248 55.825 48.5737 54.8858 49.4415C53.9356 50.3195 53.0059 51.2133 52.1003 52.1178C51.1803 53.029 50.2888 53.9569 49.424 54.8954C48.549 55.844 47.6971 56.8093 46.8668 57.7822L46.6374 58.0516L44.6694 56.3977L44.9052 56.1237C45.6675 55.2397 46.4476 54.3719 47.2375 53.5211C47.9458 52.7569 48.67 51.9995 49.4017 51.2493L44.3511 46.1938C41.3842 49.2367 38.5964 52.4527 36.0067 55.8263C33.4298 59.1825 31.046 62.6963 28.8732 66.3522L35.0837 69.9288C35.6178 69.0308 36.1575 68.1373 36.7085 67.2556C37.3246 66.2695 37.9599 65.2883 38.6251 64.3177L38.8292 64.0207L40.9299 65.4811L40.7266 65.774C39.9982 66.8258 39.2922 67.8973 38.6066 68.9851C37.9236 70.0687 37.2607 71.1681 36.6171 72.2804C35.981 73.4026 35.3623 74.5296 34.7689 75.6605C34.1717 76.7992 33.5957 77.9486 33.0492 79.1116L32.8965 79.437L30.5781 78.3345L30.7327 78.0113C31.2369 76.9614 31.7604 75.922 32.2982 74.8944C32.7839 73.9657 33.2816 73.0462 33.7877 72.1364L27.5904 68.5636C25.517 72.2445 23.6544 76.0653 22.0213 80.0047C20.4055 83.9014 19.0151 87.9129 17.8657 92.0186L24.7902 93.8729C25.0736 92.863 25.3692 91.8618 25.6787 90.8731C26.0272 89.7589 26.395 88.6549 26.7839 87.5667L26.9041 87.2304L29.315 88.0894L29.1956 88.4251C28.7711 89.6186 28.369 90.8243 27.9907 92.0375C27.6078 93.2655 27.2476 94.5052 26.9094 95.754C26.5734 97.0084 26.2646 98.2586 25.9819 99.5029C25.6969 100.758 25.4357 102.017 25.1987 103.277L25.1337 103.625L22.6116 103.184L22.6789 102.828C22.8978 101.672 23.1366 100.517 23.3944 99.3694C23.6212 98.3603 23.8646 97.3516 24.1235 96.3477L17.1722 94.4942C16.1419 98.5391 15.3489 102.676 14.8024 106.887C14.2574 111.08 13.955 115.35 13.9014 119.681H21.0367C21.0477 118.628 21.0745 117.584 21.1172 116.547C21.1656 115.372 21.2333 114.214 21.3194 113.069L21.3466 112.71L23.908 112.913L23.8797 113.269C23.7769 114.558 23.6968 115.843 23.6461 117.115C23.5943 118.405 23.5698 119.696 23.5777 120.976C23.5792 122.282 23.603 123.564 23.6522 124.823C23.7013 126.087 23.7769 127.364 23.8797 128.656L23.908 129.013L21.3466 129.211L21.3194 128.854C21.2333 127.709 21.1656 126.55 21.1172 125.375C21.0745 124.338 21.0477 123.295 21.0367 122.244H13.9014C13.955 126.573 14.2578 130.842 14.802 135.036C15.3493 139.252 16.1415 143.393 17.1718 147.444L24.1246 145.576C23.8736 144.579 23.6283 143.564 23.3951 142.527C23.1408 141.398 22.9046 140.259 22.6952 139.112L22.6313 138.762L25.133 138.298L25.1987 138.648C25.438 139.918 25.7018 141.188 25.9898 142.451C26.2699 143.68 26.5764 144.914 26.9094 146.148C27.2465 147.406 27.604 148.641 27.9816 149.856C28.3603 151.076 28.7647 152.294 29.1956 153.513L29.315 153.851L26.9025 154.686L26.7839 154.354C26.395 153.265 26.0272 152.161 25.6787 151.047C25.3692 150.058 25.0736 149.057 24.7902 148.047L17.8653 149.902C19.0154 154.018 20.4074 158.037 22.0266 161.94C23.6612 165.879 25.5257 169.697 27.6052 173.377L33.8017 169.785C33.2903 168.877 32.7892 167.96 32.302 167.032C31.763 166.004 31.2433 164.964 30.7475 163.906L30.5967 163.583L32.8969 162.502L33.0492 162.824C33.5953 163.977 34.1713 165.124 34.7689 166.26C35.3626 167.388 35.9821 168.511 36.6186 169.625C37.2603 170.735 37.9255 171.833 38.6111 172.917C39.3017 174.009 40.0134 175.087 40.7428 176.146L40.9465 176.442L38.8474 177.879L38.644 177.589C37.9728 176.628 37.3333 175.652 36.7168 174.672C36.1563 173.78 35.6144 172.885 35.0841 171.992L28.8736 175.584C31.0566 179.252 33.4487 182.778 36.032 186.14C38.6108 189.496 41.3895 192.7 44.3504 195.726L49.4002 190.676C48.6624 189.925 47.939 189.169 47.2315 188.406C46.4416 187.556 45.6649 186.688 44.9041 185.8L44.6701 185.527L46.6385 183.871L46.8683 184.143C47.6911 185.116 48.5354 186.072 49.3979 187.007C50.2717 187.956 51.1633 188.883 52.0682 189.786C52.976 190.697 53.9043 191.59 54.8533 192.464C55.7967 193.334 56.7612 194.186 57.7454 195.02L58.019 195.251L56.3606 197.198L56.0888 196.968C55.2048 196.218 54.3362 195.441 53.4802 194.647C52.7186 193.941 51.9627 193.217 51.2128 192.485L46.1626 197.536C49.1927 200.501 52.4 203.286 55.7672 205.874C59.1219 208.453 62.6399 210.839 66.3015 213.015L69.8901 206.803C68.9815 206.267 68.085 205.723 67.2063 205.172C66.2161 204.551 65.2402 203.915 64.2855 203.261L63.9903 203.059L65.4273 200.96L65.7217 201.16C66.7781 201.878 67.8541 202.583 68.9494 203.272C70.0281 203.95 71.1272 204.612 72.2452 205.252C73.3609 205.899 74.486 206.518 75.6169 207.11C76.7587 207.709 77.9095 208.285 79.0642 208.84L79.3836 208.994L78.3034 211.312L77.9776 211.157C76.9412 210.662 75.8966 210.137 74.8474 209.587C73.9153 209.098 72.9943 208.597 72.0857 208.086L68.5102 214.282C72.2043 216.358 76.0304 218.222 79.9758 219.859C83.8695 221.474 87.8765 222.866 91.9864 224.021L93.8387 217.096C92.8281 216.813 91.8227 216.517 90.831 216.208C89.713 215.859 88.6049 215.492 87.5163 215.103L87.1796 214.982L88.0394 212.574L88.3754 212.693C89.5943 213.122 90.8121 213.527 92.0295 213.905C93.2423 214.282 94.4729 214.638 95.7217 214.973C96.9708 215.31 98.2207 215.625 99.4683 215.911C100.733 216.201 101.99 216.463 103.237 216.69L103.59 216.754L103.124 219.276L102.772 219.21C101.631 218.993 100.494 218.756 99.3625 218.501C98.3447 218.272 97.3265 218.026 96.3098 217.764L94.442 224.699C98.4959 225.732 102.645 226.529 106.872 227.081C111.056 227.626 115.32 227.932 119.643 227.985V220.85C118.593 220.839 117.549 220.812 116.511 220.768C115.332 220.718 114.167 220.646 113.015 220.551L112.657 220.521L112.878 217.979L113.231 218.007C114.523 218.11 115.803 218.186 117.073 218.237C118.361 218.289 119.647 218.317 120.927 218.325C122.23 218.323 123.514 218.296 124.778 218.243C126.045 218.19 127.326 218.11 128.618 218.007L128.974 217.979L129.178 220.521L128.822 220.551C127.678 220.646 126.513 220.718 125.334 220.768C124.296 220.812 123.251 220.839 122.206 220.85V227.985C126.524 227.932 130.782 227.627 134.965 227.081C139.189 226.529 143.337 225.732 147.39 224.699L145.537 217.763C144.529 218.015 143.511 218.26 142.479 218.492C141.351 218.746 140.212 218.982 139.057 219.191L138.707 219.255L138.244 216.737L138.597 216.674C139.848 216.447 141.104 216.191 142.359 215.908C143.605 215.627 144.858 215.314 146.114 214.973C147.375 214.635 148.621 214.274 149.849 213.894C151.057 213.519 152.263 213.118 153.462 212.693L153.798 212.574L154.657 214.982L154.321 215.103C153.232 215.492 152.128 215.859 151.011 216.208C150.026 216.516 149.02 216.811 147.997 217.096L149.866 224.021C153.976 222.864 157.993 221.467 161.895 219.848C165.83 218.213 169.647 216.353 173.323 214.282L169.749 208.084C168.837 208.59 167.918 209.091 166.987 209.579C165.957 210.119 164.913 210.643 163.855 211.139L163.532 211.29L162.451 208.994L162.771 208.84C163.914 208.291 165.06 207.715 166.21 207.11C167.341 206.516 168.468 205.897 169.592 205.252C170.703 204.61 171.802 203.948 172.884 203.265C173.972 202.579 175.043 201.872 176.095 201.144L176.388 200.941L177.847 203.039L177.553 203.243C176.583 203.915 175.607 204.552 174.626 205.163C173.756 205.706 172.857 206.247 171.941 206.787L175.534 213.015C179.189 210.841 182.703 208.457 186.06 205.879C189.433 203.289 192.648 200.502 195.691 197.535L190.638 192.485C189.886 193.218 189.126 193.942 188.361 194.649C187.502 195.442 186.631 196.218 185.745 196.968L185.471 197.199L183.834 195.25L184.103 195.021C185.09 194.18 186.046 193.329 186.976 192.468C187.906 191.608 188.831 190.718 189.752 189.803C190.648 188.906 191.521 187.994 192.369 187.075C193.257 186.111 194.126 185.131 194.97 184.142L195.2 183.872L197.164 185.526L196.933 185.799C196.184 186.683 195.407 187.55 194.613 188.406C193.906 189.168 193.183 189.924 192.452 190.675L197.503 195.726C200.46 192.702 203.238 189.498 205.818 186.136C208.404 182.768 210.792 179.242 212.965 175.585L206.753 171.993C206.213 172.91 205.672 173.809 205.128 174.679C204.515 175.658 203.879 176.634 203.209 177.603L203.004 177.898L200.908 176.439L201.11 176.146C201.836 175.095 202.542 174.023 203.228 172.935C203.911 171.852 204.575 170.752 205.22 169.64C205.864 168.526 206.483 167.4 207.076 166.269C207.674 165.128 208.249 163.977 208.802 162.822L208.954 162.503L211.257 163.583L211.106 163.906C210.609 164.964 210.089 166.008 209.55 167.038C209.064 167.967 208.563 168.883 208.052 169.785L214.247 173.376C216.322 169.687 218.185 165.861 219.818 161.917C221.431 158.022 222.82 154.011 223.967 149.902L217.063 148.048C216.78 149.058 216.483 150.063 216.173 151.055C215.828 152.158 215.459 153.265 215.063 154.37L214.943 154.705L212.52 153.848L212.643 153.51C213.078 152.307 213.486 151.09 213.869 149.863C214.249 148.642 214.606 147.408 214.94 146.166C215.278 144.912 215.59 143.653 215.873 142.398C216.156 141.144 216.413 139.892 216.638 138.651L216.702 138.298L219.216 138.761L219.153 139.111C218.945 140.262 218.71 141.401 218.457 142.527C218.23 143.536 217.983 144.554 217.724 145.576L224.66 147.444C225.697 143.376 226.496 139.217 227.046 134.986C227.589 130.808 227.889 126.555 227.934 122.244H220.799C220.788 123.295 220.764 124.339 220.723 125.375C220.676 126.55 220.607 127.711 220.512 128.856L220.482 129.211L217.941 129.013L217.968 128.657C218.065 127.366 218.143 126.082 218.194 124.814C218.246 123.549 218.274 122.265 218.274 120.961C218.274 119.677 218.247 118.412 218.195 117.167C218.141 115.879 218.059 114.578 217.952 113.269L217.923 112.913L220.482 112.71L220.512 113.066C220.607 114.211 220.676 115.372 220.723 116.547C220.764 117.583 220.788 118.628 220.799 119.681H227.934C227.889 115.369 227.589 111.116 227.046 106.939C226.496 102.709 225.696 98.5542 224.66 94.4942L217.711 96.3473C217.971 97.3489 218.215 98.3599 218.443 99.377C218.7 100.522 218.937 101.675 219.153 102.828L219.22 103.184L216.704 103.625L216.638 103.277C216.403 102.023 216.14 100.768 215.852 99.5127C215.568 98.2673 215.257 97.0205 214.922 95.7717C214.582 94.5056 214.219 93.2511 213.836 92.0175C213.464 90.8156 213.065 89.616 212.642 88.4251L212.522 88.0891L214.931 87.23L215.052 87.5667C215.44 88.6549 215.808 89.7592 216.157 90.8731C216.467 91.8618 216.763 92.863 217.046 93.8729L223.966 92.0186C222.819 87.916 221.43 83.9078 219.816 80.0137C218.182 76.0709 216.319 72.2476 214.246 68.5636L208.035 72.1357C208.552 73.0537 209.053 73.9733 209.536 74.8932C210.07 75.9103 210.594 76.9497 211.104 78.0113L211.259 78.3345L208.941 79.4366L208.788 79.1131C208.242 77.9584 207.666 76.8132 207.068 75.6779C206.468 74.5376 205.849 73.4147 205.218 72.3099C204.581 71.201 203.913 70.0978 203.222 69.0032C202.539 67.9215 201.833 66.8496 201.109 65.7891L200.909 65.4958L203.007 64.038L203.21 64.3359C203.862 65.2902 204.498 66.2672 205.12 67.2578C205.672 68.1377 206.216 69.035 206.753 69.9436ZM207.192 156.695C211.829 145.497 214.274 133.386 214.274 120.961C214.274 108.542 211.828 96.4297 207.19 85.2287C202.551 74.0273 195.715 63.733 186.935 54.9517C178.148 46.1703 167.851 39.3343 156.648 34.6938C145.45 30.0559 133.343 27.611 120.927 27.611C108.501 27.611 96.3892 30.0559 85.1912 34.6938C73.9898 39.3335 63.6981 46.1703 54.9179 54.9517C46.132 63.7296 39.2926 74.0236 34.6498 85.2265C30.0074 96.4282 27.5609 108.542 27.5609 120.961C27.5609 133.386 30.0071 145.499 34.6483 156.697C39.2911 167.9 46.1309 178.191 54.9164 186.968C63.6951 195.756 73.9849 202.596 85.1878 207.238C96.3873 211.88 108.501 214.325 120.927 214.325C133.339 214.325 145.442 211.877 156.637 207.238C167.845 202.593 178.146 195.75 186.936 186.969C195.716 178.188 202.552 167.896 207.192 156.695Z" fill="#373435"/>
</svg>
