<svg width="2113" height="905" viewBox="0 0 2113 905" fill="none" xmlns="http://www.w3.org/2000/svg">
<path d="M507.072 493.295V316.289L673.896 472.9V902.095L173.426 411.53V779.456H6.60352V2.86377L507.072 493.295Z" fill="#201E1E"/>
<path d="M724.052 493.294L473.826 248.02V2.88354L807.461 329.778L1015.99 125.377H1266.07L890.871 493.294V738.568L724.052 820.337V493.294Z" fill="#201E1E"/>
<path d="M1241.53 452.398L1099.22 312.903L1224.84 190.881C1787.69 742.362 1285.83 250.532 1700.3 656.804V902.097L1366.66 575.044L1158.12 779.451H907.877L1241.53 452.398Z" fill="#201E1E"/>
<path d="M1314.03 248.005V2.85059L1647.69 329.766L1856.21 125.358H2106.31L1772.8 452.402L1981.33 656.808V902.101C1419.95 351.805 1727.34 653.12 1314.03 248.005Z" fill="#201E1E"/>
<path d="M503.634 493.545V315.42L671.512 473.02V904.93L167.878 411.263V781.515H0.000244141V0.0131836L503.634 493.545Z" fill="#201E1E"/>
<path d="M721.963 493.545L470.155 246.72V0.0332031L805.9 328.995L1015.75 123.302H1267.41L889.836 493.545V740.37L721.963 822.656V493.545Z" fill="#201E1E"/>
<path d="M1242.74 452.392L1099.53 312.015L1225.94 189.22C1792.35 744.189 1287.31 249.249 1704.41 658.09V904.933L1368.65 575.812L1158.8 781.512H906.975L1242.74 452.392Z" fill="#201E1E"/>
<path d="M1315.71 246.704V0L1651.48 328.981L1861.32 123.282H2113.01L1777.38 452.394L1987.24 658.092V904.935C1422.3 351.161 1731.64 654.381 1315.71 246.704Z" fill="#201E1E"/>
</svg>
