<svg width="2121" height="1096" viewBox="0 0 2121 1096" fill="none" xmlns="http://www.w3.org/2000/svg">
<g clip-path="url(#clip0_7836_69)">
<path d="M514.595 493.293V316.287L681.419 472.898V902.093L180.949 411.528V779.454H14.1265V2.86157L514.595 493.293Z" fill="#201E1E"/>
<path d="M731.575 493.292L481.349 248.017V2.88135L814.984 329.776L1023.51 125.375H1273.6L898.393 493.292V738.566L731.575 820.335V493.292Z" fill="#201E1E"/>
<path d="M1249.06 452.396L1106.75 312.901L1232.36 190.878C1795.21 742.36 1293.35 250.53 1707.82 656.802V902.095L1374.18 575.042L1165.65 779.448H915.4L1249.06 452.396Z" fill="#201E1E"/>
<path d="M1321.55 248.002V2.84839L1655.21 329.764L1863.73 125.356H2113.84L1780.32 452.4L1988.85 656.806V902.098C1427.47 351.802 1734.87 653.118 1321.55 248.002Z" fill="#201E1E"/>
<path d="M99.7199 932.869V1041.96H86.9353L27.4869 956.307H26.4215V1041.96H13.2108V932.869H25.9954L85.6569 1018.74H86.7223V932.869H99.7199ZM139.366 932.869V1041.96H126.155V932.869H139.366ZM253.641 966.961H240.431C239.649 963.161 238.282 959.823 236.329 956.947C234.411 954.07 232.067 951.655 229.297 949.702C226.563 947.713 223.526 946.222 220.188 945.227C216.85 944.233 213.37 943.736 209.747 943.736C203.142 943.736 197.158 945.405 191.796 948.743C186.469 952.081 182.225 957 179.064 963.499C175.939 969.998 174.377 977.97 174.377 987.417C174.377 996.863 175.939 1004.84 179.064 1011.33C182.225 1017.83 186.469 1022.75 191.796 1026.09C197.158 1029.43 203.142 1031.1 209.747 1031.1C213.37 1031.1 216.85 1030.6 220.188 1029.61C223.526 1028.61 226.563 1027.14 229.297 1025.18C232.067 1023.2 234.411 1020.76 236.329 1017.89C238.282 1014.97 239.649 1011.64 240.431 1007.87H253.641C252.647 1013.45 250.836 1018.44 248.208 1022.84C245.58 1027.24 242.313 1030.99 238.406 1034.08C234.5 1037.13 230.114 1039.46 225.249 1041.06C220.419 1042.66 215.252 1043.46 209.747 1043.46C200.443 1043.46 192.169 1041.18 184.924 1036.64C177.679 1032.09 171.98 1025.63 167.825 1017.25C163.67 1008.87 161.592 998.923 161.592 987.417C161.592 975.911 163.67 965.967 167.825 957.586C171.98 949.205 177.679 942.742 184.924 938.196C192.169 933.65 200.443 931.377 209.747 931.377C215.252 931.377 220.419 932.177 225.249 933.775C230.114 935.373 234.5 937.717 238.406 940.806C242.313 943.86 245.58 947.589 248.208 951.993C250.836 956.361 252.647 961.35 253.641 966.961ZM367.038 987.417C367.038 998.923 364.961 1008.87 360.806 1017.25C356.651 1025.63 350.951 1032.09 343.706 1036.64C336.462 1041.18 328.187 1043.46 318.883 1043.46C309.578 1043.46 301.304 1041.18 294.059 1036.64C286.815 1032.09 281.115 1025.63 276.96 1017.25C272.805 1008.87 270.727 998.923 270.727 987.417C270.727 975.911 272.805 965.967 276.96 957.586C281.115 949.205 286.815 942.742 294.059 938.196C301.304 933.65 309.578 931.377 318.883 931.377C328.187 931.377 336.462 933.65 343.706 938.196C350.951 942.742 356.651 949.205 360.806 957.586C364.961 965.967 367.038 975.911 367.038 987.417ZM354.253 987.417C354.253 977.97 352.673 969.998 349.513 963.499C346.387 957 342.144 952.081 336.781 948.743C331.454 945.405 325.488 943.736 318.883 943.736C312.277 943.736 306.293 945.405 300.931 948.743C295.604 952.081 291.36 957 288.2 963.499C285.075 969.998 283.512 977.97 283.512 987.417C283.512 996.863 285.075 1004.84 288.2 1011.33C291.36 1017.83 295.604 1022.75 300.931 1026.09C306.293 1029.43 312.277 1031.1 318.883 1031.1C325.488 1031.1 331.454 1029.43 336.781 1026.09C342.144 1022.75 346.387 1017.83 349.513 1011.33C352.673 1004.84 354.253 996.863 354.253 987.417ZM378.744 944.588V932.869H460.565V944.588H426.26V1041.96H413.049V944.588H378.744ZM494.165 932.869V1041.96H480.954V932.869H494.165ZM607.162 932.869V1041.96H594.378L534.929 956.307H533.864V1041.96H520.653V932.869H533.438L593.099 1018.74H594.165V932.869H607.162ZM633.597 1041.96V932.869H699.438V944.588H646.808V981.451H696.029V993.17H646.808V1030.25H700.29V1041.96H633.597ZM759.472 944.588V932.869H841.294V944.588H806.988V1041.96H793.778V944.588H759.472ZM861.683 1041.96V932.869H927.523V944.588H874.893V981.451H924.114V993.17H874.893V1030.25H928.376V1041.96H861.683ZM1039.12 966.961H1025.91C1025.13 963.161 1023.76 959.823 1021.81 956.947C1019.89 954.07 1017.55 951.655 1014.78 949.702C1012.04 947.713 1009.01 946.222 1005.67 945.227C1002.33 944.233 998.851 943.736 995.228 943.736C988.623 943.736 982.639 945.405 977.277 948.743C971.95 952.081 967.706 957 964.545 963.499C961.42 969.998 959.858 977.97 959.858 987.417C959.858 996.863 961.42 1004.84 964.545 1011.33C967.706 1017.83 971.95 1022.75 977.277 1026.09C982.639 1029.43 988.623 1031.1 995.228 1031.1C998.851 1031.1 1002.33 1030.6 1005.67 1029.61C1009.01 1028.61 1012.04 1027.14 1014.78 1025.18C1017.55 1023.2 1019.89 1020.76 1021.81 1017.89C1023.76 1014.97 1025.13 1011.64 1025.91 1007.87H1039.12C1038.13 1013.45 1036.32 1018.44 1033.69 1022.84C1031.06 1027.24 1027.79 1030.99 1023.89 1034.08C1019.98 1037.13 1015.6 1039.46 1010.73 1041.06C1005.9 1042.66 1000.73 1043.46 995.228 1043.46C985.924 1043.46 977.65 1041.18 970.405 1036.64C963.16 1032.09 957.461 1025.63 953.306 1017.25C949.151 1008.87 947.073 998.923 947.073 987.417C947.073 975.911 949.151 965.967 953.306 957.586C957.461 949.205 963.16 942.742 970.405 938.196C977.65 933.65 985.924 931.377 995.228 931.377C1000.73 931.377 1005.9 932.177 1010.73 933.775C1015.6 935.373 1019.98 937.717 1023.89 940.806C1027.79 943.86 1031.06 947.589 1033.69 951.993C1036.32 956.361 1038.13 961.35 1039.12 966.961ZM1060.47 1041.96V932.869H1073.68V981.451H1131.85V932.869H1145.06V1041.96H1131.85V993.17H1073.68V1041.96H1060.47ZM1258.02 932.869V1041.96H1245.23L1185.79 956.307H1184.72V1041.96H1171.51V932.869H1184.29L1243.96 1018.74H1245.02V932.869H1258.02ZM1376.5 987.417C1376.5 998.923 1374.43 1008.87 1370.27 1017.25C1366.12 1025.63 1360.42 1032.09 1353.17 1036.64C1345.93 1041.18 1337.65 1043.46 1328.35 1043.46C1319.04 1043.46 1310.77 1041.18 1303.52 1036.64C1296.28 1032.09 1290.58 1025.63 1286.42 1017.25C1282.27 1008.87 1280.19 998.923 1280.19 987.417C1280.19 975.911 1282.27 965.967 1286.42 957.586C1290.58 949.205 1296.28 942.742 1303.52 938.196C1310.77 933.65 1319.04 931.377 1328.35 931.377C1337.65 931.377 1345.93 933.65 1353.17 938.196C1360.42 942.742 1366.12 949.205 1370.27 957.586C1374.43 965.967 1376.5 975.911 1376.5 987.417ZM1363.72 987.417C1363.72 977.97 1362.14 969.998 1358.98 963.499C1355.85 957 1351.61 952.081 1346.25 948.743C1340.92 945.405 1334.95 943.736 1328.35 943.736C1321.74 943.736 1315.76 945.405 1310.4 948.743C1305.07 952.081 1300.82 957 1297.66 963.499C1294.54 969.998 1292.98 977.97 1292.98 987.417C1292.98 996.863 1294.54 1004.84 1297.66 1011.33C1300.82 1017.83 1305.07 1022.75 1310.4 1026.09C1315.76 1029.43 1321.74 1031.1 1328.35 1031.1C1334.95 1031.1 1340.92 1029.43 1346.25 1026.09C1351.61 1022.75 1355.85 1017.83 1358.98 1011.33C1362.14 1004.84 1363.72 996.863 1363.72 987.417ZM1398.72 1041.96V932.869H1411.93V1030.25H1462.64V1041.96H1398.72ZM1570.9 987.417C1570.9 998.923 1568.82 1008.87 1564.66 1017.25C1560.51 1025.63 1554.81 1032.09 1547.56 1036.64C1540.32 1041.18 1532.04 1043.46 1522.74 1043.46C1513.44 1043.46 1505.16 1041.18 1497.92 1036.64C1490.67 1032.09 1484.97 1025.63 1480.82 1017.25C1476.66 1008.87 1474.58 998.923 1474.58 987.417C1474.58 975.911 1476.66 965.967 1480.82 957.586C1484.97 949.205 1490.67 942.742 1497.92 938.196C1505.16 933.65 1513.44 931.377 1522.74 931.377C1532.04 931.377 1540.32 933.65 1547.56 938.196C1554.81 942.742 1560.51 949.205 1564.66 957.586C1568.82 965.967 1570.9 975.911 1570.9 987.417ZM1558.11 987.417C1558.11 977.97 1556.53 969.998 1553.37 963.499C1550.24 957 1546 952.081 1540.64 948.743C1535.31 945.405 1529.35 943.736 1522.74 943.736C1516.13 943.736 1510.15 945.405 1504.79 948.743C1499.46 952.081 1495.22 957 1492.06 963.499C1488.93 969.998 1487.37 977.97 1487.37 987.417C1487.37 996.863 1488.93 1004.84 1492.06 1011.33C1495.22 1017.83 1499.46 1022.75 1504.79 1026.09C1510.15 1029.43 1516.13 1031.1 1522.74 1031.1C1529.35 1031.1 1535.31 1029.43 1540.64 1026.09C1546 1022.75 1550.24 1017.83 1553.37 1011.33C1556.53 1004.84 1558.11 996.863 1558.11 987.417ZM1667.69 966.961C1666.51 963.375 1664.97 960.161 1663.05 957.32C1661.17 954.443 1658.91 951.993 1656.29 949.968C1653.69 947.944 1650.75 946.399 1647.44 945.334C1644.14 944.269 1640.52 943.736 1636.58 943.736C1630.11 943.736 1624.24 945.405 1618.94 948.743C1613.65 952.081 1609.44 957 1606.32 963.499C1603.19 969.998 1601.63 977.97 1601.63 987.417C1601.63 996.863 1603.21 1004.84 1606.37 1011.33C1609.53 1017.83 1613.81 1022.75 1619.21 1026.09C1624.61 1029.43 1630.68 1031.1 1637.43 1031.1C1643.68 1031.1 1649.18 1029.77 1653.94 1027.1C1658.74 1024.4 1662.47 1020.6 1665.13 1015.7C1667.83 1010.77 1669.18 1004.96 1669.18 998.284L1673.23 999.136H1640.41V987.417H1681.96V999.136C1681.96 1008.12 1680.04 1015.93 1676.21 1022.57C1672.41 1029.22 1667.15 1034.36 1660.44 1038.02C1653.76 1041.64 1646.09 1043.46 1637.43 1043.46C1627.77 1043.46 1619.28 1041.18 1611.97 1036.64C1604.69 1032.09 1599 1025.63 1594.92 1017.25C1590.87 1008.87 1588.85 998.923 1588.85 987.417C1588.85 978.787 1590 971.028 1592.31 964.138C1594.65 957.213 1597.96 951.318 1602.22 946.453C1606.48 941.587 1611.52 937.859 1617.35 935.266C1623.17 932.674 1629.58 931.377 1636.58 931.377C1642.33 931.377 1647.69 932.248 1652.66 933.988C1657.67 935.692 1662.13 938.125 1666.03 941.286C1669.98 944.411 1673.26 948.157 1675.89 952.525C1678.52 956.858 1680.33 961.67 1681.32 966.961H1667.69ZM1717.8 932.869V1041.96H1704.59V932.869H1717.8ZM1744.29 1041.96V932.869H1810.13V944.588H1757.5V981.451H1806.72V993.17H1757.5V1030.25H1810.98V1041.96H1744.29ZM1893.6 960.143C1892.96 954.745 1890.37 950.554 1885.82 947.571C1881.28 944.588 1875.7 943.097 1869.1 943.097C1864.27 943.097 1860.04 943.878 1856.42 945.441C1852.83 947.003 1850.03 949.152 1848 951.886C1846.01 954.621 1845.02 957.728 1845.02 961.208C1845.02 964.12 1845.71 966.624 1847.1 968.719C1848.52 970.779 1850.33 972.501 1852.53 973.886C1854.73 975.236 1857.04 976.354 1859.45 977.242C1861.87 978.095 1864.09 978.787 1866.11 979.32L1877.19 982.303C1880.03 983.049 1883.19 984.078 1886.68 985.392C1890.19 986.706 1893.55 988.5 1896.74 990.773C1899.97 993.01 1902.64 995.886 1904.73 999.402C1906.83 1002.92 1907.88 1007.23 1907.88 1012.35C1907.88 1018.24 1906.33 1023.57 1903.24 1028.33C1900.19 1033.09 1895.71 1036.87 1889.82 1039.67C1883.96 1042.48 1876.84 1043.88 1868.46 1043.88C1860.64 1043.88 1853.88 1042.62 1848.16 1040.1C1842.48 1037.58 1838 1034.06 1834.74 1029.55C1831.51 1025.04 1829.68 1019.8 1829.25 1013.84H1842.89C1843.24 1017.96 1844.63 1021.37 1847.04 1024.07C1849.49 1026.73 1852.58 1028.72 1856.31 1030.03C1860.08 1031.31 1864.12 1031.95 1868.46 1031.95C1873.5 1031.95 1878.03 1031.13 1882.04 1029.5C1886.05 1027.83 1889.23 1025.52 1891.58 1022.57C1893.92 1019.59 1895.09 1016.11 1895.09 1012.13C1895.09 1008.51 1894.08 1005.56 1892.06 1003.29C1890.03 1001.02 1887.37 999.171 1884.06 997.751C1880.76 996.33 1877.19 995.087 1873.36 994.022L1859.93 990.187C1851.41 987.736 1844.66 984.238 1839.69 979.693C1834.72 975.147 1832.23 969.199 1832.23 961.847C1832.23 955.739 1833.89 950.412 1837.19 945.867C1840.53 941.286 1845 937.734 1850.61 935.213C1856.26 932.656 1862.56 931.377 1869.52 931.377C1876.55 931.377 1882.8 932.638 1888.27 935.16C1893.74 937.646 1898.07 941.055 1901.27 945.387C1904.5 949.72 1906.21 954.638 1906.38 960.143H1893.6Z" fill="#201E1E"/>
<path d="M511.157 493.542V315.418L679.035 473.018V904.928L175.401 411.261V781.513H7.52295V0.0109863L511.157 493.542Z" fill="#201E1E"/>
<path d="M729.486 493.543L477.678 246.718V0.0310059L813.422 328.993L1023.27 123.3H1274.94L897.359 493.543V740.368L729.486 822.654V493.543Z" fill="#201E1E"/>
<path d="M1250.26 452.39L1107.05 312.013L1233.46 189.218C1799.87 744.187 1294.84 249.247 1711.93 658.088V904.931L1376.18 575.81L1166.33 781.509H914.498L1250.26 452.39Z" fill="#201E1E"/>
<path d="M1323.24 246.701V-0.00219727L1659 328.979L1868.85 123.28H2120.53L1784.91 452.392L1994.76 658.09V904.933C1429.82 351.159 1739.17 654.378 1323.24 246.701Z" fill="#201E1E"/>
</g>
<defs>
<clipPath id="clip0_7836_69">
<rect width="2120.95" height="1096" fill="white"/>
</clipPath>
</defs>
</svg>
